<?xml version="1.0" encoding="UTF-8"?>
<svg id="Camada_2" data-name="Camada 2" xmlns="http://www.w3.org/2000/svg" xmlns:xlink="http://www.w3.org/1999/xlink" viewBox="0 0 554.09 141.77">
  <defs>
    <style>
      .cls-1 {
        fill: #4a4b4b;
      }

      .cls-2 {
        fill: #105398;
      }

      .cls-3 {
        opacity: .5;
      }

      .cls-3, .cls-4, .cls-5, .cls-6, .cls-7 {
        fill: #474747;
      }

      .cls-8 {
        fill: #b0191c;
      }

      .cls-9 {
        fill: #315aa6;
      }

      .cls-4 {
        opacity: .2;
      }

      .cls-10 {
        fill: #ee733a;
      }

      .cls-11 {
        fill: #8fc037;
      }

      .cls-12 {
        fill: #fff;
        stroke-width: .25px;
      }

      .cls-12, .cls-13 {
        stroke: #1d1d1b;
        stroke-miterlimit: 10;
      }

      .cls-14 {
        clip-path: url(#clippath-1);
      }

      .cls-15 {
        fill: #621b53;
      }

      .cls-16 {
        fill: #490e11;
      }

      .cls-17 {
        fill: #fbd10d;
      }

      .cls-18 {
        clip-path: url(#clippath);
      }

      .cls-19 {
        fill: #e5211c;
      }

      .cls-20 {
        fill: #111d13;
      }

      .cls-21 {
        fill: #7dba28;
      }

      .cls-22, .cls-13 {
        fill: none;
      }

      .cls-5 {
        opacity: .7;
      }

      .cls-6 {
        opacity: .9;
      }

      .cls-23 {
        fill: #69140f;
      }

      .cls-13 {
        stroke-width: .39px;
      }

      .cls-24 {
        fill: #7ab929;
      }

      .cls-7 {
        opacity: .8;
      }
    </style>
    <clipPath id="clippath">
      <rect class="cls-22" x="429.41" y="87.97" width="114.75" height="45"/>
    </clipPath>
    <clipPath id="clippath-1">
      <rect class="cls-22" x="429.41" y="87.97" width="114.75" height="45"/>
    </clipPath>
  </defs>
  <g id="base">
    <g>
      <rect class="cls-12" x=".12" y=".12" width="553.84" height="141.52"/>
      <g>
        <polygon class="cls-6" points="553.7 66.87 492.01 .12 553.96 .12 553.7 66.87"/>
        <polygon class="cls-4" points="553.7 71.92 503.44 17.41 482.17 27.51 553.7 110.48 553.7 71.92"/>
        <path class="cls-3" d="M553.7,66.87l-44.41-47.86h0c7.33-1,14.68,1.65,19.69,7.1l24.98,27.2-.27,13.56Z"/>
        <path class="cls-7" d="M509.29,19L491.97,.12h-22.56l11.32,12.37c3.8,4.15,9.16,6.51,14.79,6.51h13.77Z"/>
      </g>
      <g>
        <polygon class="cls-4" points="62.67 105.7 44.7 114.33 .12 60.05 .12 32.01 62.67 105.7"/>
        <polygon class="cls-6" points=".12 73.71 .12 141.64 57.28 141.64 .12 73.71"/>
        <path class="cls-5" d="M99.69,141.64l-9.4-9.92c-2.26-2.39-5.41-3.74-8.69-3.74h-20.64c-5.29,0-10.31-2.36-13.69-6.43L.12,64.72v8.99l57.15,67.93h42.41Z"/>
        <path class="cls-3" d="M51.16,111.45l-6.47,2.88L12.71,73.71h0c5.75-.88,11.52,1.48,14.98,6.15l23.47,31.59Z"/>
      </g>
      <rect class="cls-13" x="227.63" y="84.18" width="36.8" height="10.38" rx="5.19" ry="5.19"/>
      <rect class="cls-13" x="285.67" y="84.18" width="36.8" height="10.38" rx="5.19" ry="5.19"/>
      <g id="Arte_181" data-name="Arte 181">
        <g class="cls-18">
          <g class="cls-14">
            <path class="cls-20" d="M437.56,122.65c1.42-.9,3.01-1.34,4.62-1.71,.92,.12,1.16-.14,1.02-1.01-.22-1.31-.06-2.59,.38-3.83,.06,.38-.04,.74-.11,1.12-.15,.86-.18,1.72-.03,2.59,.06,.33,.2,.52,.6,.5,.86-.04,1.71-.21,2.57-.12,.63,.19,1.25,.06,1.87-.11,.06,0,.13,.03,.19,.02,1.49-.27,2.99-.25,4.49-.28,.83-.01,1.66,.11,2.49,.08,.48-.01,.96-.07,1.43,.06,.17,.05,.34,.06,.51,.03,.03,0,.05,0,.08,.02,.04,.02,.09,.04,.13,.06,.15,.02,.29,.14,.46,.09,.44,.03,.88,.06,1.32,.09,1.28,.07,2.57,.15,3.85,.22,.31,.07,.62,.13,.94,.09,.13,0,.25,.01,.38,.02,.37,.14,.75,.08,1.13,.1,.08,.07,.18,.08,.29,.06,.13,0,.25,0,.38,.01,.38,.05,.75,.15,1.13,.1,.03,0,.06,0,.1,0,.24,.13,.5,.1,.76,.08,.06,0,.13,.01,.19,.02,.18,.12,.37,.1,.57,.08,.4,.08,.81,.13,1.22,.13,.08,.09,.18,.08,.29,.06,.44,.02,.87,.15,1.31,.12,0,.06,0,.12,0,.18-.63-.03-1.26,.05-1.88,.11-.32-.06-.63,.03-.94,.09-.54-.08-1.07,.09-1.6,.1-.09,0-.19,0-.28,0-.38,.03-.75,.06-1.13,.1-.14-.03-.26-.01-.38,.07-.19,0-.38,.02-.57,.02-.95,.07-1.9,.1-2.83,.26-.13,0-.25,.01-.38,.02-.06,0-.13,0-.19,0-.35,.03-.69,.06-1.04,.09-.16-.02-.33-.03-.47,.07-.06,0-.12,.01-.19,.01-.06,0-.13,0-.19,0-.47,.04-.94,.07-1.41,.11l-.86,.09c-.16-.03-.32,0-.46,.07-.7,0-1.39,.06-2.08,.2l-.66,.03c-.09,.02-.19,.04-.28,.07-.48-.06-.94,.08-1.42,.1-.13-.02-.27-.04-.38,.07-.48-.02-.94,.06-1.41,.12-.16-.02-.33-.05-.47,.08-.16,0-.31,.01-.47,.02-.12-.02-.24-.04-.35,.05-.04,.01-.08,.02-.12,.03-.06,0-.13,0-.19,.01-.09,0-.19,0-.28,0-.2-.05-.38,.05-.57,.09-.09,0-.19,0-.28,0-.13-.01-.27-.06-.38,.06-.09,.01-.18,.02-.28,.03h-.28c-.06,0-.13,0-.19,0-.08-.02-.14,.02-.19,.07-.42-.05-.82,.07-1.23,.11-.06,0-.13,0-.19,0-.5,.06-1.01,.13-1.51,.19-.14-.02-.27-.03-.38,.07-.25,.03-.52-.07-.76,.08-.28,.05-.58-.06-.85,.11-.06,0-.13,0-.19,.01-.03,0-.06,0-.09,0-.36,.04-.71,.08-1.07,.11-.53,.09-1.07,.08-1.58,.23-.29,.01-.57,0-.84,.11-.32-.05-.63,.08-.94,.11-.44,.06-.88,.12-1.32,.19-.04-.04-.07-.07-.11-.11,.03-.14,.06-.27,.09-.41,.21-.68,.67-1.18,1.16-1.66,.03-.03,.06-.05,.09-.08,.12-.03,.22-.09,.29-.2"/>
            <path class="cls-20" d="M529.22,100.4l.16,.07c.08,.1,.18,.17,.31,.2,.03,.03,.06,.05,.09,.08,.17,.21,.34,.42,.51,.64,.01,.02,.02,.04,.04,.05,.27,.52,.29,1.1,.4,1.66,0,.13,0,.25,0,.38,0,.82-.02,1.63-.02,2.45,0,.67,.01,.68,.69,.65,.09,0,.18,.01,.27,.02,0,.09,.02,.19,.03,.28-.04,.53,.03,1.07-.08,1.6,0,0,0,0,0,0,0-.3-.24-.18-.38-.19-.57-.03-1.15,.05-1.72-.05l-.39-.16c-.07-.09-.14-.18-.21-.27-.11-.21-.06-.44-.1-.71-.17,.22-.31,.41-.46,.6-.09,.09-.19,.17-.28,.26-.75,.41-1.54,.63-2.4,.43-.06,.06-.06,.11,.01,.16h0c0-.1-.04-.15-.14-.16-.07-.03-.11-.12-.21-.09-.22-.1-.43-.21-.65-.31-.14-.12-.29-.24-.43-.36l-.24-.3c-.07-.15-.15-.3-.22-.45-.03-.07-.05-.14-.08-.21,.02-.08,.01-.15-.06-.2h0s0-.88,0-.88c-.15,.13-.22,.27-.28,.41-.07,.15-.14,.31-.21,.46-.02,.02-.05,.05-.07,.07-.13,.16-.25,.33-.38,.49-.02,0-.03,.02-.02,.04-.35,.28-.69,.56-1.04,.84l-.19,.1c-.91,.35-1.84,.58-2.83,.41l-.04-.02h-.05c-.1,0-.2,0-.3,0-.91-.27-1.75-.68-2.36-1.42-1.13-1.37-1.22-2.9-.61-4.52,.05-.13,.11-.26,.16-.38,.18-.22,.35-.45,.53-.67,.03-.03,.07-.07,.1-.1,.17-.15,.35-.3,.52-.44,.12-.02,.19-.09,.25-.19,.21-.05,.39-.17,.56-.29,.12-.04,.25-.08,.37-.12,.08,.01,.14,0,.19-.07,.1-.02,.19-.03,.29-.05,.28-.09,.58,0,.85-.13h.37c.15,.08,.31,.07,.48,.06,.46,.04,.88,.2,1.31,.34,.23,.13,.45,.26,.68,.39,0,.02,.02,.03,.05,.03l.81,.72s.01,.04,.04,.05l.24,.33s.01,.04,.04,.05c.13,.26,.26,.51,.39,.77,.05,.15,.09,.31,.14,.46,.03,.31,.07,.63,.1,.94v.28c-.02,.22-.04,.43-.05,.65,.3-.55,.78-.89,1.28-1.21,.14-.02,.26-.08,.37-.18,.28-.09,.57-.18,.85-.27,.37-.05,.75-.09,1.12-.14,.13,.02,.27,.04,.39-.05,.09-.01,.18-.02,.27-.04,.15,0,.3,0,.45,.01,.25,.02,.23-.12,.19-.29,0-.06,0-.13,0-.19-.07-1.09-1.03-1.26-1.97-1.09-.44,.08-.65,.34-.55,.8-.57,.21-1.15,.08-1.73,.08-.28,0-.06-.32-.17-.45l.05-.55c.04-.16,.08-.31,.12-.47,.04-.07,.08-.14,.12-.21h0c.24-.24,.54-.41,.85-.56l.94-.22c.23,.02,.45,.03,.67-.07,.19,.02,.37,.05,.56,0,.21,.1,.44,.09,.66,.07,.12,.04,.24,.13,.38,.09l.66,.24Zm-12.27,3.86c0,1.4,1.03,2.52,2.37,2.5,1.41-.02,2.41-.99,2.42-2.5,.01-1.55-1.12-2.53-2.4-2.52-1.38,0-2.39,1.07-2.39,2.52m11.09,.35c-.64,.02-1.28,.07-1.86,.39-.41,.23-.58,.6-.48,1.07,.1,.47,.42,.76,.91,.81,.98,.09,1.83-.56,2.03-1.56q.14-.72-.61-.71"/>
            <path class="cls-15" d="M475.16,120.35l-.79,.05c-.12-.01-.24-.04-.34,.05-.11-.06-.23-.05-.34,0-.07-.07-.16-.06-.25-.05-.88-.07-1.75-.12-2.61-.32-.05-.09-.14-.07-.22-.06-1.18-.44-2.33-.94-3.32-1.74-.22-.18-.42,.02-.6,.11-.51,.25-1.03,.49-1.46,.87-.03,.03-.06,.05-.09,.08,0,0,0,0,0,0-.03,.03-.06,.06-.09,.09-.07,.06-.16,.11-.19,.19-.17,.36-.46,.5-.85,.47-.19-.02-.38-.03-.57-.05,0-.67,.06-1.34-.01-1.99-.09-.91-.24-1.83-.65-2.67,0-.06,0-.13-.02-.18-.43-.82-.78-1.68-1.4-2.39-.84-.96-1.7-1.89-2.83-2.52-.2-.16-.41-.31-.66-.37-.16-.06-.32-.13-.48-.19-.04-.08-.11-.09-.19-.09-.16-.15-.38-.13-.57-.2-.43-.27-.93-.35-1.41-.45-.13,0-.25-.01-.38-.02-.17-.16-.38-.08-.57-.09-.16,0-.31,0-.47,0-.29-.14-.57-.14-.85,0-.06,0-.12,0-.18,0-.41,0-.81,.02-1.22,.08-.54,.07-1.04,.31-1.58,.37,0-.12,.1-.13,.19-.18,.48-.24,1.01-.31,1.52-.45,.21-.06,.4-.13,.24-.41,.06-.06,.12-.12,.19-.18h.03c1.52,.01,3.01,.18,4.48,.58,.24,.07,.48,.23,.75,.12,4.26,1.82,6.48,5.12,6.96,9.71,.56-.52,1.2-.84,1.84-1.19-.3-.37-.6-.69-.86-1.04-.88-1.2-1.53-2.51-1.77-4,.16,.04,.32,.08,.49-.01,.18-.1,.4-.13,.61-.08,.39,1.61,1.16,3.01,2.27,4.23,.33,.36,.62,.46,1.12,.35,2.39-.56,4.76-.48,7.08,.41,.57,.22,1.1,.51,1.53,.96,.64,.67,.5,1.45-.33,1.88-.31,.16-.64,.24-.98,.3-.05,.02-.1,.03-.16,.05"/>
            <path class="cls-20" d="M506.2,118.23c0,.17,.06,.32,.18,.45,.03,.03,.05,.1,.08,.1,.73,0,.56,.53,.57,.95,0,.3,0,.59,0,.89-.5,.01-.99,.02-1.49,.03-.11-.11-.25-.08-.38-.07-.23-.11-.42-.28-.56-.49l-.21-.48s0-.08,0-.12c-.09-.21-.18-.42-.26-.63,.02-.11-.02-.21-.1-.28q-.19-.86-.75-.83h-3.11c-.14-.04-.23,0-.28,.15-.15,.48-.31,.96-.47,1.43-.11,.14-.15,.3-.18,.47-.22,.57-.67,.8-1.24,.85-.25,0-.5,0-.76,0-.13,0-.25,0-.38,0-.09-.03-.19-.03-.19-.16,0-.49,0-.97,0-1.46,0-.15,.08-.18,.2-.17,.41,.04,.52-.25,.63-.55,1.04-2.82,2.08-5.65,3.1-8.48,.11-.32,.24-.45,.58-.42,.59,.05,1.33-.22,1.74,.1,.39,.3,.44,1.03,.64,1.57,.66,1.79,1.32,3.58,1.97,5.37,.02,.06,.06,.1,.09,.16,.11,.49,.3,.94,.5,1.39,0,.03,.01,.07,.02,.1,.02,.04,.05,.09,.07,.13m-2.93-2.21c-.52-1.47-1.03-2.89-1.43-4.35-.34,1.49-.97,2.88-1.4,4.35h2.83Z"/>
            <path class="cls-20" d="M486.49,106.31c-.67,1.73-2.53,2.33-4.12,2.12-1.19-.16-2.2-.65-3.06-1.47-.16-.15-.21-.28-.03-.45,.05-.04,.07-.1,.11-.15,.26-.33,.47-.81,.81-.95,.38-.15,.61,.43,.97,.61,.78,.41,1.56,.73,2.45,.47,.46-.14,.82-.41,.93-.9,.12-.53-.08-.95-.51-1.27-.48-.36-1.02-.6-1.56-.83-.62-.27-1.2-.59-1.76-.97-.96-.64-1.46-1.52-1.39-2.69,.07-1.27,.77-2.13,1.9-2.6,1.56-.65,3.09-.56,4.48,.48,.59,.44,.88,1.59,.65,2.28-.05,.15-.16,.13-.26,.13-.25,0-.5,0-.75,0-.46,.02-.92,.1-.86-.62,.02-.21-.15-.35-.34-.47-.63-.39-1.71-.38-2.3,.04-.57,.41-.56,1.28,.03,1.73,.45,.34,.98,.54,1.49,.77,.77,.34,1.53,.69,2.2,1.22,.68,.54,1.02,1.23,1.1,2.08-.02,.48,.02,.97-.18,1.43"/>
            <path class="cls-20" d="M486.74,120.66c-.44,0-.88,0-1.32,0-.52-.08-.88-.33-.86-.99-.19,.22-.32,.37-.46,.52-.07,.06-.13,.11-.2,.17-.28,.13-.57,.25-.85,.38-.19,.02-.37,.04-.56,.05-.06,0-.13,0-.19,.01-.25-.02-.5-.04-.75-.05-.31-.13-.62-.27-.93-.4-.07-.05-.14-.1-.2-.15-.19-.19-.37-.38-.56-.58-.03-.03-.05-.06-.08-.09-.11-.22-.22-.44-.33-.67-.05-.12-.11-.24-.16-.36,0-.11,.03-.22-.09-.3-.16-.91-.12-1.82,.1-2.71,.07-.16,.14-.33,.22-.49,.01-.04,.03-.09,.04-.13l.29-.41c.04-.06,.07-.11,.11-.17,.13-.13,.26-.26,.39-.38h0c.19-.12,.39-.25,.58-.38,.12-.04,.23-.09,.35-.13,1.16-.32,2.25-.26,3.19,.63v-.98c0-.16,0-.31,0-.47,.07-.34-.03-.51-.41-.48-.14,.01-.28,0-.42,0,0-.25-.02-.5-.03-.74,0-.19,0-.38,0-.57,.02-.11,.02-.22,.18-.21,.7,.03,1.4-.09,2.09,.09,.04,.02,.08,.05,.12,.07,0,.03,.02,.04,.05,.05,.07,.1,.13,.2,.2,.3,.01,.34,.03,.68,.04,1.03v.57c0,.16,0,.31,0,.47v.38c0,1.72,0,3.44-.02,5.16,0,.34,.15,.47,.45,.43,.39-.06,.45,.15,.44,.45v.19s0,.28,0,.28c0,.19,0,.38-.01,.57-.04,.03-.08,.06-.11,.1-.09,0-.19,0-.28,0m-2.25-3.43c.07-.28,0-.55-.02-.81-.09-.91-.71-1.6-1.61-1.68-.71-.06-1.39,.25-1.73,1.15-.3,.79-.29,1.6,.07,2.37,.5,1.07,1.85,1.33,2.7,.52,.44-.42,.6-.97,.58-1.56"/>
            <path class="cls-20" d="M518.56,120.21c-.09-.07-.17-.15-.26-.22-.09-.12-.19-.24-.28-.37-.51-1.29-.4-2.36,.38-2.97,.6-.47,1.28-.78,2.04-.9,.67-.11,1.33-.21,2.01-.18,.23,0,.29-.06,.29-.29-.02-.5-.15-.97-.62-1.18-.57-.25-1.19-.25-1.77,.05-.15,.08-.19,.25-.16,.41,.06,.32-.11,.36-.37,.34-.34-.02-.7-.04-1.04,0-.42,.06-.51-.14-.5-.48,.02-.44,.05-.88,.32-1.25,.12-.22,.26-.43,.54-.46,.11,.03,.2,.03,.27-.08l.38-.11c.11,0,.23,.05,.32-.07,.03,.01,.05,0,.07-.02,.32,.03,.63-.01,.94-.1,.22,.01,.43,.03,.65,.04,.44,.09,.88,.19,1.32,.28,.13,.06,.25,.12,.38,.18,.22,.19,.45,.38,.67,.58,.15,.28,.3,.55,.45,.83,.06,.38,.13,.75,.19,1.13,0,.16,0,.31,.01,.47v.19c-.04,.82-.04,1.64,0,2.45-.07,.39,.14,.49,.48,.45,.16,.01,.31,.02,.47,.03,0,.51,.01,1.03,.02,1.54-.05,.21-.22,.13-.34,.13-.58,0-1.16,0-1.74,0-.05-.08-.12-.07-.2-.06-.18-.1-.36-.21-.48-.39-.1-.21-.07-.45-.1-.74-.16,.22-.27,.38-.39,.54-.24,.24-.53,.43-.82,.59-.16,.05-.34,.06-.48,.18-.23-.02-.44,.05-.66,.1-.31-.04-.63-.08-.94-.11-.16-.06-.32-.12-.48-.18-.19-.12-.38-.24-.57-.35m3.42-3.23c-.65,0-1.27,.07-1.83,.43-.32,.2-.48,.52-.44,.87,.04,.4,.25,.72,.66,.88,.87,.34,1.83-.18,2.25-1.21,.34-.84,.25-.98-.64-.97"/>
            <path class="cls-20" d="M532.99,114c-.08-.02-.14,0-.17,.08,0,0,0,0,0,0-.1-.25-.31-.09-.47-.11-.4,.03-.86-.04-.93,.55,.03,.29-.07,.41-.39,.39-.37-.03-.75-.02-1.13,0-.27,.01-.37-.04-.39-.35-.05-1.07,.31-1.79,1.74-2.04,1.13-.2,2.23-.22,3.28,.28,.87,.41,1.27,1.16,1.4,2.07,.14,1.03,.06,2.07,.07,3.1,.01,.99-.12,.98,.96,.99,0,.56-.01,1.12-.02,1.68-.09,0-.17,.01-.26,.02-.09,0-.19,0-.28,0-.6-.06-1.2,.04-1.79-.11-.03-.08-.11-.09-.18-.1-.08-.13-.16-.25-.24-.37-.03-.19-.06-.38-.09-.61-.14,.2-.24,.36-.34,.51-.15,.13-.31,.27-.46,.4-.07,.04-.13,.07-.2,.11-.15,.06-.31,.13-.46,.19-.08-.02-.14,0-.19,.07-.23-.01-.45,.03-.66,.1-.48-.06-.96-.13-1.42-.29-.29-.21-.63-.36-.87-.63-.18-.32-.37-.65-.55-.97h.01s-.02-.37-.02-.37c-.01-.53,.05-1.04,.31-1.51,.1-.12,.2-.25,.3-.37,.12-.09,.23-.18,.35-.27,.06-.04,.12-.08,.19-.12,.14-.03,.27-.09,.38-.19,.14-.04,.28-.07,.39-.18h0c.19-.06,.38-.12,.57-.18,.72-.07,1.44-.15,2.16-.22,.29,.07,.43,0,.39-.34-.04-.35-.1-.67-.38-.91-.09-.07-.19-.14-.28-.21-.1-.03-.21-.06-.31-.09m.2,2.98c-.62-.01-1.26,.06-1.82,.45-.31,.21-.48,.52-.41,.88,.07,.39,.27,.71,.69,.85,.91,.3,1.8-.19,2.22-1.25,.34-.85,.27-.94-.67-.93"/>
            <path class="cls-17" d="M446.6,107.25c.94-.42,1.95-.68,2.83-1.27,1.11-.74,2.01-1.68,2.79-2.76,.26-.37,.19-.7,.03-1.06-.69-1.59-.88-3.26-.78-4.98,.04-.74,.15-1.47,.48-2.15,.25-.52,.56-.99,1.26-.97,.67,.02,1.01,.45,1.24,.99,.52,1.22,.54,2.5,.48,3.8-.06,1.22-.37,2.39-.84,3.5-.16,.37-.06,.62,.13,.91,.65,.98,1.47,1.79,2.36,2.54-.21,.29-.42,.59-.63,.88-.07-.03-.15-.05-.21-.09-.8-.59-1.5-1.28-2.11-2.06-.4-.51-.4-.53-.8-.06-.63,.74-1.26,1.48-2.05,2.05-1.18,.85-2.43,1.54-3.88,1.82,.08-.41-.24-.71-.29-1.09"/>
            <path class="cls-20" d="M486.94,104.9c.66-.95,1.62-1.35,2.71-1.52,.62-.1,1.24-.18,1.86-.18,.19,0,.24-.06,.23-.24-.02-.49-.12-.96-.6-1.19-.58-.28-1.18-.27-1.76,.03-.11,.06-.21,.18-.18,.3,.1,.52-.25,.45-.56,.44-.2,0-.41,0-.61,0q-.74,0-.71-.76c.02-.57,.23-1.07,.77-1.3,1.45-.6,2.93-.68,4.36,.04,.86,.43,1.22,1.24,1.26,2.16,.06,1.1,.03,2.2,.04,3.3,0,.57,.05,.63,.61,.62,.3,0,.43,.06,.39,.38-.05,.43,.18,1.01-.09,1.26-.24,.21-.81,.06-1.23,.07-.09,0-.19,0-.28,0-.91,0-1.18-.23-1.27-1.16-.8,1.2-1.92,1.55-3.24,1.23-1.06-.26-1.73-.96-1.93-2.06,0-.48,.03-.96,.22-1.41m3,1.99c1.09,.09,1.86-1.14,1.87-2.13,0-.14-.09-.15-.19-.15-.71-.02-1.41,0-2.08,.26-.58,.23-.89,.68-.79,1.12,.13,.59,.53,.89,1.19,.89"/>
            <path class="cls-21" d="M457.11,106.17s.06,.02,.08,.04c.03,.06,.07,.09,.13,.08,.97,.48,1.97,.89,3.05,1.08,.99,.17,1.97,.17,2.95,.07,.33-.03,.38-.28,.46-.51,.6-1.74,1.55-3.26,2.95-4.47,.68-.59,1.43-1.08,2.32-1.29,.91-.21,1.75,.17,1.97,.93,.15,.54,.05,1.09-.21,1.6-.76,1.47-1.95,2.52-3.32,3.39-.79,.5-1.64,.87-2.53,1.12-.28,.08-.42,.23-.45,.51-.04,.48-.09,.97-.14,1.45-.35,.39-.74,.43-1.05,.1,0-.39-.05-.79,.02-1.17,.08-.49-.14-.56-.54-.52-1.02,.08-2.03,.03-3.03-.19-1.2-.27-2.35-.66-3.34-1.4-.06-.52,.49-.52,.69-.82"/>
            <path class="cls-20" d="M531.98,102.06c.08-.02,.09-.09,.1-.15,.3-.34,.59-.69,.94-.98,.15-.1,.31-.21,.46-.31,.32-.14,.63-.28,.95-.43,.25-.04,.5-.09,.75-.13,.19,.01,.39,0,.57-.07h.28c.27,.13,.56,.06,.84,.11,.29,.09,.57,.18,.86,.27l.66,.37c.06,.04,.12,.08,.18,.12,.3,.29,.65,.53,.88,.89,.12,.17,.24,.34,.36,.51,.07,.16,.13,.32,.2,.49,.06,.25,.13,.5,.19,.74,0,.06,.01,.11,.02,.17,.13,.55-.03,1.08-.04,1.62-.08,.05-.1,.11-.07,.2-.07,.22-.15,.43-.22,.65-.11,.03-.07,.14-.12,.2-.03,0-.04,.03-.04,.06-.04,.07-.08,.15-.12,.22h0c-.17,.19-.34,.39-.51,.59-.02,0-.04,.02-.04,.04-.04,.04-.07,.08-.11,.12-.06,.06-.13,.12-.19,.18-.87,.62-1.85,.94-2.92,.98-.19,0-.38-.02-.56-.03-.08-.08-.18-.08-.29-.06-.46-.07-.88-.25-1.31-.4-.25-.16-.5-.32-.75-.47-.16-.16-.32-.31-.48-.47-.03-.03-.06-.07-.09-.1-.06-.08-.12-.16-.17-.25-.1-.14-.2-.29-.3-.43l-.21-.44c.03-.15-.09-.25-.11-.38-.23-.88-.19-1.76,.06-2.63,.12-.26,.23-.51,.35-.77m6.23,2.21c.11-1.35-1.03-2.54-2.37-2.54-1.36,0-2.38,1.22-2.38,2.49,0,1.4,1.01,2.52,2.39,2.54,1.35,.01,2.36-1.06,2.37-2.49"/>
            <path class="cls-20" d="M498.94,108.48c-2.13,0-3.9-1.3-4.34-3.23-.61-2.7,1.22-4.97,3.78-5.18,1.82-.15,3.31,.42,4.33,1.97,1.6,2.43,.05,5.9-2.83,6.34-.32,.05-.65,.15-.94,.1m2.34-4.21c.11-1.29-.94-2.53-2.37-2.54-1.33-.01-2.37,1.07-2.37,2.49,0,1.48,.98,2.55,2.37,2.54,1.42-.01,2.45-1.16,2.37-2.49"/>
            <path class="cls-20" d="M514.32,101.81c0,1.15,.03,2.3,0,3.44-.06,1.62-.89,2.66-2.47,3.07-1.44,.38-2.73,.07-3.77-1.03-.75-.79-.8-1.8-.78-2.82,0-.17,.11-.16,.22-.16,.53,0,1.07,0,1.6,0,.24,0,.23,.14,.24,.3,.02,.34,0,.69,.13,1.02,.26,.66,.82,.96,1.64,.86,.58-.07,1.05-.54,1.09-1.17,.05-.75,.05-1.51,.05-2.26,0-1.24-.01-2.48,0-3.73,0-.39-.13-.53-.52-.52-.72,.02-1.45,0-2.17,0-.27,0-.41-.05-.38-.36,.03-.45-.14-1.04,.08-1.32,.24-.29,.85-.08,1.3-.09,.88-.02,1.76,0,2.64,0,.76,0,1.09,.3,1.1,1.08,.02,1.23,0,2.45,0,3.68h-.02Z"/>
            <path class="cls-19" d="M441.09,108.01s-.08,0-.13,0c-.02-.21-.21-.21-.35-.26-1.55-.63-2.9-1.55-4-2.8-.54-.61-1.01-1.26-1.13-2.11-.1-.68,.31-1.31,.96-1.47,1.02-.26,1.83,.25,2.56,.77,.78,.55,1.43,1.28,1.99,2.07,.08,.12,.17,.23,.34,.2h0c-.02,.14-.02,.27,.06,.4,.42,.7,.84,1.39,1.05,2.19,.11,.44,.43,.58,.83,.63,.73,.08,1.46,.14,2.18-.09,.3,.25,.49,.53,.25,.93-.78-.03-1.57,.07-2.35-.08-.34-.06-.58,.12-.51,.48,.19,1.1,.05,2.19-.12,3.27-.12,.76-.41,1.47-.74,2.16-.1,.21-.26,.38-.52,.27-.26-.11-.27-.31-.16-.55,.11-.24,.21-.49,.29-.74,.47-1.4,.64-2.82,.49-4.3-.08-.75-.24-.97-1-.99"/>
            <path class="cls-20" d="M491.74,120.75c-.25,.01-.5,.03-.75,.04-.13,0-.25,0-.38-.01-.39,0-.77-.12-1.15-.2-.18-.08-.36-.16-.53-.24-.18-.12-.37-.23-.55-.35-.14-.13-.28-.27-.42-.4,0-.02-.02-.03-.04-.04-.09-.11-.17-.21-.26-.32-.12-.18-.24-.37-.35-.55-.12-.41-.23-.82-.35-1.23,0-.28,0-.56-.01-.84,.08-.08,.08-.18,.06-.29v-.19c.16-.38,.32-.76,.47-1.13,.06-.08,.13-.17,.19-.25,.14-.16,.28-.33,.41-.49,.12-.1,.24-.19,.36-.29,.14-.08,.3-.14,.39-.28,.29-.12,.59-.24,.88-.36,.39-.04,.79-.09,1.18-.13,.19,0,.38,0,.57,0,.28,.06,.57,.13,.85,.19,.14,.11,.3,.16,.47,.2,.13,.07,.25,.14,.37,.22,.16,.12,.31,.24,.47,.36,.55,.53,.97,1.14,1.16,1.88,.14,.69,.09,1.38-.02,2.08-.13,.1-.08,.27-.16,.39l.02,.03,.03-.02s0,0,0,0c-.06,.02-.09,.06-.08,.12-.13,.2-.25,.41-.38,.61-.1,.05-.16,.14-.2,.24-.15,.14-.3,.28-.45,.42-.22,.15-.45,.31-.67,.46-.13,.06-.26,.11-.38,.17-.15,.05-.31,.09-.46,.14-.11-.02-.2,0-.28,.08m-2.96-3.79c0,1.28,.85,2.22,1.99,2.28,1.31,.07,2.25-.98,2.29-2.14,.05-1.37-.92-2.36-2.14-2.39-1.19-.03-2.12,.98-2.13,2.25"/>
            <path class="cls-20" d="M539.16,117.92c0,.25,0,.5,0,.75,.12,.33,.39,.28,.65,.26,.1,.05,.25-.04,.3,.12,0,.06,0,.13,0,.19,0,.19,0,.38,0,.57,0,.19,0,.38,0,.57-.01,.14,0,.29-.21,.29-.09,0-.19,0-.28,0-.53,0-1.07,0-1.6-.01-.79-.26-.87-.36-.9-1.2,0-.17-.02-.33-.04-.5,0-1.82,.02-3.63,.03-5.45,0-.63,0-1.25,0-1.88,0-.38-.13-.57-.52-.5-.42,.08-.52-.12-.46-.49,.02-.17,0-.34,0-.52q0-.68,.66-.72c.42,0,.84,.01,1.25,.02,.74,0,.97,.21,1.12,.95v5.47c0,.28,0,.57,0,.85,0,.16,0,.31,0,.47,0,.25,0,.5,0,.76"/>
            <path class="cls-20" d="M507.21,118.58c0-1.3,.01-2.6,.01-3.9,0-.15,.03-.33-.18-.38-.05-.09-.12-.06-.2-.05-.5,.08-.6-.15-.58-.62,.04-1.1,.01-1.1,1.13-1.1,.27,0,.53,0,.8,0,.63,.02,.97,.35,1.01,.98,.01,.22,0,.45,.04,.68,.28-.5,.6-.96,1.06-1.28,.56-.39,1.15-.65,1.85-.38,0,.57,0,1.13,0,1.7-.03,.31-.28,.18-.43,.18-.72,0-1.33,.22-1.8,.78-.26,.25-.39,.57-.49,.91,0,.08-.02,.16-.03,.24-.1,.1-.12,.22-.08,.35-.15,.97-.08,1.95-.07,2.92-.03,.28-.05,.57,0,.85-.05,.18-.2,.17-.34,.19-.19,0-.38,0-.57,0-.37-.02-.74-.03-1.11-.05-.01-.68-.02-1.35-.03-2.03"/>
            <path class="cls-20" d="M518.17,114.42c-.92-.06-1.75,.13-2.33,.9-.46,.61-.55,1.35-.57,2.08-.03,.96-.02,1.92,0,2.87,0,.28-.06,.39-.36,.37-.41-.03-.82-.03-1.22,0-.34,.02-.42-.1-.41-.42,.02-1.68,0-3.36,0-5.04q0-.94-.95-.95c0-.57,0-1.13,0-1.7,.58,0,1.16,0,1.74,0,.83,0,1.14,.31,1.17,1.16,0,.12-.04,.25,.09,.38,.17-.24,.32-.49,.5-.71,.45-.53,1.01-.85,1.72-.94,.46-.05,.72,.06,.63,.57,0,.47-.02,.94-.03,1.41"/>
            <path class="cls-15" d="M469.66,108.49c1.64-.02,3.1,1.37,3.08,3.04-.02,1.62-1.15,3.02-3.03,3.04-1.7,.01-3.04-1.22-3.04-3.02,0-1.72,1.23-2.93,3-3.06m.17,1.51c-.1,.12-.21,.22-.38,.19-.19-.24-.43-.36-.73-.29-.36,.08-.57,.32-.7,.66-.09,.24-.03,.49,.16,.57,.5,.22,1.04,.39,1.6,.17,.06-.03,.12-.07,.18-.1,.35,.11,.98-.14,1.16-.46,.16-.3-.04-.73-.45-.95-.38-.21-.65-.14-.84,.21m-.02,1.93c-.14-.41-.37-.41-.65-.27-.23,.12-.48,.22-.71,.34-.24,.12-.48,.26-.49,.57,0,.33,.23,.49,.47,.65,.18,.11,.37,.17,.57,.19,.49,.05,.69-.12,.74-.62,.01-.15-.08-.34,.11-.45,.33,.73,.52,.91,.84,.84,.36-.08,.75-.68,.74-1.15,0-.44-.37-.51-.68-.57-.39-.08-.84-.22-.95,.47"/>
            <path class="cls-21" d="M457.19,101.88c0-1.68,1.34-3.02,3.02-3.02,1.66,0,3.02,1.38,3.01,3.05,0,1.67-1.36,2.98-3.07,2.98-1.65,0-2.96-1.33-2.96-3.01m2.93-.86c-.05,.16-.04,.31,0,.47-.03,.38,.19,.48,.5,.37,.37-.14,.73-.31,1.05-.52,.3-.19,.36-.51,.17-.83-.21-.36-.93-.63-1.29-.48-.47,.18-.43,.59-.41,.99m-.06,.46c0-.71-.32-1.22-.76-1.22-.43,0-.83,.55-.87,1.12-.03,.45,.5,.63,1.17,.69,.42,.03,.48-.26,.46-.6m1.85,1.28c-.01-.31-.14-.51-.39-.58-.36-.1-.73-.18-1.1-.23-.23-.03-.38,.1-.34,.37,.04,.32,.16,.59,.32,.87,.2,.34,.49,.45,.84,.34,.39-.12,.6-.42,.67-.78m-1.86,.31c0-.75-.09-.95-.4-.95-.38,0-.95,.48-.96,.81-.01,.41,.45,.83,.91,.83,.56,0,.42-.42,.45-.69"/>
            <path class="cls-20" d="M527.89,113.02c.13,.38,.1,.77,.1,1.15,0,1.39,0,2.78,0,4.17,0,.15-.07,.31,.06,.44,.24,.32,.59,.11,.88,.18h-.01c0,.43,.02,.87,.02,1.32,.02,.26-.06,.38-.37,.37-.72-.04-1.44,.05-2.15-.1-.28-.19-.46-.44-.46-.8,0-.29-.04-.58-.06-.88,.04-1.38,.04-2.77,0-4.15,.08-.46-.23-.46-.54-.47-.21,0-.46,.06-.43-.29,0-.02,0-.03,0-.05,.05-.45-.2-1.06,.1-1.3,.28-.22,.87-.06,1.32-.07,.16,0,.31,0,.47-.02,.4,.04,.78,.12,1.02,.49"/>
            <path class="cls-2" d="M451.9,108.27c.16,.28-.03,.35-.24,.41-.51,.14-1.04,.22-1.52,.45-.08,.04-.19,.05-.19,.17-.44-.09-.67,.28-.99,.45-1.31,.68-2.49,1.53-3.43,2.67-.85,1.03-1.51,2.17-1.87,3.47-.03,.05-.05,.1-.08,.15,0,.02-.01,.03,0,.05-.44,1.25-.59,2.52-.38,3.83,.14,.87-.1,1.13-1.02,1.01,.07-.84-.43-1.37-1.01-1.85-.19-.16-.42-.27-.63-.4-.71-.45-1.29-.54-2.09,.03-2.01,1.43-4.33,1.89-6.78,1.65-.54-.05-1.08-.17-1.57-.45-.78-.45-.93-1.27-.31-1.93,.56-.61,1.32-.88,2.09-1.1,1.99-.55,4.01-.63,6.05-.3,.05,0,.09,.01,.14,.03,.95,.37,.77,.45,1.56-.39,.27-.28,.5-.6,.75-.9,.4,0,.71,.21,1.03,.4-.24,.59-.76,.97-1.1,1.53,.58,.26,1.14,.55,1.61,.94,.36,.3,.38,.07,.42-.21,.04-.25-.08-.54,.2-.72,0,.2,0,.41,0,.61-.01,.27-.03,.61-.29,.69-.25,.08-.5-.13-.71-.33-.29-.28-.63-.5-1.03-.6-.32-.08-.45-.27-.32-.62,.07-.19,.23-.29,.33-.45,.09-.14,.2-.29,.01-.46-.17-.15-.34-.15-.5,0-.15,.14-.31,.27-.43,.44-.33,.46-.79,.46-1.27,.36-.87-.19-1.75-.31-2.64-.34-1.31-.04-2.58,.21-3.84,.53-.7,.18-1.33,.51-1.89,.97-.46,.38-.42,1.03,.02,1.44,.51,.47,1.15,.6,1.78,.64,2.5,.18,4.84-.35,6.9-1.84,.48-.35,.9-.37,1.38-.11,.1,.05,.2,.1,.3,.15,.9,.39,1.66,.93,1.95,1.94,.02,.07,.06,.15,.11,.2,.14,.16,.31,.11,.48,.05,.13-.05,.21-.11,.19-.27-.11-.73-.16-1.45-.1-2.19,.06-.78,.19-1.54,.39-2.29,.28-1.06,.88-1.96,1.34-2.93,.08-.16,.34-.34,.19-.48-.22-.2-.28,.23-.48,.23,.1-.44,.42-.71,.73-1,.04,.09,.05,.18-.01,.26-.07,.1-.2,.21-.07,.32,.15,.12,.25-.04,.35-.13,.23-.25,.45-.51,.69-.74,.11-.1,.31-.15,.27-.33-.06-.22-.29-.11-.44-.16,1.13-1.08,2.45-1.82,3.94-2.29,.69,.03,1.34-.29,2.03-.29"/>
            <path class="cls-19" d="M448.97,100.54s0,.07,.01,.1c-.05,.18,.07,.33,.11,.5,.25,1.02,.03,1.99-.68,2.71-1.12,1.15-2.81,1.19-4.01,.11-1.25-1.13-1.25-3.18,.16-4.3,1.35-1.07,3.09-.74,4.13,.65,.07,.09,.11,.24,.27,.23m-1.15,2.93c.07,0,.1-.04,.11-.1h0c.2,.03,.28-.09,.3-.27,.04-.4-.08-.7-.49-.86-.13-.05-.34-.08-.33-.28,.01-.18,.2-.16,.33-.21,.3-.13,.47-.35,.49-.68,.02-.59-.67-1.14-1.27-.95-.32,.1-.57,.11-.86,0h-.03s0-.03,0-.03c-.32-.32-.75-.22-.93,.21h0c-.07,0-.1,.03-.1,.1h0c-.28-.03-.33,.2-.38,.39-.04,.14,0,.25,.19,.24h0c-.02,.15-.03,.3,.2,.27h0c-.02,.21-.01,.43-.27,.53-.39,.16-.36,.51-.3,.83,.07,.38,.12,.79,.62,.85,.21,.31,.53,.21,.75,.1,.23-.12,.36-.08,.53,.05,.31,.27,.63,.31,.98,.07,.31,.19,.42,0,.49-.26h0Z"/>
            <path class="cls-9" d="M435.93,114.62s-.06,0-.09-.02c-.21-.34-.68-.31-.9-.64-.1-.14-.27-.12-.43-.1,0,0,0,0,0,0,.05-.2-.09-.31-.19-.45-.4-.62-.6-1.29-.48-2.04,.12-.75,.5-1.35,1.07-1.82,.78-.64,1.66-.8,2.63-.45,.31,.11,.57,.43,.96,.3h0c0,.06,.04,.09,.1,.1h-.01s.07,.06,.11,.09c0,0-.01-.01-.01-.01,.04,.03,.07,.07,.11,.1,0,0-.01-.01-.01-.01l.11,.1h0c-.02,.08,0,.16,.11,.19h-.01c-.03,.14,.06,.26,.13,.38,.49,.92,.54,1.82,.03,2.78-.17,.32-.61,.48-.54,.92,0,0,0,0,0,0-.09,.01-.2,0-.27,.04-.48,.27-.99,.43-1.54,.48-.29,.03-.59-.17-.86,.04m2.1-4.35s-.06-.06-.09-.09c-.12-.33-.42-.22-.59-.15-.28,.13-.51,.11-.76-.02h0c-.01-.05,0-.14-.04-.17-.31-.22-.67-.21-.98-.07-.39,.18-.82,.38-.83,.92,0,.4,.29,.59,.58,.79,.1,.07,.34,0,.31,.21-.03,.15-.21,.16-.34,.2-.18,.06-.32,.15-.25,.37h0c-.35,.17-.31,.36-.02,.56,.02,.01,.03,.03,.01,.05-.02,.15-.03,.29,.16,.33,.03,.03,.06,.06,.1,.09,.37,.42,.67,.45,.97,.09,.12,.06,.27-.17,.39,.08,.19,.37,.57,.37,.89,.28,.37-.09,.67-.35,.77-.74,.04-.15,.15-.43-.19-.47h0c.01-.09,0-.16-.1-.19-.03-.03-.07-.07-.1-.1-.05-.21,.19-.29,.22-.46,.07,0,.15-.02,.18-.11,.42-.3,.32-1.04-.19-1.33-.03-.03-.06-.06-.09-.1"/>
            <path class="cls-20" d="M529.02,97.15c.16-.19,.4-.02,.58-.11,.06,0,.13,0,.19,0,.17,.07,.43-.1,.5,.2,0,0,0,0,0,0-.04,.25-.07,.5-.11,.75-.19,.59-.56,1.01-1.15,1.22-.48,.03-.95,.06-1.39-.19-.21-.18-.41-.37-.62-.54-.23-.18-.47-.36-.79-.21-.32,.15-.4,.44-.39,.77,0,.03,0,.06,0,.1-.37,.18-.76,0-1.14,.1-.29-.34-.05-.69-.02-1.04l.11-.36c.26-.43,.66-.67,1.13-.8,.06,0,.13,0,.19,0,.22,0,.44,.01,.66,.02,.07,.1,.17,.1,.27,.12,.03,.02,.07,.05,.1,.07,.26,.22,.52,.45,.79,.64,.18,.13,.37,.31,.62,.11,.13,0,.2-.09,.25-.2,.16-.19,.17-.42,.21-.65"/>
            <path class="cls-20" d="M489.43,97.06c.34-.05,.66,.1,.95,.32,.16,.12,.32,.26,.47,.39,.63,.51,1.02,.4,1.19-.39,.08-.38,.31-.31,.54-.31,.82,0,.78-.01,.67,.8-.2,1.41-1.87,1.72-2.65,1.05-.2-.17-.41-.34-.62-.5-.51-.36-1.01-.16-1.06,.46-.03,.31-.14,.35-.4,.35-1.02,0-1.08-.06-.76-1.04,.26-.79,.75-1.13,1.66-1.13"/>
            <path class="cls-1" d="M490.19,130.12c.25-.31,.51-.55,.9-.59,.75-.08,1.26,.38,1.3,1.25,.03,.63,0,1.26,.01,1.89,0,.26-.13,.27-.32,.27-.21,0-.27-.07-.27-.27,.01-.55,.01-1.1,0-1.65-.01-.63-.23-.96-.63-1.01-.47-.06-.85,.27-.86,.77-.02,.61-.02,1.23,0,1.84,0,.25-.07,.32-.32,.32-.27,0-.26-.14-.26-.33,0-.52,0-1.04,0-1.56,0-.21-.03-.41-.1-.6-.11-.34-.37-.49-.73-.45-.33,.04-.67,.42-.68,.79-.01,.6,0,1.2,0,1.79,0,.2,.01,.35-.28,.35-.27,0-.3-.12-.3-.34,0-.88,0-1.76,0-2.64,0-.16-.11-.35,.2-.37,.27-.01,.32,.11,.3,.34,0,.04,.01,.09,.02,.13,.76-.77,1.41-.76,2.01,.06"/>
            <path class="cls-1" d="M513.7,130.07c.32-.31,.58-.54,.97-.55,.38,0,.7,.09,.9,.4,.12,.19,.16,.2,.32,.03,.41-.44,.89-.55,1.35-.35,.52,.23,.64,.69,.65,1.2,0,.61,0,1.23,0,1.84,0,.22-.05,.31-.29,.3-.23,0-.3-.08-.29-.3,.01-.58,0-1.16,0-1.75,0-.56-.25-.88-.68-.89-.45-.02-.81,.36-.83,.89-.02,.57,0,1.13,0,1.7,0,.21-.01,.35-.29,.35-.28,0-.29-.13-.29-.35,.01-.57,0-1.13,0-1.7,0-.55-.22-.86-.62-.89-.45-.03-.85,.32-.88,.84-.03,.56,0,1.13,0,1.7,0,.2,.06,.4-.28,.39-.33,0-.29-.19-.29-.4,0-.82,0-1.64,.01-2.45,0-.16-.17-.42,.17-.49,.33-.07,.31,.21,.35,.47"/>
            <path class="cls-11" d="M467.29,124.03c-.81,.09-1.63,.05-2.44,.1-1.86,.12-3.73,.14-5.6,.23-2.52,.13-5.05,.28-7.57,.42-1.41,.08-2.82,.15-4.23,.23-2.49,.15-4.98,.3-7.46,.46-.06,0-.11,.04-.17,.06-.25,.01-.5,.02-.75,.03-.11-.02-.22-.04-.39-.06,.63-.05,1.19-.06,1.75-.14,1.95-.26,3.92-.38,5.88-.58,1.07-.11,2.14-.23,3.22-.32,.92-.08,1.84-.22,2.77-.22-.02,.34,.23,.26,.42,.27,1.5,.03,2.99-.22,4.49-.2,.18-.03,.37-.07,.55-.08,1.2-.04,2.4-.07,3.6-.11,.19-.01,.4,.08,.57-.08,1.63,.03,3.25-.16,4.88-.1,.17,0,.35-.05,.5,.07"/>
            <path class="cls-1" d="M477.39,129.9c0-.51,0-.96,0-1.42,0-.21-.12-.48,.3-.47,.42,.01,.28,.3,.28,.5,.01,1.13,0,2.26,0,3.39,0,.2,.03,.41,.04,.61,0,.18,.14,.41-.23,.43-.3,.01-.34-.13-.31-.37,0-.05,0-.09-.01-.2-.21,.29-.46,.49-.78,.55-.78,.16-1.4-.18-1.66-.94-.2-.58-.18-1.18,.12-1.72,.39-.7,1.28-1.07,2.23-.36m-.01,1.31h0c0-.13-.01-.25,0-.38,.04-.39-.21-.63-.5-.78-.28-.14-.62-.12-.9,.06-.53,.34-.66,1.34-.27,1.95,.23,.37,.58,.44,.97,.38,.37-.05,.57-.33,.67-.64,.06-.18,.01-.4,.01-.61"/>
            <path class="cls-1" d="M524.16,130.05c.31-.25,.54-.47,.86-.52,.75-.12,1.34,.37,1.38,1.16,.03,.66,0,1.32,0,1.98,0,.21-.07,.27-.27,.27-.21,0-.31-.03-.31-.28,.02-.58,.03-1.16,0-1.74-.02-.39-.12-.8-.59-.9-.41-.09-.74,.07-.95,.45-.11,.2-.11,.42-.11,.64,0,.5-.01,1,0,1.51,0,.23-.05,.33-.31,.34-.28,0-.29-.13-.29-.35,0-1.41,0-2.83,0-4.24,0-.22,.02-.34,.29-.35,.27,0,.31,.11,.31,.33,0,.54,0,1.09,0,1.71"/>
            <path class="cls-1" d="M527.05,131.23c0-1.04,.64-1.71,1.63-1.71,.97,0,1.59,.68,1.58,1.76,0,1-.69,1.7-1.67,1.69-.94,0-1.55-.69-1.54-1.74m1.57,1.33c.06-.01,.13-.02,.19-.03,.57-.16,.78-.58,.85-1.11,.07-.53-.15-1.12-.51-1.33-.41-.24-.92-.15-1.22,.23-.39,.49-.39,1.4,0,1.88,.18,.22,.43,.3,.69,.37"/>
            <path class="cls-1" d="M450.51,132.96c-1.52,.04-2.36-.92-2.37-2.3-.01-1.46,.94-2.43,2.33-2.44,.29,0,.59-.02,.88,.08,.19,.07,.3,.09,.23,.34-.07,.28-.22,.18-.37,.14-.81-.22-1.53-.1-2.07,.57-.48,.59-.47,1.78-.04,2.43,.39,.59,1.23,.85,2.05,.63,.17-.05,.35-.17,.45,.13,.1,.32-.15,.25-.3,.33-.27,.14-.56,0-.77,.09"/>
            <path class="cls-1" d="M498.81,132.44c-.28,.26-.5,.45-.81,.49-.86,.12-1.34-.24-1.42-1.13-.05-.66,0-1.32-.02-1.98,0-.25,.16-.22,.31-.23,.19-.01,.28,.04,.29,.26,.02,.64-.06,1.29,.06,1.93,.1,.55,.25,.7,.75,.68,.45-.02,.75-.29,.77-.77,.03-.58,.03-1.16,.01-1.75,0-.26,.07-.36,.34-.36,.27,0,.3,.12,.3,.35,0,.85,0,1.7,0,2.55,0,.17,.14,.42-.22,.46-.39,.04-.32-.23-.36-.5"/>
            <path class="cls-1" d="M453.59,129.52c.94,0,1.58,.7,1.58,1.72,0,1-.69,1.72-1.65,1.72-.96,0-1.62-.71-1.61-1.74,.01-.99,.72-1.69,1.68-1.69m.95,1.74c0-.12,0-.22,0-.31-.06-.55-.44-.97-.93-1.02-.44-.04-.85,.24-.99,.74-.12,.45-.14,.92,.1,1.36,.18,.33,.48,.51,.84,.49,.33-.02,.63-.16,.79-.49,.13-.26,.22-.52,.18-.78"/>
            <path class="cls-1" d="M480.33,129.52c1.09,.01,1.58,.8,1.57,1.73-.01,1.01-.59,1.71-1.7,1.71-.91,0-1.54-.71-1.53-1.7,0-1.07,.65-1.74,1.66-1.74m.93,1.75c0-.76-.25-1.17-.75-1.28-.57-.13-.95,.1-1.16,.71-.23,.69,0,1.51,.5,1.74,.49,.23,.95,.07,1.24-.41,.15-.25,.19-.52,.18-.76"/>
            <path class="cls-1" d="M456.36,130.07c.25-.28,.5-.49,.84-.54,.76-.12,1.37,.36,1.4,1.14,.03,.66,0,1.32,.01,1.98,0,.24-.08,.28-.3,.29-.24,0-.29-.09-.28-.3,.01-.55,.01-1.1,0-1.65,0-.64-.27-.97-.75-.98-.51,0-.86,.4-.87,1,0,.5-.01,1,0,1.51,0,.22,.06,.42-.3,.43-.4,.01-.32-.24-.32-.46,0-.8-.01-1.6,0-2.4,0-.17-.19-.46,.22-.49,.37-.03,.32,.24,.36,.49"/>
            <path class="cls-1" d="M507.87,131.21c.01-1.07,.64-1.7,1.68-1.68,.99,.01,1.55,.75,1.53,1.75-.02,1.03-.62,1.7-1.71,1.68-.96-.02-1.52-.67-1.51-1.75m2.58,.08c0-.69-.22-1.16-.64-1.28-.41-.12-.81-.09-1.08,.3-.32,.45-.36,.95-.19,1.46,.16,.49,.51,.78,.93,.77,.43,0,.85-.36,.95-.83,.03-.15,.02-.31,.03-.43"/>
            <path class="cls-1" d="M472.03,130.04c.32-.33,.65-.54,1.09-.52,.64,.02,1.12,.49,1.15,1.18,.02,.64,0,1.29,.01,1.93,0,.2-.03,.31-.28,.31-.27,0-.3-.12-.3-.34,.01-.52,0-1.04,0-1.56,0-.7-.28-1.05-.8-1.04-.52,0-.84,.39-.84,1.03,0,.5,0,1.01,0,1.51,0,.21,.02,.39-.31,.4-.31,0-.32-.15-.32-.38,0-.83,0-1.67,.01-2.5,0-.17-.13-.43,.2-.48,.35-.06,.34,.21,.38,.46"/>
            <path class="cls-1" d="M504.58,132.44c-.25,.21-.42,.44-.72,.49-.87,.16-1.33-.19-1.46-1.06-.1-.66-.02-1.32-.06-1.98-.02-.29,.15-.29,.35-.3,.23,0,.3,.08,.29,.31-.02,.55,0,1.1,0,1.65,0,.62,.23,.9,.69,.91,.53,.01,.88-.32,.91-.91,.02-.52,0-1.04,0-1.56,0-.19-.09-.41,.27-.41,.32,0,.3,.18,.3,.39,0,.82,0,1.64-.01,2.45,0,.17,.17,.42-.16,.5-.38,.09-.31-.24-.4-.49"/>
            <path class="cls-1" d="M520.27,131.33c-.22,0-.44,0-.66,0-.53,0-.59,.09-.37,.59,.17,.39,.63,.65,1.12,.6,.2-.02,.41-.04,.6-.09,.14-.04,.23-.09,.26,.11,.02,.14,.1,.26-.13,.31-.81,.19-1.78,.23-2.28-.57-.43-.68-.3-1.82,.3-2.38,.4-.38,1.13-.49,1.62-.25,.45,.22,.82,.95,.77,1.47-.02,.21-.12,.22-.28,.22-.31,0-.63,0-.94,0m-.24-.39c.09,0,.19,.02,.28,0,.2-.04,.53,.13,.57-.14,.04-.3-.1-.62-.42-.78-.39-.19-.88-.07-1.11,.3-.1,.16-.27,.37-.17,.55,.08,.15,.32,.04,.48,.06,.12,.01,.25,0,.38,0"/>
            <path class="cls-11" d="M537.15,122.38c1.14-.05,2.28,.09,3.42,.11,.44,0,.87,.03,1.31,.04l.18,.03c.5,.17,1.03,.28,1.46,.62,.43,.34,.73,.76,.61,1.33-.12,.57-.55,.86-1.07,1.02-.8,.26-1.62,.16-2.43,.11-1.63-.1-3.26-.24-4.88-.34-2.85-.18-5.7-.35-8.55-.52-.11,0-.21-.04-.32-.06,.03-.03,.06-.07,.09-.1,.38,0,.75,0,1.13,0,.04,.08,.11,.09,.19,.08h1.41c.16,.04,.32,.07,.47,.1,1.26-.02,2.51,.17,3.77,.2,.27,.18,.57,.06,.85,.09,.69,.03,1.38,.07,2.08,.1,.13,0,.25,0,.38,0,.06,0,.13,0,.19,0,.13,.15,.31,.07,.47,.08,.06,0,.13,0,.19,0h.05s.05,0,.05,0c.22,0,.44,0,.66,0,.16,.13,.32,.14,.48,0h.18c.47,.35,1.01,.12,1.51,.19,.46,.06,.92,.18,1.38,0,.26-.11,.51-.25,.77-.35,.69-.26,.91-.91,.47-1.47-.35-.44-.8-.71-1.38-.73-.02-.13-.11-.16-.23-.19-.58-.14-1.18-.08-1.76-.09-1.04-.09-2.08-.11-3.11-.1,0-.05,0-.11,0-.16"/>
            <path class="cls-1" d="M468.61,132.34c-.32,.38-.64,.61-1.1,.61-.66,0-1.12-.37-1.15-1.03-.03-.69,0-1.38-.01-2.07,0-.23,.1-.26,.29-.25,.18,0,.3,.02,.29,.25-.01,.55,0,1.1,0,1.65,0,.66,.25,.97,.75,.97,.55,0,.85-.35,.85-.99,0-.52,.01-1.04,0-1.56,0-.25,.08-.32,.32-.32,.27,0,.25,.15,.25,.33,0,.88,0,1.76,0,2.64,0,.14,.13,.35-.19,.37-.29,.02-.3-.14-.29-.35,0-.06,0-.12,0-.25"/>
            <path class="cls-1" d="M486.27,132.32c-.32,.4-.61,.62-1.04,.63-.72,.03-1.2-.38-1.22-1.11-.02-.66,0-1.32,0-1.98,0-.21,.07-.26,.27-.27,.22,0,.31,.05,.31,.28-.01,.57-.04,1.13,0,1.7,.06,.73,.36,.92,.78,.89,.52-.04,.81-.34,.81-.93,0-.09,0-.19,0-.28,0-.39,0-.79,0-1.18,0-.2-.13-.49,.29-.48,.39,0,.26,.27,.27,.46,.02,.85,.01,1.7,.02,2.55,0,.17,.05,.34-.23,.34-.26,0-.27-.13-.26-.32,0-.06,0-.13,0-.29"/>
            <path class="cls-8" d="M448.97,100.54c-.16,.01-.2-.13-.27-.23-1.04-1.39-2.78-1.72-4.13-.65-1.42,1.12-1.41,3.17-.16,4.3,1.2,1.08,2.88,1.04,4.01-.11,.71-.72,.93-1.69,.68-2.71-.04-.16-.16-.31-.11-.5,.34,.17,.31,.52,.36,.8,.25,1.57-.84,3.14-2.39,3.44-1.62,.32-3.18-.67-3.57-2.26-.39-1.6,.52-3.19,2.1-3.65,1.36-.4,3.04,.31,3.47,1.47,.01,.03,0,.06,.01,.09"/>
            <path class="cls-8" d="M441.09,108.01c.76,.01,.92,.24,1,.99,.15,1.48-.02,2.9-.49,4.3-.08,.25-.18,.5-.29,.74-.11,.24-.09,.44,.16,.55,.26,.11,.42-.06,.52-.27,.32-.69,.61-1.41,.74-2.16,.17-1.08,.31-2.17,.12-3.27-.06-.37,.18-.55,.51-.48,.78,.15,1.57,.05,2.35,.08,.1,.01,.2,.07,.3,0-.8,.18-1.62,.21-2.43,.13-.58-.06-.56-.06-.51,.54,.19,2.06-.17,4.02-1.19,5.84-.46,.11-.78-.1-1.02-.47,.72-1.44,1.14-2.96,1.11-4.58,0-.4-.06-.81-.11-1.21-.03-.27-.16-.47-.45-.51-.14-.02-.28-.05-.32-.22"/>
            <path class="cls-1" d="M494.76,131.48c0-.35,0-.69,0-1.04,0-.22,.08-.5-.32-.45-.13,.02-.14-.09-.14-.19,0-.1,.03-.22,.14-.2,.34,.04,.3-.18,.34-.41,.09-.57,.27-1.1,.94-1.24,.2-.04,.39-.05,.59,.04,.17,.07,.18,.16,.12,.29-.04,.1-.05,.19-.25,.15-.52-.09-.97,.48-.83,1,.08,.27,.31,.15,.48,.17,.16,.02,.37-.06,.35,.23-.01,.27-.23,.19-.35,.17-.41-.05-.51,.12-.49,.5,.03,.71,0,1.42,.01,2.12,0,.26-.1,.31-.33,.31-.26,0-.26-.13-.26-.32,0-.38,0-.75,0-1.13"/>
            <path class="cls-1" d="M501.29,132.96c-.54,0-.78-.23-.86-.75-.09-.59-.05-1.19-.06-1.79,0-.22,.04-.47-.32-.42-.14,.02-.19-.06-.19-.2,0-.13,.04-.22,.19-.2,.31,.04,.31-.17,.32-.38,0-.15-.07-.31,.08-.44,.13-.11,.3-.13,.44-.1,.17,.04,.09,.22,.08,.32-.05,.44,.06,.69,.57,.59,.16-.03,.32-.03,.3,.22-.01,.23-.18,.2-.3,.18-.5-.09-.62,.13-.57,.59,.04,.47,0,.94,.02,1.41,0,.24,.08,.44,.36,.46,.19,.01,.43-.08,.41,.27-.03,.39-.36,.11-.47,.24"/>
            <path class="cls-8" d="M441.34,104.41c-.17,.03-.26-.09-.34-.2-.56-.79-1.21-1.52-1.99-2.07-.74-.52-1.55-1.03-2.56-.77-.65,.17-1.06,.8-.96,1.47,.12,.85,.6,1.5,1.13,2.11,1.1,1.26,2.45,2.17,4,2.8,.14,.06,.33,.05,.35,.26-.18,.13-.31-.04-.44-.09-1.97-.81-3.64-2.02-4.78-3.86-.39-.62-.64-1.3-.37-2.05,.2-.55,.64-.76,1.16-.82,1.67-.19,2.71,.83,3.75,1.85,.41,.4,.81,.84,1.05,1.37"/>
            <path class="cls-1" d="M517.68,90.98c-.27,.1-.41-.01-.52-.21-.15-.29-.33-.57-.47-.86-.08-.17-.2-.2-.37-.21-.87-.04-.87-.04-.87,.83,0,.09,0,.19,0,.28,0,.13-.03,.21-.18,.21-.14,0-.2-.04-.2-.19,0-.86,0-1.73,0-2.59,0-.17,.09-.21,.24-.2,.55,.02,1.1,.01,1.65,.04,.39,.02,.61,.24,.7,.63,.08,.37-.05,.68-.34,.84-.32,.17-.29,.3-.12,.55,.18,.27,.32,.57,.49,.88m-1.41-2.6h0c-.14,0-.29,.01-.42,0-.34-.05-.45,.09-.4,.41,.02,.14,0,.28,0,.42,0,.1,.03,.19,.15,.19,.45-.02,.9,.05,1.35-.05,.28-.07,.36-.28,.35-.48,0-.23-.14-.46-.42-.48-.2-.02-.41,0-.61,0"/>
            <path class="cls-1" d="M460.2,132.96c-.18-.04-.44,.03-.67-.1-.14-.07-.28-.07-.2-.32,.08-.24,.17-.18,.34-.13,.26,.08,.51,.21,.81,.07,.21-.09,.35-.21,.38-.43,.03-.23-.11-.39-.3-.49-.18-.1-.37-.16-.55-.25-.5-.24-.73-.6-.65-1.02,.08-.43,.53-.76,1.04-.77,.23,0,.46,0,.7,.08,.2,.07,.17,.19,.13,.33-.05,.15-.13,.16-.29,.1-.21-.07-.44-.17-.68-.06-.17,.08-.3,.16-.33,.35-.03,.21,.04,.37,.24,.45,.14,.06,.28,.14,.42,.2,.64,.29,.93,.68,.83,1.15-.1,.49-.5,.77-1.22,.81"/>
            <path class="cls-1" d="M462.19,131.1c0-.25,0-.5,0-.75,0-.2,.02-.39-.28-.34-.13,.02-.21-.04-.2-.19,0-.11,0-.24,.17-.22,.36,.05,.31-.2,.31-.42,0-.12-.02-.28,.04-.36,.09-.13,.26-.16,.42-.14,.19,.03,.13,.2,.12,.3-.08,.5,.14,.68,.62,.62,.13-.02,.29-.04,.31,.18,.01,.25-.16,.25-.31,.22-.57-.1-.66,.19-.61,.66,.05,.45-.04,.91,.05,1.36,.05,.29,.17,.47,.49,.43,.17-.02,.3-.01,.3,.23,0,.23-.12,.23-.29,.26-.73,.09-1.06-.19-1.13-1-.02-.28,0-.57,0-.85"/>
            <path class="cls-1" d="M522.71,130.47c0,.72,0,1.44,0,2.16,0,.21-.04,.31-.28,.31-.23,0-.35-.06-.35-.31,0-1.44,.01-2.88,.01-4.32,0-.22,.09-.29,.31-.29,.21,0,.31,.05,.31,.29-.01,.72,0,1.44,0,2.16"/>
            <path class="cls-1" d="M463.03,89.43c.05-.4-.22-1.1,.1-1.31,.45-.28,1.12-.1,1.7-.05,.56,.05,.83,.41,.76,.96-.04,.26-.16,.48-.42,.57-.25,.09-.23,.21-.1,.4,.16,.23,.29,.48,.41,.74,.04,.07,.21,.18,.03,.26-.1,.04-.24,.05-.32-.1-.19-.34-.38-.68-.59-1.01-.11-.18-1.1-.3-1.19-.14-.12,.21,0,.47-.05,.69-.05,.19,.19,.56-.19,.55-.28,0-.12-.35-.14-.54-.03-.31,0-.63,0-1.02m1.17-1.06h0c-.19,0-.38,0-.56,0-.2-.01-.32,.06-.28,.26,.05,.26-.18,.67,.17,.74,.43,.08,.9,.09,1.35-.03,.29-.08,.35-.26,.34-.53-.02-.3-.2-.41-.45-.43-.19-.02-.38,0-.56,0"/>
            <path class="cls-20" d="M526.68,109.4c.13,0,.25,0,.38,0,.22,0,.44,0,.66,0,.22,.41,.04,.84,.09,1.26,.02,.18,0,.37,0,.56l-1.7,.02c-.14-.55-.03-1.1-.06-1.65-.01-.2,.15-.16,.25-.19,.13,0,.25,0,.38,0"/>
            <path class="cls-1" d="M486.28,89.55c0-.39,.01-.79,0-1.18-.01-.24,.07-.35,.32-.34,.6,0,1.19,.01,1.79,.01,.13,0,.25,0,.24,.19,0,.18-.14,.14-.24,.14-.47,0-.95,.03-1.41,0-.35-.02-.34,.16-.33,.4,.02,.23-.09,.54,.34,.5,.19-.02,.38,0,.57,0,.14,0,.31-.02,.3,.19,0,.2-.17,.14-.28,.15-.11,0-.22,.02-.33,0-.48-.08-.64,.1-.62,.59,.02,.38,.1,.53,.5,.5,.44-.03,.88,0,1.32,0,.12,0,.27-.03,.28,.16,.01,.2-.14,.17-.26,.17-.63,0-1.26,0-1.89,0-.27,0-.31-.12-.3-.34,.01-.38,0-.75,0-1.13"/>
            <path class="cls-1" d="M471.07,89.46c.05-.4-.22-1.06,.1-1.34,.28-.24,.92-.07,1.41-.07,.17,0,.35,0,.52,0,.14,0,.25,.02,.24,.2,0,.18-.14,.14-.24,.14-.46,0-.91,.02-1.36,0-.33-.02-.31,.18-.29,.39,.03,.19-.15,.52,.27,.51,.2,0,.41,0,.61,0,.14,0,.25,.02,.25,.2,0,.17-.13,.15-.23,.15-.11,0-.22,.02-.33,0-.47-.09-.6,.1-.59,.57,0,.44,.14,.55,.55,.52,.42-.04,.85-.01,1.27,0,.12,0,.27-.01,.27,.18,0,.21-.16,.15-.27,.15-.63,0-1.26,0-1.88,0-.23,0-.3-.07-.29-.29,.02-.39,0-.78,0-1.27"/>
            <path class="cls-1" d="M455.01,89.52c0-.36,.02-.72,0-1.08-.02-.3,.07-.43,.39-.41,.52,.03,1.03,.01,1.55,.06,.48,.05,.75,.39,.72,.82-.03,.44-.38,.78-.83,.79-.36,.01-.72,.03-1.08,0-.31-.03-.38,.1-.36,.37,.02,.2,.02,.41,0,.61,0,.13,.09,.34-.18,.35-.27,.01-.19-.19-.19-.33,0-.39,0-.78,0-1.18h0Zm1.19-1.14h0c-.11,0-.22,.01-.33,0-.4-.07-.54,.1-.48,.49,.02,.11,0,.22,0,.33,0,.12,.03,.22,.18,.21,.44-.03,.88,.05,1.31-.05,.28-.07,.4-.26,.38-.51-.02-.26-.19-.43-.46-.46-.2-.02-.41,0-.61,0"/>
            <path class="cls-1" d="M506.6,130.12c.19-.31,.39-.51,.67-.58,.15-.03,.37-.1,.39,.18,0,.18,.04,.37-.27,.38-.51,0-.7,.37-.73,.8-.04,.56-.03,1.13-.02,1.69,0,.26-.08,.35-.35,.35-.28,0-.3-.13-.29-.35,0-.83-.01-1.66,0-2.49,0-.19-.18-.49,.24-.52,.41-.03,.27,.28,.35,.54"/>
            <path class="cls-1" d="M525.66,90.97c-.29,.14-.44,0-.49-.22-.13-.5-.46-.62-.92-.55-.11,.02-.22,.02-.33,0-.46-.07-.78,.06-.92,.55-.06,.21-.19,.37-.48,.21,.44-.91,.89-1.82,1.32-2.73,.07-.14,.15-.2,.28-.2,.14,0,.16,.13,.2,.22,.44,.89,.88,1.79,1.33,2.71m-.93-1.1c-.22-.45-.43-.86-.65-1.31-.2,.48-.48,.85-.6,1.31h1.25Z"/>
            <path class="cls-1" d="M509.49,89.25c0,.25,0,.5,0,.76,0,.75-.35,1.08-1.15,1.1-.86,.02-1.27-.31-1.3-1.06-.02-.57,0-1.13,0-1.7,0-.14-.02-.3,.19-.3,.24,0,.18,.18,.18,.3,0,.55,0,1.1,0,1.65,0,.59,.19,.74,.88,.74,.64,0,.81-.15,.82-.74,0-.55,0-1.1,0-1.65,0-.14-.03-.3,.19-.3,.23,0,.18,.17,.18,.3,0,.3,0,.6,0,.9"/>
            <path class="cls-1" d="M464.76,130.2c.19-.36,.4-.58,.7-.65,.14-.03,.37-.14,.4,.15,.02,.2,.05,.39-.28,.4-.46,.02-.73,.34-.74,.85-.01,.55-.01,1.1,0,1.65,0,.22-.03,.34-.3,.34-.28,0-.3-.13-.3-.35,0-.83,.04-1.67-.03-2.5-.02-.18-.19-.45,.2-.5,.44-.06,.32,.27,.36,.61"/>
            <path class="cls-1" d="M531.41,130.15c.29-.27,.44-.62,.84-.63,.15,0,.31-.03,.28,.19-.02,.14,.11,.34-.2,.38-.57,.07-.82,.38-.83,.98-.01,.5,0,1,0,1.51,0,.2,.01,.36-.28,.36-.27,0-.29-.13-.29-.34,0-.88,0-1.76,0-2.64,0-.15-.1-.35,.2-.37,.31-.02,.27,.18,.27,.36,0,.05,0,.09,0,.2"/>
            <path class="cls-1" d="M478.81,89.51c0-.39,0-.79,0-1.18,0-.19,.05-.29,.26-.29,.61,0,1.22,0,1.83,0,.12,0,.23,.01,.24,.16,.01,.2-.14,.17-.26,.17-.47,0-.94,.02-1.41,0-.39-.02-.28,.25-.28,.44,0,.19-.12,.47,.27,.45,.22-.01,.44,0,.66,0,.13,0,.21,.05,.21,.19,0,.17-.12,.15-.23,.16-.02,0-.03,0-.05,0-.29,.05-.67-.15-.84,.1-.13,.2-.03,.55-.03,.83,0,.08,0,.16,0,.24,0,.12,.02,.25-.18,.26-.19,0-.2-.11-.2-.24,0-.42,0-.85,0-1.27"/>
            <path class="cls-1" d="M500.81,88.05c.39,0,.79,0,1.18,0,.13,0,.25,0,.24,.19-.02,.18-.15,.12-.25,.13-.03,0-.06,0-.09,0q-.9,.02-.9,.9c0,.49,0,.97,0,1.46,0,.15,0,.29-.21,.28-.2-.01-.16-.16-.16-.27,0-.63-.04-1.26,.01-1.88,.03-.45-.14-.54-.53-.49-.15,.02-.31,0-.47,0-.13,0-.26,0-.24-.19,.01-.16,.13-.15,.24-.15,.39,0,.78,0,1.18,0v.02Z"/>
            <path class="cls-2" d="M438.51,109.41c-.39,.13-.65-.19-.96-.3-.97-.35-1.85-.19-2.63,.45-.57,.47-.95,1.08-1.07,1.82-.12,.74,.08,1.42,.48,2.04,.09,.15,.24,.25,.19,.45-1.34-1.14-1.14-3.5,.39-4.58,1.12-.8,2.7-.75,3.6,.12"/>
            <path class="cls-1" d="M470.59,131.28c0,.45,0,.91,0,1.36,0,.23-.07,.3-.3,.3-.22,0-.29-.07-.29-.3,.01-.91,0-1.82,0-2.73,0-.19,.01-.32,.27-.32,.24,0,.33,.07,.32,.32-.02,.45,0,.91,0,1.36"/>
            <path class="cls-11" d="M452.47,124.25c.43-.17,.89-.03,1.32-.18,.06,0,.12-.02,.19-.02,1.12-.01,2.24-.16,3.36-.25,1-.08,1.99-.17,2.99-.21,.53-.02,1.05-.17,1.59-.08l-.19,.17c-.31,.03-.63,.07-.94,.1-.09-.12-.19-.12-.28,0-.38,0-.75,0-1.13,.01-.26,0-.52-.06-.76,.09-.06,0-.13,0-.19,0-.16,.01-.34-.07-.47,.09-.16,0-.31,0-.47,0-.62,.03-1.26,0-1.87,.11-.56,.1-1.12,.06-1.68,.14-.47,.07-.97,.29-1.46,.03"/>
            <path class="cls-1" d="M464.63,112.17c-.21-.06-.43-.03-.61,.08-.17,.1-.32,.05-.49,.01-.12-.4-.18-.81-.2-1.23,.44,.36,.76-.04,1.11-.19-.01,.45,.11,.89,.18,1.33"/>
            <path class="cls-10" d="M446.01,108.49c-.1,.07-.2,0-.3,0,.24-.4,.05-.68-.25-.93,.03-.03,.07-.07,.1-.1,.33-.11,.68-.19,1.03-.19,.05,.37,.37,.68,.29,1.09-.29,.08-.56,.2-.87,.14"/>
            <path class="cls-8" d="M445.57,107.44s-.07,.07-.1,.1c-.72,.23-1.45,.17-2.18,.09-.41-.05-.72-.19-.83-.63-.21-.8-.63-1.49-1.05-2.19-.08-.13-.09-.26-.06-.41,.59,.7,.95,1.53,1.22,2.38,.15,.47,.38,.62,.86,.66,.72,.06,1.44,.02,2.15,0"/>
            <path class="cls-2" d="M438.6,114.07c-.08-.45,.37-.61,.54-.92,.51-.96,.46-1.86-.03-2.78-.06-.12-.16-.24-.13-.39,.31,.07,.35,.37,.46,.58,.59,1.18,.18,2.82-.84,3.51"/>
            <path class="cls-1" d="M494.09,89.51c0-.42,0-.84,0-1.27,0-.11,0-.23,.16-.23,.16,0,.16,.12,.16,.23,0,.86,0,1.72,0,2.58,0,.14-.05,.2-.19,.2-.13,0-.14-.1-.14-.19,0-.44,0-.88,0-1.31"/>
            <path class="cls-15" d="M440.86,114.53c.24,.37,.56,.57,1.02,.47-.11,.28-.29,.52-.48,.75-.32-.2-.63-.41-1.03-.4,.16-.27,.32-.54,.48-.81"/>
            <path class="cls-11" d="M464.45,110.85c-.36,.15-.67,.55-1.11,.19,0-.25,0-.51-.01-.76,.31,.33,.71,.29,1.05-.1,.09,.22,.09,.44,.07,.67"/>
            <path class="cls-2" d="M435.93,114.62c.28-.21,.58-.02,.86-.04,.55-.05,1.06-.21,1.54-.48,.07-.04,.18-.03,.27-.04-.72,.71-1.94,.97-2.67,.56"/>
            <path class="cls-11" d="M457.11,106.17c-.2,.3-.75,.3-.69,.82-.2-.03-.34-.16-.48-.3,.21-.29,.42-.59,.63-.88,.03,0,.05,.03,.06,.06,.03,.02,.05,.04,.08,.06,.13,.09,.32,.07,.4,.24"/>
            <path class="cls-1" d="M470.28,128.97c-.22,.03-.34-.09-.35-.32-.01-.22,.09-.36,.33-.37,.25,0,.41,.13,.41,.35,0,.19-.14,.35-.39,.34"/>
            <path class="cls-2" d="M434.51,113.87c.15-.02,.33-.05,.43,.1,.22,.33,.69,.31,.9,.64-.58,0-.97-.33-1.32-.74"/>
            <path class="cls-2" d="M438.99,109.98c-.11-.03-.12-.1-.11-.2,.11,.03,.09,.12,.11,.2"/>
            <path class="cls-2" d="M438.89,109.8l-.11-.1s.07,.07,.11,.1"/>
            <path class="cls-2" d="M438.79,109.7s-.07-.07-.11-.1c.04,.03,.07,.07,.11,.1"/>
            <path class="cls-2" d="M438.7,109.61s-.07-.07-.11-.1c.04,.03,.07,.07,.11,.1"/>
            <path class="cls-2" d="M438.6,109.52c-.06,0-.1-.04-.1-.11,.06,0,.09,.05,.1,.11"/>
            <path class="cls-11" d="M457.32,106.29c-.06,0-.11-.02-.13-.08,.06,0,.11,.02,.13,.08"/>
            <path class="cls-17" d="M456.71,105.92s-.05-.04-.08-.06c.03,.02,.05,.04,.08,.06"/>
            <path class="cls-10" d="M460.09,120.09c-.61,.02-1.22,.04-1.84,.07-.17,.04-.3-.07-.46-.09-.04-.02-.09-.04-.13-.06-.02-.02-.05-.03-.08-.02-.83-.43-1.55-1.01-2.28-1.59-.39-.31-.49-.61-.19-1.03,.16-.1,.28-.23,.32-.43v-.02c.22-.1,.36-.27,.46-.46,0,0,.01,0,.01,0,.23-.08,.36-.29,.52-.46,.38-.38,.76-.74,1.23-1.01,.99-.57,1.87-.43,2.67,.4,.42,.43,.62,.97,.79,1.52,.02,.09,.03,.18,.05,.27,0,.25,0,.5,0,.75,0,.09-.02,.18-.03,.26-.07,.06-.08,.13-.06,.21-.01,.06-.03,.12-.04,.19-.07,.05-.08,.12-.07,.19-.02,.02-.02,.05-.02,.07-.02,.04-.04,.08-.06,.11,0,.03-.02,.06-.03,.09l-.28,.48h0s-.05,.06-.08,.09c-.14,.16-.28,.31-.42,.47"/>
            <path class="cls-16" d="M455.11,117.36c-.3,.41-.19,.72,.19,1.03,.73,.58,1.45,1.16,2.28,1.59-.17,.03-.34,.02-.51-.03-.47-.13-.95-.08-1.43-.06-.83,.03-1.65-.1-2.49-.08-1.5,.03-3,.01-4.49,.28-.06,.01-.12-.01-.19-.02,.13-.09,.26-.18,.39-.27,.03-.03,.06-.06,.1-.09,.03-.03,.06-.06,.09-.09,.79-.13,1.25-.68,1.21-1.45,0-.02,0-.04,.02-.06,.01,0,.04-.02,.04-.02,0-.02-.01-.05-.02-.07,0-.07,0-.13,.01-.2,.16-.26,.01-.45-.13-.65,.02-.03,.05-.07,.07-.1,0,0-.02-.02-.03-.02l-.04,.12s-.06,0-.1,0h0s-.02-.1-.03-.15c-.05-.04-.1-.08-.15-.12-.03-.04-.07-.07-.1-.11,0,0,0,0,0,0,.05-.22-.09-.35-.23-.48-.08-.08-.17-.16-.07-.28,.07-.09,.17-.08,.25-.02,.39,.24,.86,.25,1.28,.4,.49,.18,1.22-.22,1.17-.67-.03-.27,.07-.4,.29-.45,.28-.06,.28,.17,.36,.37,.14,.33,.22,.79,.76,.74,.03,0,.05,0,.08,.02,.19,.13,.38,.13,.56,0,.02-.02,.04-.03,.07-.02,.38,.12,.65-.15,.96-.28,.6-.25,.59-.25,.62,.33,0,0-.01,0-.01,0-.32,0-.48,.14-.45,.47,0,0-.01,.02-.01,.01-.4-.07-.31,.21-.32,.43"/>
            <path class="cls-10" d="M449.06,119.62s-.06,.06-.09,.09c-.03,.03-.06,.06-.1,.09-.13,.09-.26,.18-.39,.27-.61,.16-1.23,.3-1.87,.11-.07-.09-.15-.19-.22-.28-.02-.03-.04-.06-.06-.09l-.11-.19-.16-.49c-.01-.12-.03-.24-.04-.36,.02-.08,0-.15-.06-.21,0-.15-.02-.3-.03-.45v-.19c.01-.09,.02-.18,.03-.28,.1-.12,.07-.25,.05-.39,0-.06,.02-.12,.03-.18,.12-.32,.22-.64,.38-.94,.49-.96,1.13-1.11,2.02-.54,.52,.33,.91,.81,1.37,1.21h0s.07,.07,.1,.1c.05,.04,.1,.08,.15,.12-.07,.07-.04,.12,.03,.15h0c.08,.22,.15,.43,.23,.65,0,.07,0,.13-.01,.2,0,.03-.01,.06-.02,.09-.02,.01-.03,.03-.02,.06-.35,.53-.78,.99-1.21,1.45"/>
            <path class="cls-16" d="M446.39,119.9c.07,.09,.15,.19,.22,.28-.86-.09-1.71,.08-2.57,.12-.4,.02-.54-.17-.6-.5-.15-.86-.12-1.73,.03-2.59,.06-.37,.16-.73,.11-1.12,0-.02,0-.03,0-.05,.03-.05,.06-.1,.08-.15,.35-1.3,1.01-2.44,1.87-3.47,.95-1.15,2.13-2,3.43-2.67,.32-.17,.55-.54,.99-.45,.54-.06,1.04-.29,1.58-.37,.41-.05,.81-.08,1.22-.08-.38,.24-.78,.43-1.24,.47-.26,.02-.53,0-.79,.06-1.26,.3-2.35,.93-3.36,1.72-.24,.19-.32,.5-.58,.71-.71,.59-1.42,1.16-1.92,1.98-.3,.5-.27,1.08-.58,1.56-.09,.13,0,.26,.16,.34,.3,.16,1.1,.09,1.37-.14,.1-.08,.19-.26,.35-.1,.14,.13,0,.24-.03,.37-.12,.4-.28,.81-.07,1.24,0,.06-.02,.12-.03,.18-.26,.1-.21,.24-.05,.39-.01,.09-.02,.18-.03,.28-.09,.06-.09,.12,0,.19,0,.15,.02,.3,.03,.45-.01,.08,0,.15,.06,.21,.01,.12,.03,.24,.04,.36-.12,.22-.19,.43,.16,.49,.04,.06,.07,.13,.11,.19,.02,.03,.04,.06,.06,.09"/>
            <path class="cls-16" d="M457.66,120.01s.09,.04,.13,.06c-.04-.02-.09-.04-.13-.06"/>
            <path class="cls-23" d="M446.05,117.07c-.21-.43-.05-.84,.07-1.24,.04-.13,.17-.24,.03-.37-.16-.15-.25,.02-.35,.1-.28,.22-1.08,.3-1.37,.14-.15-.08-.24-.21-.16-.34,.31-.47,.28-1.06,.58-1.56,.5-.82,1.21-1.4,1.92-1.98,.26-.21,.34-.52,.58-.71,1.01-.79,2.1-1.42,3.36-1.72,.27-.06,.53-.04,.79-.06,.46-.03,.86-.23,1.24-.47,.06,0,.12,0,.18,0,.29,.14,.57,.15,.85,0,.16,0,.31,0,.47,0,.15,.31,.36,.19,.57,.09,.13,0,.25,.01,.38,.02,.37,.46,.89,.47,1.41,.45,.19,.06,.41,.04,.57,.2,.02,.11,.04,.23,.19,.09,.16,.06,.32,.13,.48,.19,.12,.31,.28,.53,.66,.37,1.13,.63,1.99,1.55,2.83,2.52,.62,.71,.97,1.58,1.4,2.39,.03,.05,.01,.12,.02,.18-.29,.43-.71,.54-1.18,.43-.33-.08-.32,.07-.34,.3-.02,.27,.12,.56-.12,.79-.17-.56-.37-1.09-.79-1.52-.8-.82-1.68-.96-2.67-.4-.47,.27-.85,.63-1.23,1.01-.16,.16-.29,.37-.52,.46-.02-.58-.02-.57-.62-.33-.31,.13-.58,.39-.96,.28,.98-.65,2.03-1.18,2.98-1.88,1.11-.81,.92-1.93,.26-2.64-.6-.65-1.38-.99-2.26-1.03-1.13-.05-1.83,.51-2.11,1.6-.25,.95-.12,1.9-.03,2.84,.04,.4,.11,.81,.45,1.1-.54,.06-.62-.4-.76-.74-.08-.2-.08-.43-.36-.37-.22,.04-.32,.18-.29,.45,.05,.44-.68,.85-1.17,.67-.42-.16-.88-.16-1.28-.4-.09-.05-.18-.06-.26,.02-.1,.12,0,.2,.07,.28,.14,.13,.28,.26,.23,.48-.46-.4-.85-.87-1.37-1.21-.89-.57-1.54-.42-2.02,.54-.15,.3-.25,.63-.38,.94m6.41-4.1c0-.35-.03-.58-.06-.81-.1-.87-.8-1.08-1.43-1.01-1.13,.14-1.98,.74-2.59,1.69-.42,.66-.36,1.26,.15,1.86,.68,.8,1.58,1.22,2.56,1.5,.37,.11,.73,.02,.85-.44,.25-.95,.5-1.91,.52-2.79"/>
            <path class="cls-16" d="M461.12,116.9c.25-.23,.1-.53,.12-.79,.02-.23,.01-.38,.34-.3,.46,.11,.89,0,1.18-.43,.41,.84,.56,1.76,.65,2.67,.07,.66,.01,1.33,.01,1.99-1.11,.08-2.22,.05-3.33,.05,.14-.16,.28-.31,.42-.47,.03-.03,.05-.06,.08-.09h0c.38,0,.26-.28,.28-.48,0-.03,.02-.06,.03-.09,.02-.04,.04-.08,.06-.11,0-.03,0-.05,.02-.07,.13-.03,.23-.07,.07-.19,.01-.06,.03-.12,.04-.19,.07-.06,.08-.13,.06-.21,0-.09,.02-.18,.03-.26,.12-.25,.13-.5,0-.75-.02-.09-.03-.18-.05-.27"/>
            <path class="cls-1" d="M452.13,108.08c.69-.17,1.4-.11,2.09-.06,1.08,.08,2.14,.32,3.15,.76-.27,.12-.51-.05-.75-.12-1.47-.4-2.97-.57-4.48-.59"/>
            <path class="cls-1" d="M449.88,108.55c.71-.26,1.45-.44,2.21-.46-.06,.06-.12,.12-.19,.18-.69,0-1.33,.31-2.03,.28"/>
            <path class="cls-16" d="M456.62,109.43c-.52,.01-1.04,.01-1.41-.45,.48,.11,.98,.18,1.41,.45"/>
            <path class="cls-16" d="M453.79,108.86c-.28,.15-.57,.15-.85,0,.28-.14,.57-.14,.85,0"/>
            <path class="cls-16" d="M458.51,110.28c-.38,.16-.54-.07-.66-.37,.25,.07,.46,.22,.66,.37"/>
            <path class="cls-16" d="M454.83,108.95c-.21,.1-.42,.23-.57-.09,.19,.01,.4-.07,.57,.09"/>
            <path class="cls-16" d="M457.37,109.71c-.14,.14-.16,.03-.19-.09,.08,0,.15,.01,.19,.09"/>
            <path class="cls-24" d="M457.47,123.97c.16,0,.31,0,.47,0,.19,.17,.34,.11,.47-.09,.06,0,.13,0,.19,0,.27,.1,.54,.24,.76-.09,.38,0,.75,0,1.13-.01,.09,.12,.19,.12,.28,0,.31-.03,.63-.07,.94-.1,.17,.05,.37,.25,.47-.08,.25,0,.5,0,.76-.01,.15,.15,.24,.11,.29-.08,.19,0,.38,0,.57,0,.18,.13,.36,.19,.47-.08,.2-.05,.38,.08,.59,.06,1.15-.1,2.31-.18,3.46-.27,.13,.09,.08-.04,.1-.08,.44,0,.88-.01,1.32-.02,.14,.15,.24,.12,.29-.08,.75-.05,1.52,.06,2.26-.11,.02,.05,.04,.13,.07,.14,.1,.02,.1-.07,.11-.14h.47c.16,.13,.3,.16,.38-.08h.75c.16,.29,.32,.29,.47-.01,.16,0,.31,0,.47,0,.19,.13,.37,.2,.47-.09,.25,0,.5,0,.76,0,.12,.43,.47,.11,.66,.13,.35,.05,.81,.12,1.13-.23,.85-.15,1.7-.08,2.55-.09,.27,.11,.54,.25,.76-.09,1.13,.03,2.26-.16,3.4-.1,.3,.1,.6,.25,.85-.08,.22,0,.44,0,.66,0,.13,.13,.25,.13,.38,0,.44,0,.88,0,1.32,0,.2,.18,.35,.11,.47-.09,.69,0,1.38,0,2.08,0,.91,.18,1.84,.06,2.75,.18,.17,.02,.17-.14,.18-.27h1.42c0,.16,.11,.21,.25,.18,.12-.03,.05-.12,.03-.18,.94-.13,1.89-.09,2.83-.09,.19,.22,.45,.23,.69,.16,.23-.07,.48-.1,.7-.05,.5,.12,.99-.06,1.49-.01,.14,.01,.3,.03,.33-.17,.44,0,.88,0,1.32,0,.44,.36,.95,.12,1.42,.14,.03,0,.06-.09,.09-.14,2.08,0,4.15,0,6.23,0,.01,.06,.02,.13,.1,.13,.08,0,.09-.07,.1-.13,.12,0,.25,0,.37,0,.13,.25,.25,.25,.38,0,.16,0,.31,0,.47,0,.27,.28,.64,.32,.99,.36,1.12,.14,2.22-.24,3.33-.2,.04,0,.08-.05,.11-.08,1.26,0,2.52-.03,3.78,.09,.24,.26,.42,.26,.66,0h1.98c.08,.27,.22,.22,.38,.09,.25,0,.49-.13,.75-.08,.16,.28,.32,.28,.48,0,1.73,.03,3.46,.21,5.2,.18,.47,0,.94,0,1.41,0,.29,.34,.62,.19,.95,.08,1.64,.04,3.27,.07,4.91,.11,.15,.3,.36,.19,.57,.08,1.04-.01,2.08,0,3.11,.1,.01,.13,.1,.16,.22,.19,.59,.14,1.18,.08,1.77,.08,.58,.02,1.03,.29,1.38,.73,.44,.56,.22,1.21-.47,1.47-.26,.1-.51,.24-.77,.35-.46,.19-.92,.07-1.38,0-.28-.32-.97-.4-1.51-.18-.06,0-.12,0-.18,0-.16-.15-.32-.15-.48,0-.22,0-.44,0-.66,0-.03-.05-.06-.05-.09,0-.06,0-.13,0-.19,0-.2-.35-.23-.36-.47-.08-.06,0-.13,0-.19,0-.13-.13-.25-.13-.38,0-.69-.03-1.38-.07-2.08-.1-.25-.33-.55-.19-.85-.09-1.26-.03-2.51-.22-3.77-.2-.18-.34-.26-.35-.47-.08-.47,0-.94,0-1.41-.01-.02-.12-.06-.22-.19-.08-.38,0-.75,0-1.13,0-.04-.2-.13-.24-.29-.09-.19,0-.38,0-.57,0-.06-.09-.13-.1-.19,0-.31,0-.63,0-.94-.01-.22-.32-.49-.19-.76-.08-.28,0-.56,0-.85-.01-.19-.3-.42-.21-.66-.08-.6,0-1.19,0-1.79-.01-.08-.25-.22-.21-.38-.08l-1.42-.02-.19-.08c-.66,0-1.32-.01-1.98-.02-.22-.32-.49-.19-.76-.08-.54-.03-1.08,.06-1.61-.09-.04-.26-.25-.18-.41-.19-.53,0-1.07,.05-1.59-.03-.43-.07-.82-.09-1.21,.12-.19,0-.37,0-.56,0-.11-.29-.29-.22-.47-.09h-1.32c-.16-.3-.31-.3-.47,0-.25,0-.5,0-.75,0-.25-.33-.55-.19-.85-.08-1.73,.04-3.46-.09-5.19-.19-.08,0-.15,.01-.19,.08-.6,0-1.2,0-1.79,0-.03-.05-.06-.14-.1-.14-.57-.02-1.14-.13-1.7,.06-2.01,0-4.03,0-6.04-.01-.02-.12-.06-.22-.19-.08-1.48,0-2.96,0-4.44,0-.14-.15-.24-.12-.29,.08-2.17,0-4.34,0-6.51,.01-.22-.15-.44-.15-.66,0-.06,0-.13,0-.19,0-.19-.13-.36-.2-.47,.08-.44,0-.88,0-1.32,0-.01-.07-.03-.15-.12-.17-.12-.01-.15,.07-.16,.17-.25,0-.5,0-.75,0-.02-.13-.09-.19-.22-.19-.62,0-1.24,0-1.86,0-.17,0-.34,.06-.38,.27-.69,0-1.38,0-2.07,0-.05-.03-.1-.09-.16-.09-.56-.02-1.12,0-1.68-.1-.21-.04-.45-.02-.52,.27h-.28c-.01-.1-.05-.17-.17-.18-.13,0-.2,.05-.21,.18-.25,0-.5,0-.75,0-.16-.13-.31-.17-.38,.09-.19,.06-.43-.11-.57,.14l-.28,.03c-.15-.12-.33-.06-.5-.07-1.63-.06-3.25,.13-4.88,.1-.21-.11-.42-.23-.57,.08-1.2,.04-2.4,.07-3.6,.11-.18,0-.37,.05-.55,.08-.02-.21,.31-.15,.28-.37"/>
            <path class="cls-11" d="M472.29,123.68c.69,0,1.38,0,2.07,0,.81-.14,1.64-.07,2.46-.09,.25,0,.5,0,.75,0,.1,0,.19,0,.29,0,.44,0,.88,0,1.32,0,.16,0,.34,.07,.47-.08,.06,0,.13,0,.19,0,.22,.14,.44,.14,.66,0,2.17,0,4.34,0,6.51-.01,.11,0,.21,.03,.29-.08,1.48,0,2.96,0,4.44,0,.04,.08,.11,.09,.19,.08,2.01,0,4.03,0,6.04,.01,.59,.19,1.2,.05,1.8,.08,.6,0,1.2,0,1.79,0,.08,0,.15-.01,.19-.08,1.73,.1,3.45,.23,5.19,.19,.27,.17,.57,.06,.85,.08,.25,0,.5,0,.75,0,.16,0,.32,0,.47,0,.44,0,.88,0,1.32,0,.14,.15,.31,.07,.47,.09,.19,0,.37,0,.56,0,0,.05,0,.09,.01,.14l-6.45-.19c-.27,0-.53-.02-.8-.02-3.14-.05-6.29-.06-9.43-.14-5.39-.14-10.78,.04-16.18,.06-2.51,.01-5.03,.09-7.54,.2-1.14,.05-2.29,.06-3.43,.1,.14-.24,.38-.08,.57-.14,.13,0,.28,.05,.38-.09,.25,0,.5,0,.75,0,.13,0,.25,0,.38,0h.28c.3,0,.59,.02,.89,0,.49-.04,.99,.11,1.47-.09"/>
            <path class="cls-11" d="M516.95,124.14c.66,0,1.32,.01,1.98,.02,.04,.07,.11,.09,.19,.08,.47,0,.95,.01,1.42,.02,.11,.13,.25,.08,.38,.08,.6,0,1.19,0,1.79,.01,.2,.17,.44,.06,.66,.08,.28,0,.56,0,.85,.01v.15c-1.26-.05-2.53-.11-3.8-.16-1.21-.05-2.41-.11-3.62-.17-.11,0-.22-.02-.32-.04,.14-.13,.32-.04,.47-.08"/>
            <path class="cls-21" d="M511.39,124.01s0-.09-.01-.14c.39-.21,.78-.19,1.21-.12,.52,.08,1.06,.02,1.59,.03,.16,0,.37-.07,.41,.19-1.03,.01-2.05,.02-3.08,.03-.04,0-.08,0-.13,.01"/>
            <path class="cls-11" d="M511.52,124c1.03-.01,2.05-.02,3.08-.03,.53,.16,1.07,.07,1.61,.09,0,.04,0,.09,0,.13-1.46-.04-2.92-.08-4.37-.13-.11,0-.22,.01-.31-.07"/>
            <path class="cls-11" d="M526.11,124.53c.19,0,.38,0,.57,0,0,.06,0,.12,0,.18-.76,.05-1.51-.09-2.27-.11,.17-.14,.38-.04,.57-.08,.31,0,.63,0,.94,.01,.06,0,.13,0,.19,0"/>
            <path class="cls-21" d="M516.2,124.19s0-.09,0-.13c.27-.11,.54-.24,.76,.08-.15,.04-.33-.04-.47,.08-.09,0-.19-.02-.28-.03"/>
            <path class="cls-21" d="M524.98,124.51c-.19,.04-.39-.06-.57,.08-.06,0-.12,0-.18-.01v-.15c.26-.11,.53-.24,.75,.08"/>
            <path class="cls-21" d="M526.68,124.71c0-.06,0-.12,0-.18,.15-.15,.24-.11,.29,.09-.03,.03-.06,.07-.09,.1-.06,0-.13,0-.19-.01"/>
            <path class="cls-11" d="M497.97,121.98c-.95,0-1.89-.04-2.83,.09-.09,0-.19,0-.28,0-.47,0-.94,0-1.42,0-.73,0-1.47-.01-2.2,0-.24,0-.5-.09-.72,.09h-2.08c-.16,.02-.34-.05-.47,.09-.44,0-.88,0-1.32,0h-.38c-.22,0-.44,0-.66,0-.28,.02-.58-.09-.85,.08-1.14-.06-2.26,.13-3.4,.1-.25,.03-.52-.09-.76,.09-.85,.01-1.7-.05-2.55,.09-.6,.03-1.2-.08-1.79,.09-.25,0-.5,0-.76,0-.16,.02-.34-.06-.47,.09-.16,0-.31,0-.47,0-.16,0-.32,0-.47,0-.25,0-.5,0-.75,0-.13,0-.28-.05-.38,.08-.16,0-.31,0-.47,0-.06,0-.13,0-.19,0-.75,.16-1.51,.06-2.26,.1-.11-.01-.21-.03-.29,.08-.44,0-.88,.01-1.32,.02-.03,.03-.06,.05-.1,.08-1.15,.09-2.31,.16-3.46,.27-.21,.02-.39-.11-.59-.06-.16,0-.34-.07-.47,.08-.19,0-.38,0-.57,0-.1,0-.21-.02-.29,.08-.25,0-.5,0-.76,.01,0-.03,0-.07,0-.1,.09-.03,.17-.08,.26-.09,1.63-.11,3.26-.21,4.89-.31,2.22-.14,4.45-.29,6.67-.42,1.51-.09,3.01-.16,4.52-.23,4.38-.22,8.76-.41,13.14-.48,1.99-.03,3.99-.1,5.98-.16,.11,0,.22,.02,.33,.03,0,.05,0,.1,0,.15"/>
            <path class="cls-11" d="M530.74,122.27c-.47,0-.94-.02-1.41,0-1.74,.03-3.46-.15-5.2-.18-.16,0-.32,0-.48,0-.26-.06-.5,.08-.75,.08-.1-.13-.25-.08-.38-.08h-1.98c-.22,0-.44,0-.66,0-1.26-.12-2.52-.1-3.78-.09,0-.05,0-.1,0-.15,1.48-.07,2.95,.05,4.43,.06,3,.03,6,.09,9,.2,2.48,.09,4.96,.1,7.44,.29-.11,.12-.25,.05-.38,.08-1.64-.04-3.27-.07-4.91-.11-.3-.18-.63-.06-.95-.08"/>
            <path class="cls-21" d="M516.1,121.83c0,.05,0,.1,0,.15-.04,.03-.08,.08-.11,.08-1.12-.04-2.21,.35-3.33,.2-.35-.05-.72-.08-.99-.36,.57-.06,1.14,.09,1.7-.08,.41,0,.82,0,1.23,0,.03,.05,.06,.05,.1,0,.47,0,.94,0,1.41,0"/>
            <path class="cls-11" d="M513.36,121.81c-.56,.17-1.14,.02-1.7,.08-.16,0-.31,0-.47,0-.13,0-.25,0-.38,0-.12,0-.25,0-.37,0-.06,0-.13,0-.19,0-2.08,0-4.15,0-6.23,0-.5,0-1.01,0-1.51,0-.44,0-.88,0-1.32,0-.1-.02-.21,0-.28-.09,1.87-.01,3.73-.04,5.6-.04,2.13,0,4.27,0,6.4,.01,.16,0,.31,.02,.47,.03"/>
            <path class="cls-21" d="M500.9,121.81c.07,.1,.19,.07,.28,.09-.04,.2-.19,.18-.33,.17-.5-.05-.99,.14-1.49,.01-.22-.05-.46-.02-.7,.05-.24,.08-.5,.06-.69-.16,0-.05,0-.1,0-.15,.97,0,1.95-.01,2.92-.02"/>
            <path class="cls-21" d="M536.59,122.47c.13-.03,.27,.03,.38-.08,.06,0,.12,0,.18,0,0,.05,0,.11,0,.16-.21,.11-.42,.22-.57-.08"/>
            <path class="cls-21" d="M462.19,123.49s0,.07,0,.1c-.11,.33-.3,.13-.47,.08,.06-.06,.13-.12,.19-.17,.09,0,.19,0,.28,0"/>
            <path class="cls-11" d="M514.69,121.82s-.07,.04-.1,0c.03,0,.06,0,.1,0"/>
            <path class="cls-1" d="M469.83,110c-.01,.41,.07,.8,.13,1.2-.06,.03-.12,.07-.18,.1,.01-.41-.2-.75-.33-1.11,.17,.03,.28-.07,.38-.19"/>
            <path class="cls-9" d="M443.6,113.88l.82-1.25c.21,0,.27-.43,.48-.23,.15,.14-.12,.32-.19,.48-.46,.97-1.07,1.87-1.34,2.93-.2,.75-.33,1.51-.39,2.29-.06,.74-.01,1.47,.1,2.19,.03,.17-.06,.23-.19,.27-.17,.06-.34,.11-.48-.05-.05-.06-.09-.13-.11-.2-.29-1.01-1.05-1.54-1.95-1.94-.1-.04-.2-.09-.3-.15-.49-.26-.9-.24-1.38,.11-2.06,1.48-4.39,2.02-6.9,1.84-.63-.04-1.27-.17-1.78-.64-.44-.4-.48-1.05-.02-1.44,.56-.46,1.18-.79,1.89-.97,1.26-.32,2.53-.57,3.84-.53,.89,.03,1.77,.15,2.64,.34,.48,.1,.93,.11,1.27-.36,.12-.16,.28-.3,.43-.44,.16-.15,.33-.15,.5,0,.19,.16,.08,.31-.01,.46-.1,.16-.26,.26-.33,.45-.13,.35,0,.54,.32,.62,.41,.1,.74,.32,1.03,.6,.21,.2,.46,.41,.71,.33,.26-.08,.28-.42,.29-.69,0-.2,0-.41,0-.61,0-.1,0-.2,0-.3,.22-.67,.46-1.34,.67-2.02,.11-.37,.43-.66,.39-1.09"/>
            <path class="cls-9" d="M445.94,110.84c.15,.05,.38-.06,.44,.16,.05,.18-.16,.23-.27,.33-.24,.24-.46,.5-.69,.74-.09,.1-.2,.25-.35,.13-.14-.11,0-.22,.07-.32,.06-.09,.05-.17,.01-.26,0,0,0,0,0,0,.4,0,.57-.24,.6-.61,0,0,0,0,0,0,.15,.02,.21-.04,.19-.19h0Z"/>
            <path class="cls-20" d="M443.67,115.89c-.03,.05-.05,.1-.08,.15,.03-.05,.06-.1,.08-.15"/>
            <path class="cls-8" d="M446.24,100.56c-.05-.15-.11-.31-.16-.46,.29,.11,.54,.11,.86,0,.61-.19,1.29,.36,1.27,.95-.01,.33-.18,.55-.49,.68-.12,.05-.32,.03-.33,.21-.01,.2,.2,.23,.33,.28,.4,.16,.53,.46,.49,.86-.02,.18-.1,.29-.3,.28,.24-.59,.17-.75-.42-1.05-.15-.07-.33-.1-.43-.25-.04-.23,.16-.28,.29-.38,.26-.14,.64-.12,.66-.56,.02-.36-.2-.59-.46-.77-.35-.24-.69-.14-1.04,.28-.09-.03-.19-.06-.28-.09"/>
            <path class="cls-8" d="M445.03,101.28c.09,.06,.19,.12,.28,.18,.03,.1,.05,.21,.08,.31-.85,.28-1.01,.8-.45,1.48,.06,.07,.12,.14,.19,.21-.01,.01-.03,.03-.04,.04-.51-.06-.56-.48-.62-.85-.06-.32-.08-.67,.3-.83,.26-.11,.25-.33,.27-.54"/>
            <path class="cls-8" d="M446.32,103.38c.01,.09,.02,.18,.03,.27-.17-.13-.3-.17-.53-.05-.22,.12-.54,.21-.75-.1,.01-.01,.03-.03,.04-.04,.4,.13,.69,0,.89-.36,.16,.03,.2,.19,.31,.28"/>
            <path class="cls-8" d="M446.04,100.07c-.36-.13-.64,.07-.93,.21,.18-.44,.61-.54,.93-.21"/>
            <path class="cls-8" d="M445.03,100.38c-.09,.2-.24,.39-.19,.64-.18,.01-.23-.11-.19-.24,.05-.19,.09-.42,.38-.39"/>
            <path class="cls-8" d="M447.33,103.71l.49-.26c-.07,.26-.18,.45-.49,.26"/>
            <path class="cls-8" d="M444.83,101.01c.07,.09,.14,.19,.2,.28-.24,.03-.22-.12-.2-.28"/>
            <path class="cls-8" d="M447.82,103.47s.07-.07,.11-.1c0,.07-.04,.1-.11,.1"/>
            <path class="cls-8" d="M445.12,100.28s-.07,.07-.1,.11c0-.07,.03-.1,.1-.11"/>
            <path class="cls-2" d="M436.58,110.01c.25,.13,.48,.15,.76,.02,.16-.08,.47-.19,.59,.15l-.03,.03c-.72-.1-1.01,.19-1,1.01v.19c-.1,.36,.07,.48,.41,.48,.27,0,.53-.05,.78-.12l.03,.03c-.03,.18-.26,.25-.22,.46-.19-.06-.37-.14-.57-.17-.15-.03-.36-.08-.41,.12-.09,.37-.22,.76-.1,1.15,.06,.22,.23,.33,.47,.3,.52-.07,.89-.58,.8-1.1,.33,.05,.23,.33,.19,.47-.1,.38-.4,.64-.77,.74-.32,.08-.7,.08-.89-.28-.12-.24-.27-.02-.39-.08-.01-.01-.02-.02-.03-.04,.06-.12,.21-.19,.2-.35h0s.07-.04,.06-.09c.01-.04,.02-.07,.03-.11,.08-.04,.08-.1,.08-.18,.03-.02,.03-.04,.03-.07,.02-.04,.04-.08,.06-.12,.01-.06,.03-.12,.04-.18,.14-.21,.01-.38-.17-.36-.52,.05-1.09-.04-1.53,.36-.07-.23,.08-.31,.25-.37,.13-.04,.32-.05,.34-.2,.03-.21-.2-.14-.31-.21-.29-.2-.59-.39-.58-.79,.01-.53,.44-.74,.83-.92,.31-.14,.67-.15,.98,.07,.04,.03,.03,.11,.04,.17-.56-.21-1.11-.1-1.46,.29-.25,.29-.33,.57,.05,.82h0s.07,.05,.1,.08h.02c.16,.14,.34,.23,.55,.28,.02,.03,.04,.04,.07,.03,.2,.14,.42,.35,.65,.19,.22-.15,.2-.43,.16-.69-.05-.33,0-.68-.15-1"/>
            <path class="cls-2" d="M438.11,110.37c.5,.28,.61,1.03,.19,1.33l-.02-.02c.17-.32,.15-.63-.06-.94h0c-.05-.12-.09-.23-.14-.34l.02-.02Z"/>
            <path class="cls-2" d="M436.24,113.4c-.3,.36-.6,.33-.97-.09,.01-.01,.03-.03,.04-.04,.29,.14,.58,.24,.9,.1,.01,.01,.02,.02,.03,.04"/>
            <path class="cls-2" d="M435.02,112.27c0,.19-.02,.38-.02,.56-.28-.2-.33-.39,.02-.56"/>
            <path class="cls-2" d="M435.01,112.89c.06,.04,.11,.09,.17,.13h0c.01,.05,.03,.1,.04,.15-.02,.01-.03,.03-.05,.04-.19-.04-.18-.18-.16-.33"/>
            <path class="cls-2" d="M438.11,112.55c-.1-.03-.09-.12-.1-.19,.1,.03,.11,.11,.1,.19"/>
            <path class="cls-2" d="M438.3,111.69c-.03,.09-.1,.1-.18,.11,0,0-.03-.03-.03-.03,.06-.03,.12-.06,.18-.09l.02,.02Z"/>
            <path class="cls-2" d="M435.27,113.31s-.06-.06-.1-.09c.01-.01,.03-.03,.05-.04,.03,.03,.06,.06,.09,.09-.01,.01-.03,.03-.04,.04"/>
            <path class="cls-2" d="M438.02,110.27s.06,.06,.09,.1c0,0-.02,.02-.02,.02-.03-.03-.06-.06-.09-.1l.02-.02Z"/>
            <path class="cls-2" d="M437.93,110.18s.06,.06,.09,.09l-.02,.02s-.07-.06-.1-.08l.03-.03Z"/>
            <path class="cls-21" d="M457.47,123.97c.03,.21-.3,.15-.28,.37-1.5-.02-2.99,.23-4.49,.2-.19,0-.44,.07-.42-.27,.06,0,.12,0,.19-.01,.49,.26,.99,.04,1.46-.03,.56-.08,1.12-.04,1.68-.14,.61-.1,1.24-.08,1.87-.11"/>
            <path class="cls-21" d="M461.34,124.14c.15-.31,.36-.19,.57-.08-.17,.16-.38,.07-.57,.08"/>
            <path class="cls-21" d="M542.27,122.92c-.59,0-1.19,.06-1.77-.08-.12-.03-.21-.06-.22-.19,.59,.01,1.18-.05,1.76,.09,.12,.03,.21,.06,.23,.19"/>
            <path class="cls-21" d="M539.52,125.29c.55-.22,1.23-.14,1.51,.18-.5-.07-1.04,.16-1.51-.18"/>
            <path class="cls-21" d="M533.95,125c.3-.1,.6-.25,.85,.09-.28-.03-.58,.09-.85-.09"/>
            <path class="cls-21" d="M537.44,125.19c.24-.27,.27-.27,.47,.08-.16-.01-.34,.07-.47-.08"/>
            <path class="cls-21" d="M529.7,124.72c.21-.27,.3-.26,.47,.08-.16-.03-.32-.06-.47-.08"/>
            <path class="cls-21" d="M538.86,125.29c.16-.14,.32-.15,.48,0-.16,.13-.32,.13-.48,0"/>
            <path class="cls-21" d="M528.09,124.62c.14-.14,.17-.04,.19,.08-.08,0-.15,0-.19-.08"/>
            <path class="cls-21" d="M536.87,125.19c.13-.13,.25-.13,.38,0-.13,0-.25,0-.38,0"/>
            <path class="cls-21" d="M538.1,125.28c.03-.05,.06-.05,.09,0h-.05s-.05,0-.05,0Z"/>
            <path class="cls-21" d="M459.36,123.78c-.22,.33-.49,.19-.76,.09,.24-.14,.5-.09,.76-.09"/>
            <path class="cls-21" d="M458.41,123.88c-.13,.19-.28,.26-.47,.09,.13-.15,.31-.07,.47-.09"/>
            <path class="cls-21" d="M460.77,123.77c-.1,.12-.19,.12-.28,0,.1-.11,.19-.12,.28,0"/>
            <path class="cls-23" d="M455.44,116.92c-.03-.33,.14-.47,.45-.47-.11,.2-.25,.36-.45,.47"/>
            <path class="cls-23" d="M455.11,117.36c.01-.21-.08-.5,.32-.43-.04,.2-.16,.32-.32,.43"/>
            <path class="cls-23" d="M460.87,119.05c-.02,.2,.11,.49-.28,.48l.28-.48Z"/>
            <path class="cls-23" d="M461.17,117.17c.13,.25,.13,.5,0,.75,0-.25,0-.5,0-.75"/>
            <path class="cls-23" d="M461.04,118.58c.16,.13,.07,.17-.07,.19,0-.08,0-.15,.07-.19"/>
            <path class="cls-23" d="M461.14,118.18c.01,.08,0,.15-.06,.21-.02-.08,0-.15,.06-.21"/>
            <path class="cls-23" d="M460.59,119.53s-.05,.06-.08,.09c.03-.03,.05-.06,.08-.09"/>
            <path class="cls-23" d="M460.95,118.84s-.04,.08-.06,.11c.02-.04,.04-.08,.06-.11"/>
            <path class="cls-10" d="M453.62,116.4c-.33-.29-.41-.7-.45-1.1-.09-.95-.22-1.9,.03-2.84,.28-1.09,.99-1.65,2.11-1.6,.88,.04,1.66,.38,2.26,1.03,.66,.72,.85,1.83-.26,2.64-.95,.7-2,1.23-2.98,1.88-.03,0-.05,0-.07,.02-.19,0-.37,0-.56,0-.02-.02-.05-.03-.08-.02"/>
            <path class="cls-23" d="M449.06,119.62c.43-.46,.87-.92,1.21-1.45,.04,.77-.42,1.32-1.21,1.45"/>
            <path class="cls-23" d="M450.33,117.82c-.08-.22-.15-.43-.23-.65,.03,0,.06,0,.1,0h0c.14,.2,.29,.4,.13,.66"/>
            <path class="cls-23" d="M453.7,116.43c.19,0,.37,0,.56,0-.19,.13-.37,.13-.56,0"/>
            <path class="cls-23" d="M450.2,117.16l.04-.12s.03,.02,.03,.02c-.02,.03-.04,.07-.07,.1h0Z"/>
            <path class="cls-23" d="M450.3,118.11s.01-.06,.02-.09c0,.02,.02,.05,.02,.07,0,0-.02,.01-.04,.02"/>
            <path class="cls-23" d="M450.1,117.17c-.08-.04-.11-.08-.03-.15,.01,.05,.02,.1,.03,.15"/>
            <path class="cls-23" d="M449.92,116.9s-.07-.07-.1-.11c.03,.04,.07,.07,.1,.11"/>
            <path class="cls-23" d="M448.87,119.8s.06-.06,.1-.09c-.03,.03-.06,.06-.1,.09"/>
            <path class="cls-23" d="M446.22,119.62c-.35-.07-.28-.27-.16-.49,.05,.16,.11,.33,.16,.49"/>
            <path class="cls-23" d="M445.97,117.65c-.15-.15-.2-.29,.05-.39,.02,.13,.05,.27-.05,.39"/>
            <path class="cls-23" d="M445.94,118.11c-.08-.06-.08-.13,0-.19v.19Z"/>
            <path class="cls-23" d="M446.02,118.77c-.07-.06-.07-.13-.06-.21,.07,.06,.08,.13,.06,.21"/>
            <path class="cls-23" d="M446.39,119.9s-.04-.06-.06-.09c.02,.03,.04,.06,.06,.09"/>
            <path class="cls-2" d="M443.6,113.88c.04,.42-.28,.72-.39,1.09-.21,.68-.44,1.35-.67,2.02-.09-.5,.15-.95,.29-1.4,.19-.6,.38-1.2,.77-1.71"/>
            <path class="cls-2" d="M445.75,111.02c-.03,.37-.19,.61-.6,.61,.15-.26,.36-.44,.6-.61"/>
            <path class="cls-2" d="M445.95,110.83c.02,.15-.05,.21-.19,.19,.03-.1,.1-.15,.19-.19"/>
            <path class="cls-10" d="M452.46,112.98c-.03,.88-.27,1.84-.52,2.79-.12,.46-.47,.55-.85,.44-.98-.28-1.88-.7-2.56-1.5-.5-.6-.56-1.2-.15-1.86,.6-.95,1.46-1.55,2.59-1.69,.63-.08,1.32,.13,1.43,1.01,.03,.23,.05,.47,.06,.81"/>
            <path class="cls-21" d="M490.51,122.17c.22-.18,.48-.08,.72-.09,.73-.01,1.47,0,2.2,0,0,.13,0,.29-.18,.27-.91-.12-1.84,0-2.75-.18"/>
            <path class="cls-21" d="M472.29,123.68c-.48,.19-.98,.05-1.47,.09-.29,.02-.59,0-.89,0,.07-.29,.31-.31,.52-.27,.56,.1,1.12,.08,1.68,.1,.05,0,.1,.06,.16,.09"/>
            <path class="cls-21" d="M476.83,123.58c-.82,.02-1.64-.05-2.46,.09,.04-.22,.21-.27,.38-.27,.62-.01,1.24,0,1.86,0,.13,0,.2,.06,.22,.19"/>
            <path class="cls-21" d="M476.26,122.73c.59-.17,1.2-.07,1.79-.09-.32,.35-.77,.27-1.13,.23-.2-.03-.54,.29-.66-.13"/>
            <path class="cls-21" d="M499.77,123.57c-.6-.03-1.2,.11-1.8-.08,.56-.19,1.13-.08,1.7-.06,.03,0,.06,.09,.1,.14"/>
            <path class="cls-21" d="M502.51,121.9c.5,0,1.01,0,1.51,0-.03,.05-.06,.14-.09,.14-.48-.03-.98,.22-1.42-.14"/>
            <path class="cls-21" d="M530.74,122.27c.32,.02,.64-.09,.95,.08-.33,.11-.66,.26-.95-.08"/>
            <path class="cls-21" d="M507.79,123.77c-.28-.03-.58,.09-.85-.08,.3-.1,.6-.25,.85,.08"/>
            <path class="cls-21" d="M484.76,122.36c.27-.17,.57-.06,.85-.08-.25,.33-.55,.19-.85,.08"/>
            <path class="cls-21" d="M480.6,122.54c.23-.18,.5-.06,.76-.09-.22,.34-.49,.2-.76,.09"/>
            <path class="cls-21" d="M523.37,124.42c-.22-.02-.46,.09-.66-.08,.24-.13,.48-.22,.66,.08"/>
            <path class="cls-21" d="M480.51,123.49c-.22,.14-.44,.14-.66,0,.22-.15,.44-.15,.66,0"/>
            <path class="cls-21" d="M519.88,122.07c.22,0,.44,0,.66,0-.25,.26-.42,.26-.66,0"/>
            <path class="cls-21" d="M510.82,123.86c-.16-.01-.34,.06-.47-.09,.19-.13,.36-.2,.47,.09"/>
            <path class="cls-21" d="M509.02,123.77c-.16,0-.31,0-.47,0,.16-.3,.32-.3,.47,0"/>
            <path class="cls-21" d="M475.03,122.83c.13-.15,.31-.07,.47-.09-.11,.29-.28,.22-.47,.09"/>
            <path class="cls-21" d="M479.66,123.49c-.14,.15-.31,.07-.47,.08,.12-.28,.29-.21,.47-.08"/>
            <path class="cls-21" d="M474.09,122.83c.16,0,.32,0,.47,0-.16,.3-.31,.3-.47,0"/>
            <path class="cls-21" d="M463.8,123.49c.14-.15,.31-.08,.47-.08-.12,.27-.29,.21-.47,.08"/>
            <path class="cls-21" d="M523.65,122.09c.16,0,.32,0,.47,0-.16,.28-.32,.28-.47,0"/>
            <path class="cls-21" d="M487.96,122.26c.14-.15,.31-.07,.47-.09-.13,.2-.28,.26-.47,.09"/>
            <path class="cls-21" d="M469.65,123.77c-.13,0-.25,0-.38,0,.01-.13,.08-.19,.21-.18,.11,0,.15,.08,.17,.18"/>
            <path class="cls-21" d="M468.52,123.78c-.1,.13-.25,.08-.38,.09,.07-.26,.21-.22,.38-.09"/>
            <path class="cls-21" d="M520.92,124.33c-.13,0-.27,.05-.38-.08,.16-.13,.3-.17,.38,.08"/>
            <path class="cls-21" d="M522.52,122.08c.13,0,.28-.05,.38,.08-.16,.14-.3,.18-.38-.08"/>
            <path class="cls-21" d="M510.81,121.9c.13,0,.25,0,.38,0-.13,.25-.25,.25-.38,0"/>
            <path class="cls-21" d="M472.95,122.92c.1-.13,.25-.08,.38-.08-.08,.25-.22,.21-.38,.08"/>
            <path class="cls-21" d="M494.86,122.07c.09,0,.19,0,.28,0,.01,.07,.08,.16-.03,.18-.14,.03-.24-.02-.25-.18"/>
            <path class="cls-21" d="M487.31,123.4c-.07,.11-.18,.09-.29,.08,.05-.2,.14-.23,.29-.08"/>
            <path class="cls-21" d="M477.86,123.58c-.1,0-.19,0-.29,0,.01-.1,.04-.18,.16-.17,.1,.01,.11,.09,.12,.17"/>
            <path class="cls-21" d="M462.94,123.58c.07-.11,.18-.09,.29-.08-.05,.2-.14,.23-.29,.08"/>
            <path class="cls-21" d="M469.74,123.11c.07-.11,.18-.09,.29-.08-.05,.2-.14,.23-.29,.08"/>
            <path class="cls-21" d="M472.29,122.93c.06,0,.13,0,.19,0-.01,.07-.01,.16-.12,.14-.03,0-.05-.09-.07-.14"/>
            <path class="cls-21" d="M491.93,123.48c-.08,0-.15,0-.19-.08,.14-.14,.17-.04,.19,.08"/>
            <path class="cls-21" d="M486.27,122.27h.38c-.13,.13-.25,.13-.38,0"/>
            <path class="cls-21" d="M510.25,121.9c.06,0,.13,0,.19,0-.01,.06-.02,.13-.1,.13-.08,0-.09-.07-.1-.13"/>
            <path class="cls-21" d="M519.12,124.23c-.08,.01-.14,0-.19-.08l.19,.08Z"/>
            <path class="cls-21" d="M501.76,123.49c-.05,.07-.12,.09-.19,.08,.04-.07,.12-.09,.19-.08"/>
            <path class="cls-21" d="M526.11,124.53c-.06,0-.13,0-.19,0,.06-.09,.13-.09,.19,0"/>
            <path class="cls-21" d="M468.33,123.21s.06-.05,.1-.08c-.02,.04,.03,.17-.1,.08"/>
            <path class="cls-23" d="M446.32,103.38c-.1-.09-.15-.25-.31-.28,.12-.31,.13-.63,.13-.95,0-.29-.13-.39-.39-.38-.12,0-.25,0-.37,0-.03-.1-.05-.21-.08-.31,.65,.3,.72,.26,.85-.45,.03-.15,.06-.3,.08-.45,.09,.03,.19,.06,.28,.09-.09,.23-.2,.45-.26,.68-.09,.3,.01,.48,.37,.44,.24-.03,.49-.06,.73-.08-.13,.1-.33,.15-.29,.38-.76-.27-.87-.19-.83,.66,.01,.22,.05,.43,.08,.65"/>
          </g>
        </g>
      </g>
    </g>
  </g>
</svg>