<?xml version="1.0" encoding="UTF-8"?>
<svg id="Camada_2" data-name="Camada 2" xmlns="http://www.w3.org/2000/svg" xmlns:xlink="http://www.w3.org/1999/xlink" viewBox="0 0 554.09 141.77">
  <defs>
    <style>
      .cls-1, .cls-2 {
        fill: #fff;
      }

      .cls-3 {
        opacity: .5;
      }

      .cls-3, .cls-4, .cls-5, .cls-6, .cls-7 {
        fill: #474747;
      }

      .cls-8 {
        fill: #009649;
      }

      .cls-9 {
        fill: #008f46;
      }

      .cls-10 {
        fill: #231f1f;
      }

      .cls-11 {
        clip-path: url(#clippath-2);
      }

      .cls-4 {
        opacity: .2;
      }

      .cls-12 {
        fill: #dfb01b;
      }

      .cls-13 {
        fill: #d91821;
      }

      .cls-14 {
        fill: #c0181d;
      }

      .cls-15 {
        fill: #097ec2;
      }

      .cls-2 {
        stroke-width: .25px;
      }

      .cls-2, .cls-16 {
        stroke: #1d1d1b;
        stroke-miterlimit: 10;
      }

      .cls-17 {
        fill: #8dd2f2;
      }

      .cls-18 {
        fill: #a07c29;
      }

      .cls-19 {
        clip-path: url(#clippath-1);
      }

      .cls-20 {
        fill: #f9e91d;
      }

      .cls-21 {
        fill: #fdd100;
      }

      .cls-22 {
        clip-path: url(#clippath);
      }

      .cls-23, .cls-16 {
        fill: none;
      }

      .cls-5 {
        opacity: .7;
      }

      .cls-24 {
        fill: #fcdd02;
      }

      .cls-6 {
        opacity: .9;
      }

      .cls-25 {
        fill: #8d6c15;
      }

      .cls-16 {
        stroke-width: .39px;
      }

      .cls-26 {
        fill: #ce161f;
      }

      .cls-7 {
        opacity: .8;
      }

      .cls-27 {
        fill: #f8f091;
      }
    </style>
    <clipPath id="clippath">
      <rect class="cls-23" x="429.41" y="93.47" width="114" height="39.5"/>
    </clipPath>
    <clipPath id="clippath-1">
      <rect class="cls-23" x="429.41" y="93.47" width="114" height="39.5"/>
    </clipPath>
    <clipPath id="clippath-2">
      <rect class="cls-23" x="429.41" y="93.47" width="114" height="39.5"/>
    </clipPath>
  </defs>
  <g id="base">
    <g>
      <rect class="cls-2" x=".12" y=".12" width="553.84" height="141.52"/>
      <g>
        <polygon class="cls-6" points="553.7 66.87 492.01 .12 553.96 .12 553.7 66.87"/>
        <polygon class="cls-4" points="553.7 71.92 503.44 17.41 482.17 27.51 553.7 110.48 553.7 71.92"/>
        <path class="cls-3" d="M553.7,66.87l-44.41-47.86h0c7.33-1,14.68,1.65,19.69,7.1l24.98,27.2-.27,13.56Z"/>
        <path class="cls-7" d="M509.29,19L491.97,.12h-22.56l11.32,12.37c3.8,4.15,9.16,6.51,14.79,6.51h13.77Z"/>
      </g>
      <g>
        <polygon class="cls-4" points="62.67 105.7 44.7 114.33 .12 60.05 .12 32.01 62.67 105.7"/>
        <polygon class="cls-6" points=".12 73.71 .12 141.64 57.28 141.64 .12 73.71"/>
        <path class="cls-5" d="M99.69,141.64l-9.4-9.92c-2.26-2.39-5.41-3.74-8.69-3.74h-20.64c-5.29,0-10.31-2.36-13.69-6.43L.12,64.72v8.99l57.15,67.93h42.41Z"/>
        <path class="cls-3" d="M51.16,111.45l-6.47,2.88L12.71,73.71h0c5.75-.88,11.52,1.48,14.98,6.15l23.47,31.59Z"/>
      </g>
      <rect class="cls-16" x="227.63" y="84.18" width="36.8" height="10.37" rx="5.19" ry="5.19"/>
      <rect class="cls-16" x="285.67" y="84.18" width="36.8" height="10.37" rx="5.19" ry="5.19"/>
      <g id="Arte_157" data-name="Arte 157">
        <g class="cls-22">
          <g class="cls-19">
            <path class="cls-15" d="M440.11,93.81c.63,.16,1.26,.33,1.89,.47,1.68,.4,3.39,.61,5.12,.52,1.66-.08,3.25-.49,4.73-1.25,.2-.1,.35-.11,.56,0,2.1,1.07,4.32,1.56,6.68,1.42,1.48-.09,2.91-.44,4.31-.9,.54-.18,.54-.18,.77,.34,.46,1.06,.92,2.12,1.38,3.18,.06,.14,.04,.21-.07,.31-.9,.82-1.74,1.69-2.37,2.74-.87,1.45-1.27,3.02-1.22,4.71,.05,1.77,.49,3.44,1.19,5.06,.55,1.28,.91,2.62,1.03,4.02,.22,2.65-1.03,4.76-3.47,5.82-1.23,.53-2.53,.79-3.85,.94-1.02,.11-2.02,.32-2.97,.73-.6,.25-1.05,.67-1.46,1.16-.21,.25-.43,.49-.64,.74-.09,.11-.13,.09-.2-.01-.26-.38-.55-.76-.8-1.15-.18-.29-.43-.48-.73-.63-.91-.46-1.89-.7-2.88-.88-1.19-.21-2.38-.43-3.51-.89-1.35-.56-2.48-1.37-3.18-2.7-.57-1.07-.72-2.22-.63-3.41,.18-2.12,.96-4.06,1.88-5.96,.62-1.28,.96-2.62,.85-4.05-.09-1.22-.53-2.32-1.16-3.36-.67-1.11-1.54-2.07-2.48-2.95-.21-.2-.25-.36-.15-.64,.41-1.06,.79-2.14,1.18-3.21,.03-.08,.02-.22,.18-.17m3.72,12.36s-.04,.06-.03,.09c-.05,.19-.11,.37-.14,.56-.06,.37-.26,.71-.3,1.09-.08,.07-.09,.18-.14,.26-.08,.16-.03,.2,.13,.2,.21,0,.42,0,.63,0,1.33,0,2.66,0,3.99,0-.08,.05-.17,.03-.25,.03-1.47,0-2.93,0-4.4,0-.15,0-.23,.05-.3,.19-.55,1.16-1.08,2.32-1.43,3.55-.32,1.11-.52,2.23-.36,3.39,.14,1.04,.62,1.91,1.44,2.57,.79,.64,1.72,1,2.7,1.26,.99,.27,2.01,.35,3,.61,1.21,.32,2.43,.63,3.31,1.61,.04,.05,.09,.07,.14,.02,.15-.16,.33-.27,.33-.56-.01-4.11,0-8.23,0-12.34,0-.09-.03-.19,.02-.27,0,.08,0,.17,0,.26,0,4.1,0,8.2,0,12.3,0,.09-.02,.18,.03,.28,.42-.32,.87-.54,1.34-.73,1.15-.47,2.37-.65,3.6-.8,1.2-.14,2.37-.41,3.44-1,1.23-.68,1.97-1.69,2.13-3.11,.12-1.03-.06-2.02-.33-3.01-.39-1.45-1.14-2.77-1.47-4.24-.1-.49-.2-.98-.3-1.47-.04-.33-.1-.66-.09-1,.02-.54-.01-1.08-.02-1.63,.04-.3,.06-.61,.12-.9,.2-.9,.46-1.79,.86-2.64,.05-.09,.11-.17,.15-.26,.32-.76,.88-1.37,1.35-2.03,.03,0,.04-.01,.04-.04,.03-.03,.06-.07,.09-.1,.24-.24,.47-.49,.72-.73,.11-.1,.12-.19,.06-.32-.19-.4-.36-.81-.53-1.22-.18-.43-.19-.43-.63-.3-.65,.2-1.31,.31-1.96,.47h-.12s-.09,0-.12,.04c-.15-.02-.29,.02-.44,.03-.79,.09-1.58,.13-2.37,.1-.6-.03-1.2-.11-1.81-.18-.04-.01-.07-.03-.11-.04-.98-.16-1.91-.45-2.83-.83-.27-.11-.54-.22-.81-.33-.01,0-.03-.01-.04,0-.02,0-.05,0-.07,.02-1.4,.64-2.87,1.02-4.41,1.16-1.27,.11-2.54,.04-3.8-.13-.94-.12-1.86-.31-2.78-.55-.17-.05-.23,0-.28,.16-.1,.32-.19,.65-.34,.94-.23,.44-.12,.73,.22,1.06,.75,.73,1.38,1.57,1.93,2.47,.25,.4,.44,.84,.67,1.25,.21,.65,.45,1.29,.57,1.96,.13,.9,.13,1.8,0,2.7,0,.04,0,.09-.01,.13"/>
            <path class="cls-10" d="M440.45,119.93c-.16,1.26-.27,2.53-.16,3.81,0,.04-.01,.08-.02,.11-.23-.07-.45-.14-.68-.2-.28-.11-.56-.22-.85-.34-.42-.23-.84-.46-1.27-.69-.03-.03-.06-.07-.09-.1-.5-.37-.89-.82-1.1-1.41,0-.09,0-.18,0-.28,0-.59,.3-.89,.89-.9,.04,0,.08,0,.11,0,.46,.09,.88,.28,1.3,.47,.34,.15,.69,.24,1.06,.18,.26-.04,.49-.14,.6-.41,.11-.04,.11-.18,.2-.23"/>
            <path class="cls-10" d="M463.98,123.86c0-.39,.02-.77,.02-1.16,0-.81-.03-1.61-.18-2.41-.02-.12,0-.25,0-.37,.05,.07,.09,.13,.14,.19,.03,.13,.12,.2,.22,.27,.2,.19,.45,.22,.71,.21,.36-.02,.7-.14,1.02-.3,.4-.2,.81-.34,1.26-.36,.54,.12,.75,.31,.79,.75,.01,.15,0,.31,0,.46-.12,.29-.27,.57-.47,.82-.23,.27-.52,.49-.79,.71-.39,.24-.8,.46-1.21,.66-.07,.01-.14,.03-.19,.09-.14,.03-.27,.09-.4,.15-.12,.01-.23,.06-.33,.12-.2,.06-.39,.12-.59,.17"/>
            <path class="cls-27" d="M432.35,118.49c.17-.04,.28-.01,.22,.2-.02,.06-.05,.13,.04,.15,.09,.02,.1-.07,.1-.13,.02-.24,.17-.28,.37-.25-.13,.28-.09,.36,.15,.39-.03,.2-.08,.4-.04,.6-.1,.02-.22,0-.23,.17-.04,.53-.09,1.06-.14,1.59-.06,.58-.12,1.15-.17,1.73-.05,.55-.1,1.09-.15,1.64-.01,.13,.01,.2,.17,.21,.15,0,.3,.05,.46,.07,0,.2,0,.4,0,.6-.13-.01-.26-.02-.39-.04-.33-.03-.36,0-.34,.34-.4,.11-.31-.23-.37-.44-.1,.06-.11,.14-.11,.21-.01,.2-.1,.19-.24,.1-.04-.15,.13-.36-.13-.44,0-.2,0-.41,0-.61,.15,.05,.24,.05,.24-.15,0-.17,.05-.35,.06-.52,.01-.36,.12-.71,.06-1.07,.04-.14,.14-.23,.27-.34,.03,.34-.04,.63-.06,.93-.03,.38-.08,.75-.11,1.13,0,.05-.03,.12,.04,.14,.08,.02,.09-.05,.11-.11,.08-.23,.05-.48,.08-.71,.11-1.04,.19-2.09,.29-3.13,.03-.36,.08-.72,.12-1.08,0-.05,.02-.12-.04-.14-.09-.03-.1,.05-.11,.11-.03,.24-.05,.49-.08,.74-.06,.62-.12,1.24-.19,1.88-.14-.04-.22-.12-.28-.22,.08-.05,.09-.14,.1-.22,.06-.65,.12-1.29,.19-1.94,.03-.33,.03-.33-.3-.37-.07,0-.14-.02-.21-.03,0-.2,0-.4,0-.6,.08,.01,.15,.03,.23,.04,.35,.02,.4-.02,.4-.39"/>
            <path class="cls-24" d="M473.46,120.68c-.36,.57-.83,1.04-1.34,1.48-.14,.12-.13,.2-.03,.32,.19,.23,.38,.47,.58,.7-.06,.47-.17,.94-.13,1.42-.32,.11-.65,.17-.99,.19,0-.44,.08-.87,.11-1.31,.04-.75,.14-1.49,.22-2.23,.06-.58,.12-1.16,.19-1.75,.15-.02,.31,.01,.46-.05,.1,0,.2,.03,.29-.03,.17-.03,.35,.02,.52-.07,.05,0,.09,0,.14,0,.01,.39,0,.78-.08,1.16-.01,.08,0,.14,.08,.17"/>
            <path class="cls-25" d="M438.62,130.34c-.07-.09-.18-.12-.29-.14-.05-.09-.15-.1-.23-.13-.32-.23-.66-.43-.94-.72-.08-.08-.14-.19-.26-.22-.15-.3-.36-.56-.48-.87-.02-.25,.03-.5,.05-.74,.08,.11,.07,.26,.17,.37,.06,.18,.15,.34,.28,.47,.31,.46,.74,.77,1.22,1.03,.11,.07,.21,.14,.32,.21,.05,.02,.09,.04,.14,.06,.12,.1,.26,.15,.4,.19,.89,.46,1.84,.75,2.81,.98,.04,.01,.07,.03,.11,.04,.55,.13,1.1,.25,1.64,.38-.03,.19-.07,.37-.1,.56-.08-.01-.17-.02-.25-.03-.56-.12-1.11-.24-1.67-.36-.27-.13-.58-.13-.86-.23-.59-.23-1.17-.46-1.76-.68-.1-.06-.19-.13-.31-.15"/>
            <path class="cls-25" d="M465.78,130.26c-.11,0-.17,.07-.25,.13-.1,.05-.21,.1-.31,.15-.06,.02-.12,.04-.17,.06-1.26,.54-2.57,.89-3.91,1.15-.04-.18-.08-.37-.12-.55,.08-.03,.16-.06,.24-.08,.24-.06,.48-.08,.71-.18,.37-.05,.72-.15,1.08-.26,.72-.21,1.43-.43,2.1-.78,.11-.03,.23-.06,.31-.14,.08-.04,.15-.07,.23-.11,.09-.05,.19-.11,.28-.16,.5-.27,.98-.57,1.31-1.06,.08-.07,.16-.14,.18-.25,.18-.18,.21-.44,.32-.65,.04,.26,.07,.52,.05,.78-.16,.27-.32,.54-.48,.82-.4,.41-.85,.75-1.35,1.04-.07,.04-.15,.07-.22,.11"/>
            <path class="cls-21" d="M467.77,127.52c-.11,.21-.13,.47-.32,.65-.04-.03-.05-.07-.05-.12-.05-.43-.06-.86-.1-1.29-.1-.9-.16-1.81-.23-2.71,0-.14,.02-.31-.14-.4,.31-.26,.59-.54,.84-.85,0,.61-.07,1.22-.04,1.83,0,.14,0,.28,0,.42-.01,.13,.04,.19,.16,.21,.49,.07,.98,.15,1.47,.21,.62,.07,1.24,.06,1.86,0,.25-.03,.51-.05,.76-.08,0,.12,0,.25,0,.37-.66,.14-1.34,.15-2.01,.12-.69-.03-1.37-.12-2.05-.24-.17-.03-.2,.02-.19,.17,.02,.57,.04,1.15,.06,1.72"/>
            <path class="cls-21" d="M460.51,132.34c-.56,.14-1.13,.19-1.7,.27-.95,.12-1.9,.21-2.85,.26-.04,0-.08,0-.12,0-.08-.05-.16-.07-.23,.01-.03,0-.06,0-.09,0,0-.16,0-.32,0-.48,.88-.07,1.77-.12,2.65-.22,.64-.08,1.28-.16,1.93-.25,.14-.01,.27-.03,.41-.04,0,.15,0,.3,0,.45"/>
            <path class="cls-20" d="M431.73,119.45c.07,.01,.14,.02,.21,.03,.33,.04,.33,.04,.3,.37-.06,.65-.12,1.29-.19,1.94,0,.08-.01,.17-.1,.22-.36-.34-.71-.7-.98-1.12,.02-.02,.05-.05,.05-.07,0-.47,.12-.94,.1-1.42,.11,0,.21,0,.32,.01,.09,.06,.2,.03,.29,.03"/>
            <path class="cls-20" d="M460.51,132.34c0-.15,0-.3,0-.45h0s.06-.02,.09-.03c.06-.02,.13-.04,.19-.05,.11-.02,.23-.04,.34-.06,1.34-.25,2.66-.61,3.91-1.15,.06-.02,.12-.04,.17-.06,0,.15,0,.31-.01,.46-.99,.47-2.04,.78-3.11,1.03-.53,.13-1.05,.26-1.59,.31"/>
            <path class="cls-21" d="M436.64,127.89c-.09-.11-.09-.26-.17-.37,.02-.55,.05-1.1,.07-1.65,0-.09,.03-.19-.03-.27,0-.12,0-.24,0-.35,.08-.21,.07-.41,0-.62-.02-.47,.04-.94-.04-1.4-.02-.12-.06-.26,.05-.37,.23,.27,.47,.52,.74,.75-.12,.02-.14,.11-.14,.21,0,.31-.06,.61-.09,.92-.09,.89-.15,1.78-.25,2.67-.02,.16,.07,.38-.14,.49"/>
            <path class="cls-20" d="M454.31,132.93c-.26,.05-.52,.04-.78,.04-1.04,0-2.07,0-3.11,0-.13,0-.26-.02-.39-.03-.03-.16,.05-.32,.05-.48,1.4,.06,2.79,.05,4.19,0-.02,.16,.03,.32,.05,.47"/>
            <path class="cls-21" d="M448.35,132.86c-.87-.01-1.74-.12-2.61-.21-.38-.04-.75-.1-1.12-.16-.02-.17-.03-.33-.05-.5,.5,.08,1.01,.13,1.51,.19,.86,.11,1.73,.15,2.59,.22,0,.23-.01,.44-.32,.45"/>
            <path class="cls-21" d="M454.97,125.07c.76-.04,1.51-.08,2.27-.13,.56-.04,1.13-.09,1.69-.13-.03,.17,.02,.32,.09,.46-1.35,.16-2.7,.23-4.05,.28,.09-.16-.01-.32,0-.48"/>
            <path class="cls-12" d="M463.95,120.11l-.14-.19c-.1-.26,.01-.5,.08-.74,.04-.14,.11-.27,.17-.41,.09-.1,.18-.19,.27-.29,.75-.45,1.56-.38,2.37-.24-.11,.18-.11,.37-.05,.57-.52,0-1.03-.12-1.55,0-.35,.08-.69,.19-.84,.58-.2,.2-.2,.49-.31,.73"/>
            <path class="cls-21" d="M468.15,118.06c.64,.1,1.28,.19,1.93,.28,.86,.12,1.73,.15,2.59,.13,.07,.11,.04,.24,.05,.36-.07,0-.13,.01-.2,.02-.5,0-1.01,0-1.51,0-.55-.02-1.1-.12-1.64-.21-.44-.07-.89-.1-1.31-.23,.03-.11,.1-.22,.1-.34"/>
            <path class="cls-21" d="M445.6,124.84c1.21,.1,2.42,.17,3.63,.23-.02,.16-.03,.32-.05,.48-.21,0-.42-.03-.62-.03-1.01-.02-2.01-.12-3.01-.2-.02-.16,.03-.32,.05-.48"/>
            <path class="cls-20" d="M433.23,118.85c-.25-.03-.28-.11-.15-.39,1.09-.09,2.17-.28,3.26-.45,.24-.04,.48-.1,.73-.1-.03,.13-.06,.25-.09,.38-.41,.07-.82,.15-1.23,.21-.84,.13-1.67,.28-2.52,.35"/>
            <path class="cls-20" d="M439.59,123.65c.23,.07,.45,.14,.68,.2,.72,.25,1.46,.39,2.2,.54,.11,.02,.22,.05,.33,.08-.02,.15-.09,.29-.14,.43-.17-.03-.35-.06-.52-.09-.88-.18-1.76-.38-2.61-.71,.02-.15,.04-.3,.06-.45"/>
            <path class="cls-24" d="M444.57,131.99c.02,.17,.03,.33,.05,.5-1.04-.14-2.07-.33-3.07-.63,.06-.15,.02-.3,0-.45,.56,.12,1.11,.24,1.67,.36,.08,.02,.17,.02,.25,.03,.05,.01,.11,.03,.16,.04,.1,.02,.19,.03,.29,.05,.21,.07,.43,.08,.65,.1"/>
            <path class="cls-24" d="M459.02,125.28c-.07-.15-.12-.3-.09-.46,.57-.08,1.13-.15,1.7-.23,.41-.06,.82-.13,1.24-.19,0,.15-.02,.31,.11,.43-.34,.12-.7,.12-1.04,.22-.13,0-.25-.01-.37,.07-.2,.05-.42,0-.61,.07-.31,.03-.62,.06-.93,.09"/>
            <path class="cls-20" d="M450.72,125.11h2.8c-.02,.17,.08,.32,.04,.49-.96,0-1.92,0-2.89,0-.03-.17,.06-.32,.05-.49"/>
            <path class="cls-20" d="M468.15,118.06c0,.12-.06,.23-.1,.34-.45-.06-.9-.11-1.35-.17-.81-.14-1.62-.21-2.37,.24l.03-.38c.35-.24,.75-.3,1.15-.32,.89-.05,1.76,.11,2.63,.28"/>
            <path class="cls-21" d="M436.98,118.29c.03-.13,.06-.25,.09-.38,.88-.15,1.76-.25,2.62,.07,.67,.25,.96,.83,.81,1.53-.06-.04-.06-.1-.07-.16-.16-.73-.84-1.24-1.59-1.19-.12,0-.23,0-.35,0-.51,0-1,.1-1.51,.13"/>
            <path class="cls-24" d="M442.66,124.9c.06-.14,.12-.28,.14-.43,.72,.1,1.44,.19,2.15,.29,.21,.03,.43,.05,.64,.08-.02,.16-.07,.31-.05,.48-.38-.04-.75-.08-1.13-.12-.21-.04-.42-.07-.64-.07-.05-.06-.12-.04-.19-.04-.31-.06-.62-.13-.94-.19"/>
            <path class="cls-20" d="M461.97,124.82c-.13-.12-.11-.28-.11-.43,.63-.16,1.28-.27,1.9-.47,.07-.02,.15-.05,.22-.07,.2-.06,.39-.12,.59-.17,.18,.11,.05,.29,.1,.43-.87,.35-1.78,.56-2.7,.71"/>
            <path class="cls-20" d="M441.55,131.41c.02,.15,.06,.3,0,.45-.92-.22-1.82-.52-2.67-.95,.02-.14,.03-.28,.05-.42,.59,.23,1.17,.45,1.76,.68,.28,.11,.59,.1,.86,.23"/>
            <path class="cls-20" d="M431.9,122.83c.05,.36-.05,.71-.06,1.07,0,.18-.06,.35-.06,.52,0,.2-.1,.21-.24,.15-.1-.03-.19-.06-.29-.09-.16-.06-.31-.12-.47-.18-.03-.03-.07-.06-.1-.08,0-.12,0-.24,0-.37,.47-.27,.87-.62,1.22-1.03"/>
            <path class="cls-12" d="M438.83,118.16c.75-.05,1.43,.46,1.59,1.19,.01,.06,0,.13,.07,.16-.01,.14-.03,.28-.04,.42-.1,.05-.09,.19-.2,.23-.04-.52-.21-.97-.7-1.23-.25-.14-.53-.15-.81-.19,.12-.18,.11-.38,.09-.59"/>
            <path class="cls-20" d="M471.97,125.75c0-.12,0-.25,0-.37,.25-.06,.49-.13,.74-.19,.1-.03,.19-.06,.29-.09,.19-.06,.39-.11,.56-.23,.35-.14,.67-.32,.95-.58,.1,.03,.26,.04,.28,.13,.02,.11-.13,.17-.21,.24-.76,.62-1.63,.98-2.61,1.1"/>
            <path class="cls-21" d="M431.11,119.41c.02,.48-.09,.94-.1,1.42,0,.02-.03,.05-.05,.07-.45-.54-.81-1.14-1.07-1.79,.34,.08,.68,.21,1.03,.24,.06,.02,.13,.04,.19,.06"/>
            <path class="cls-20" d="M472.54,124.6c-.04-.48,.07-.95,.13-1.42,.36,.37,.81,.62,1.26,.85-.14,.09-.29,.17-.43,.26-.17,.07-.34,.13-.5,.2-.11-.02-.2,.06-.29,.09-.06,0-.11,.02-.17,.03"/>
            <path class="cls-24" d="M436.5,125.25c0,.12,0,.24,0,.35-.72,.12-1.45,.25-2.19,.25,0-.11,0-.23,0-.34,.73-.04,1.45-.17,2.18-.26"/>
            <path class="cls-25" d="M430.92,119.35c-.36-.03-.69-.16-1.03-.24-.17-.24-.25-.51-.34-.78,.46,.2,.94,.33,1.42,.46-.02,.19-.04,.38-.05,.57"/>
            <path class="cls-20" d="M472.72,118.83c0-.12,.02-.24-.05-.36,.28-.04,.56-.08,.84-.13,.45-.08,.88-.23,1.33-.43-.06,.18-.11,.32-.16,.46-.06-.02-.12,0-.18,.02-.38,.18-.79,.27-1.19,.37l-.52,.08s-.06,0-.09-.01"/>
            <path class="cls-25" d="M473.32,118.77c.4-.1,.81-.19,1.19-.37,.06-.03,.12-.04,.18-.02-.1,.25-.16,.52-.34,.73l-.9,.25s-.09,0-.14,0v-.59Z"/>
            <path class="cls-24" d="M450.72,125.11c.02,.17-.08,.32-.05,.49l-1.49-.04c.01-.16,.03-.32,.04-.48,.5,.01,.99,.02,1.49,.04"/>
            <path class="cls-24" d="M448.35,132.86c.31,0,.33-.22,.32-.45,.47,.02,.93,.03,1.4,.05,0,.16-.08,.31-.05,.48-.56,.02-1.12,0-1.67-.07"/>
            <path class="cls-20" d="M473.46,119.36l.9-.25c-.21,.58-.53,1.09-.9,1.58-.08-.03-.09-.09-.08-.17,.07-.38,.1-.77,.08-1.16"/>
            <path class="cls-20" d="M434.32,125.51c0,.11,0,.23,0,.34-.51,.08-1.01,.03-1.51-.03-.14-.02-.29-.04-.43-.06-.01-.34,.02-.37,.34-.34,.13,.01,.26,.02,.38,.04,.4,.06,.81,.04,1.21,.05"/>
            <path class="cls-24" d="M453.56,125.6c.03-.17-.06-.32-.04-.49,.48-.01,.96-.02,1.45-.04-.02,.16,.09,.32,0,.48-.47,.01-.93,.03-1.4,.04"/>
            <path class="cls-20" d="M466,130.15c.49-.29,.94-.64,1.35-1.04,0,.15,0,.3,0,.45-.37,.42-.81,.75-1.3,1-.02-.13-.03-.27-.05-.4"/>
            <path class="cls-24" d="M454.31,132.93c-.01-.16-.07-.31-.05-.47l1.26-.05c0,.16,0,.32,0,.48-.4,.04-.81,.08-1.21,.05"/>
            <path class="cls-21" d="M430.97,118.79c-.48-.12-.96-.26-1.42-.46-.04-.11-.08-.23-.14-.4,.61,.25,1.19,.43,1.79,.51,0,.12,0,.24,0,.35-.08,0-.15,0-.23,0"/>
            <path class="cls-20" d="M436.9,129.14c.12,.03,.18,.14,.26,.22,.28,.28,.62,.48,.94,.72-.02,.13-.03,.26-.05,.39-.28-.1-.49-.3-.72-.48-.22-.17-.44-.36-.59-.6,.03-.09,.02-.22,.16-.25"/>
            <path class="cls-25" d="M430.68,124.22s.07,.06,.1,.08l-.05,.58-.14-.03c-.29-.18-.61-.32-.85-.57,.18-.11,.37-.18,.56-.25,.12,.07,.23,.16,.37,.19"/>
            <path class="cls-25" d="M473.5,124.29c.14-.09,.29-.17,.43-.26,.2,.07,.39,.14,.58,.25-.28,.26-.6,.44-.95,.58-.11-.18-.02-.39-.06-.58"/>
            <path class="cls-20" d="M431.2,118.79c0-.12,0-.24,0-.35,.38,.02,.77,.03,1.15,.05,0,.37-.05,.42-.4,.39-.08,0-.15-.02-.23-.04h-.3c-.08,.01-.15-.03-.23-.06"/>
            <path class="cls-20" d="M430.6,124.85l.14,.03c.16,.1,.34,.16,.51,.21,.09,.05,.19,.08,.29,.1,.27,.08,.09,.29,.13,.44-.39-.09-.77-.21-1.12-.41,.05-.12,.05-.24,.05-.36"/>
            <path class="cls-21" d="M430.6,124.85c0,.12,0,.24-.05,.36-.42-.19-.78-.46-1.13-.79,.1-.08,.21-.11,.32-.14,.25,.24,.56,.39,.85,.57"/>
            <path class="cls-21" d="M467.36,129.56c0-.15,0-.3,0-.45,.16-.27,.32-.54,.48-.82,.13,.35,0,.64-.19,.93-.08,.12-.16,.24-.28,.33"/>
            <path class="cls-21" d="M436.9,129.14c-.14,.03-.12,.15-.16,.25-.27-.33-.46-.68-.32-1.12,.12,.31,.33,.57,.48,.87"/>
            <path class="cls-27" d="M465.21,131c0-.15,0-.31,.01-.46,.1-.05,.2-.1,.31-.15,.03,.47,0,.51-.32,.61"/>
            <path class="cls-27" d="M438.93,130.5c-.02,.14-.03,.28-.05,.42-.3-.1-.33-.17-.26-.58,.12,.02,.21,.1,.31,.15"/>
            <path class="cls-27" d="M464.37,118.1c-.01,.13-.02,.25-.03,.38-.09,.1-.18,.19-.27,.29-.04-.41,.02-.54,.3-.67"/>
            <path class="cls-27" d="M438.05,130.46c.02-.13,.03-.26,.05-.39,.08,.04,.18,.05,.23,.13-.06,.04-.04,.11-.05,.17,0,.06,.04,.16-.04,.18-.07,.03-.14-.02-.19-.09"/>
            <path class="cls-27" d="M466,130.15c.02,.13,.03,.27,.05,.4-.09,.09-.16,.12-.2-.04-.02-.09-.05-.17-.08-.26,.07-.04,.15-.07,.22-.11"/>
            <path class="cls-21" d="M430.68,124.22c-.14-.03-.25-.12-.37-.19,.13-.06,.25-.12,.38-.18,0,.12,0,.24,0,.37"/>
            <path class="cls-24" d="M455.62,132.88c.07-.09,.15-.07,.23-.02-.07,.04-.15,.04-.23,.02"/>
            <path class="cls-1" d="M460.91,108.37c.33,1.47,1.08,2.79,1.47,4.24,.27,.99,.45,1.98,.33,3.01-.16,1.42-.9,2.43-2.13,3.11-1.07,.59-2.24,.86-3.44,1-1.23,.15-2.45,.33-3.6,.8-.47,.19-.92,.42-1.34,.73-.05-.1-.03-.19-.03-.28,0-4.1,0-8.2,0-12.3,0-.09,0-.17,0-.26,0-.01,.01-.03,.02-.04,2.86,0,5.73,0,8.59,0,.05,0,.09-.01,.14-.02m-4.66,4.28c0,.08,0,.16,0,.24,0,.08-.01,.17-.02,.25-.04,.41-.04,.82-.12,1.22-.01,.07-.01,.18-.11,.18-.07,0-.09-.09-.12-.15-.1-.22-.14-.45-.15-.69,0-.28-.26-.61-.45-.61-.21,0-.4,.25-.41,.57-.01,.29,0,.57,0,.86,0,.3,.12,.52,.39,.66,.17,.09,.34,.18,.51,.28,.18,.1,.32,.24,.37,.45,.02,.43,.04,.87,0,1.3-.01,.15,.05,.18,.18,.19,.3,0,.6,.02,.91,.04,.13,0,.16-.03,.14-.16-.06-.4-.12-.81-.11-1.22,.04-.13,.14-.21,.25-.28,.2-.12,.43-.18,.63-.28,.48-.23,.79-.59,.84-1.14,.02-.29,.04-.57,.04-.86,0-.16-.02-.32-.03-.49-.02-.18-.13-.3-.3-.34-.17-.05-.28,.07-.36,.19-.12,.16-.2,.35-.28,.54-.12,.28-.24,.55-.37,.83-.07,.14-.14,.17-.23,0-.25-.47-.4-.94-.22-1.47,.1-.28,.16-.58,.23-.87,.07-.32,0-.61-.16-.89-.1-.18-.21-.33-.45-.29-.24,.04-.4,.17-.43,.42-.05,.33-.1,.66-.1,.99,0,.03-.01,.05-.02,.08,0,.13-.01,.26-.02,.39,0,.02-.01,.05-.02,.07"/>
            <path class="cls-9" d="M452.17,108.38s-.01,.03-.02,.04c-.05,.09-.02,.18-.02,.27,0,4.11,0,8.23,0,12.34,0,.29-.18,.4-.33,.56-.05,.05-.1,.03-.14-.02-.89-.98-2.11-1.29-3.31-1.61-.99-.26-2.01-.35-3-.61-.97-.26-1.9-.62-2.7-1.26-.82-.67-1.3-1.53-1.44-2.57-.16-1.16,.04-2.28,.36-3.39,.36-1.23,.89-2.39,1.43-3.55,.07-.14,.15-.19,.3-.19,1.47,0,2.93,0,4.4,0,.08,0,.17,.02,.25-.03,.07-.06,.13-.12,.19-.19,.24-.28,.49-.57,.73-.85,.08,0,.15,.01,.23,.02,1.17,.19,2.19-.62,2.29-1.8,.1-1.25-1.05-2.36-2.36-2.08-.41,.09-.8,.24-1.04,.63-.03,0-.06-.02-.08-.02,0-.02-.02-.03-.05-.01-.03,0-.07-.02-.1-.02-.01,0-.02-.01-.04-.01l-.1-.02s-.04-.01-.06-.02c-.15-.03-.3-.06-.45-.09-.42-.09-.5-.35-.2-.67,.3-.31,.65-.54,1.03-.74,.37,0,.75,.04,1.12-.02,1.01,0,2.03-.02,3.04-.03,.01,.06,.02,.13,.04,.2,0,.05-.01,.09-.01,.14,0,1.81,0,3.62,0,5.43,0,.06,.01,.12,.02,.18m-1.54,6.71c.12-2.19-1.85-3.99-3.75-4.08-2.42-.11-4.13,1.93-4.22,3.82-.12,2.4,1.86,4.13,3.77,4.22,2.47,.12,4.32-1.99,4.2-3.96"/>
            <path class="cls-17" d="M452.13,102.44c-1.01,0-2.03,.02-3.04,.03-.37,0-.75-.04-1.12,.02-.38,.2-.74,.43-1.03,.74-.3,.32-.22,.58,.2,.67,.15,.03,.3,.06,.45,.09,.02,0,.04,.01,.06,.02l.1,.02s.03,0,.04,.01c.03,0,.07,.02,.1,.02,.01,0,.03,0,.05,.01,.03,0,.06,.02,.09,.02,.38,.13,.76,.25,1.14,.39,.3,.11,.58,.26,.81,.49,.23,.23,.26,.45,.09,.73-.09,.16-.19,.32-.3,.47-.28,.39-.57,.77-.86,1.15-.24,.28-.48,.57-.73,.85-.06,.07-.13,.13-.19,.19-1.33,0-2.66,0-3.99,0-.21,0-.42,0-.63,0-.17,0-.22-.04-.13-.2,.05-.09,.06-.19,.14-.26,.72-.37,1.41-.81,2.1-1.22,.3-.16,.6-.33,.84-.58,.2-.21,.21-.44,.02-.67-.07-.09-.16-.16-.26-.23-.37-.28-.8-.45-1.19-.68-.28-.16-.32-.36-.11-.61,.17-.2,.4-.35,.63-.47,.28-.16,.58-.3,.87-.44,.35-.16,.71-.33,1.09-.5-.06-.04-.08-.06-.11-.07-.67-.32-1.37-.56-2.09-.77-.1-.03-.22-.01-.3-.1,0-.26,0-.53,.02-.79,.11-.87,.5-1.7,.38-2.6,.38,.03,.37,.42,.63,.64-.03-.2-.05-.32-.07-.44,.02-.02,.03-.04,.05-.05,.09,.01,.09,.08,.13,.14,.06,.11,.11,.23,.26,.29-.06-.24-.12-.45-.24-.63-.03-.05-.1-.1-.04-.16,.05-.05,.11-.05,.17-.02,.13,.05,.26,.08,.43,.14-.23-.38-.63-.3-.94-.45,.29-.24,.6-.29,.94-.18-.11-.14-.22-.26-.32-.37-.16-.17-.41-.21-.64-.09-.05,.03-.11,.1-.16,.05-.07-.06-.01-.14,.02-.21,.06-.13,.18-.21,.23-.36-.1,0-.16,.08-.23,.09-.13,.02-.11,.41-.35,.14-.02-.02-.06,.06-.07,.1-.03,.12-.06,.25-.09,.4-.18-.2-.36-.35-.59-.46,0,.12,.05,.18,.1,.25,.03,.04,.08,.07,.06,.12-.03,.07-.09,.02-.14,.01-.32-.05-.38-.04-.5,.12,.19,.03,.4-.03,.59,.2-.39-.04-.61,.13-.69,.49-.09-.16-.02-.31-.06-.44-.1,0-.11,.07-.12,.13-.03,.14-.06,.29-.09,.43-.02,.07-.03,.14-.14,.11-.19-.05-.39-.09-.58-.15-.06-.02-.11-.08-.15,0-.03,.06-.01,.12,.06,.15,.06,.03,.1,.07,.16,.09,.11,.04,.1,.08,.02,.15-.15,.13-.31,.23-.5,.26-.02-.02-.04-.02-.05,0-.02,.04,0,.05,.04,.05,0,0,.02,.02,.03,.02,.02,.08,.07,.07,.12,.04,.03,.02,.07,.02,.1,0,.12,.06,.21-.11,.33-.05-.01,.29-.19,.53-.27,.82,.35-.06,.28-.49,.58-.59,.02,.28,.07,.55-.08,.8,.43-.16,.26-.59,.4-.88,.09,.03,.09,.12,.11,.19,.11,.35,.16,.71,.15,1.07,0,.42-.02,.84,.02,1.25-.2,0-.39-.01-.59-.02-.23-.41-.42-.85-.67-1.25-.55-.9-1.17-1.74-1.93-2.47-.34-.33-.46-.62-.22-1.06,.16-.29,.24-.62,.34-.94,.05-.15,.1-.2,.28-.16,.92,.24,1.84,.43,2.78,.55,1.26,.17,2.53,.24,3.8,.13,1.54-.13,3-.52,4.41-1.16,.02,0,.04-.01,.07-.02,0,.02,0,.03,.02,.04v1.36c-.03,.51-.03,1.02,0,1.52v.34c0,.98-.01,1.97-.01,2.95,0,.38,0,.76,.01,1.14,0,.03,0,.06-.01,.09"/>
            <path class="cls-26" d="M452.13,102.44s0-.06,.01-.09c.04-.07,.02-.15,.02-.23,0-.45,0-.9,0-1.35,.12-.02,.12-.13,.13-.2,.09-.6,.32-1.13,.59-1.67,.47-.95,1.18-1.69,2.07-2.25,.3-.19,.62-.34,.95-.46,.6,.07,1.2,.15,1.81,.18,.79,.03,1.58,0,2.37-.1,.15-.02,.29-.06,.44-.03,.05,0,.09,.01,.12-.03,.04,0,.08,0,.12-.01,.05,.01,.11,0,.16,.03,.65,.38,1.25,.82,1.75,1.38,.18,.2,.38,.4,.45,.68-.03,.03-.06,.07-.09,.1-.01,.01-.03,.02-.04,.04-.47,.66-1.03,1.27-1.35,2.03-.04,.09-.1,.17-.15,.26-.09,0-.11-.08-.13-.15-.28-.85-.85-1.47-1.6-1.92-.77-.46-1.6-.66-2.49-.38-.74,.23-1.4,.59-1.9,1.22-.41,.53-.7,1.11-.77,1.76-.1,.94,.12,1.8,.72,2.57,.67,.85,1.56,1.3,2.61,1.36,.82,.05,1.58-.21,2.24-.73,.1-.08,.18-.2,.33-.19,0,.54,.04,1.08,.02,1.63-.01,.34,.04,.67,.09,1,0,.13-.12,.16-.2,.19-1.12,.47-2.28,.62-3.46,.38-1.48-.3-2.68-1.07-3.6-2.27-.54-.7-.86-1.49-1.03-2.35-.02-.08,0-.2-.14-.21-.01-.07-.02-.13-.04-.2"/>
            <path class="cls-13" d="M460.5,104.26c-.15-.01-.24,.11-.33,.19-.66,.52-1.42,.78-2.24,.73-1.05-.06-1.94-.51-2.61-1.36-.6-.76-.82-1.63-.72-2.57,.07-.65,.35-1.23,.77-1.76,.5-.63,1.16-.99,1.9-1.22,.88-.27,1.72-.07,2.49,.38,.75,.45,1.32,1.07,1.6,1.92,.02,.06,.04,.14,.13,.15-.4,.84-.65,1.73-.86,2.64-.07,.3-.08,.6-.12,.9"/>
            <path class="cls-14" d="M452.17,102.63c.13,.02,.12,.13,.14,.21,.17,.86,.5,1.65,1.03,2.35,.92,1.2,2.12,1.97,3.6,2.27,1.19,.24,2.35,.09,3.46-.38,.09-.04,.2-.06,.21-.19,.1,.49,.2,.98,.3,1.47-.05,0-.09,.02-.14,.02-2.86,0-5.73,0-8.59,0,0-.06-.02-.12-.02-.18,0-1.81,0-3.62,0-5.43,0-.05,0-.09,.01-.14"/>
            <path class="cls-14" d="M455.91,96.2c-.33,.12-.65,.27-.95,.46-.89,.56-1.6,1.29-2.07,2.25-.26,.53-.5,1.07-.59,1.67-.01,.07,0,.18-.13,.2,0-.55,0-1.1,0-1.65,0-.29,.03-.57-.02-.86v-.34c.04-.51,.04-1.02,0-1.52,0-.45,0-.91,0-1.36,.02,0,.02-.02,.02-.03,.27,.11,.54,.22,.81,.33,.91,.38,1.85,.67,2.82,.83,.04,0,.07,.03,.11,.04"/>
            <path class="cls-8" d="M446.25,103c-.29,.15-.58,.29-.87,.44-.23,.13-.45,.27-.63,.47-.21,.25-.17,.44,.11,.61,.4,.23,.82,.4,1.19,.68,.09,.07,.18,.15,.26,.23,.19,.22,.19,.45-.02,.67-.24,.25-.54,.41-.84,.58,0-.08-.07-.09-.14-.09-.46-.01-.87-.17-1.24-.45-.07-.05-.14-.13-.25-.11,.13-.9,.13-1.8,0-2.7,.13,0,.21-.07,.31-.14,.41-.29,.86-.46,1.38-.38,.25,.04,.48,.17,.73,.2"/>
            <path class="cls-9" d="M446.25,103c-.25-.03-.47-.16-.73-.2-.52-.08-.97,.09-1.38,.38-.1,.07-.18,.15-.31,.14-.12-.67-.35-1.32-.57-1.96,.2,0,.39,.01,.59,.02,.07,.04,.14,.03,.22,.03l.37,.07,.06,.02s.04,0,.05,0c.1,.02,.2,.04,.29,.06,.08,.09,.2,.07,.3,.1,.71,.21,1.41,.46,2.09,.77,.03,.01,.05,.03,.11,.07-.39,.18-.74,.34-1.09,.5"/>
            <path class="cls-14" d="M463.12,98.29c-.07-.28-.27-.48-.45-.68-.5-.56-1.1-1-1.75-1.38-.04-.03-.1-.02-.16-.03,.65-.16,1.32-.27,1.96-.47,.45-.13,.45-.13,.63,.3,.18,.41,.35,.81,.53,1.22,.06,.13,.05,.22-.06,.32-.25,.23-.48,.48-.72,.73"/>
            <path class="cls-9" d="M443.84,106.03c.11-.02,.18,.06,.25,.11,.37,.28,.78,.44,1.24,.45,.07,0,.13,0,.14,.09-.7,.42-1.38,.86-2.1,1.22,.04-.38,.24-.71,.3-1.09,.03-.19,.09-.37,.14-.56,.01-.03,.02-.06,.03-.1,0-.04,0-.09,.01-.13"/>
            <path class="cls-14" d="M460.65,96.21s-.08,.04-.12,.03c.03-.04,.08-.04,.12-.03"/>
            <path class="cls-8" d="M443.83,106.17s-.02,.06-.03,.1c0-.04,0-.07,.03-.1"/>
            <path class="cls-18" d="M452.17,95s0,.03-.02,.03c-.01-.01-.02-.02-.02-.04,.02,0,.03,0,.04,0"/>
            <path class="cls-14" d="M462.98,98.43s.03-.02,.04-.04c0,.03-.01,.04-.04,.04"/>
            <path class="cls-24" d="M436.52,122.85c-.11,.11-.07,.26-.05,.37,.08,.47,.02,.94,.04,1.4-.06,0-.12,.02-.18,.03-.66,.12-1.33,.21-2.01,.2,0-.17-.01-.34,.01-.51,.09-.68,.16-1.36,.22-2.04,.04-.41,.05-.81,.1-1.22,.08-.6,.13-1.21,.17-1.81,.14-.03,.29-.06,.43-.08,.76-.12,1.51-.28,2.27-.35,.11,.3-.02,.59-.01,.89,0,.13-.1,.2-.24,.19-.04,0-.08,0-.11,0-.59,0-.89,.31-.89,.9,0,.09,0,.18,0,.28,.03,.26,.06,.52,.09,.77,.01,.33-.07,.67,.14,.97"/>
            <path class="cls-21" d="M437.28,119.92c.14,0,.24-.07,.24-.19,0-.3,.13-.59,.01-.89,.4-.08,.8-.1,1.2-.09,.28,.03,.56,.05,.81,.19,.49,.26,.65,.71,.7,1.23-.11,.27-.34,.37-.6,.41-.37,.06-.72-.03-1.06-.18-.42-.19-.84-.38-1.3-.47"/>
            <path class="cls-20" d="M437.48,122.62c.42,.23,.84,.46,1.27,.69-.02,.15-.03,.29-.04,.44-.52-.2-.99-.48-1.4-.85,.1-.07,.02-.25,.18-.28"/>
            <path class="cls-21" d="M437.48,122.62c-.16,.03-.09,.21-.18,.28-.08-.01-.13-.08-.19-.13-.29-.26-.54-.55-.74-.89-.03-.26-.06-.52-.09-.77,.21,.59,.6,1.04,1.1,1.41,.04,.03,.06,.06,.09,.1"/>
            <path class="cls-27" d="M438.7,123.75c.01-.15,.03-.29,.04-.44,.28,.11,.56,.22,.85,.34-.02,.15-.04,.3-.06,.45-.29-.09-.58-.18-.83-.34"/>
            <path class="cls-24" d="M467.73,124.63c-.03-.61,.04-1.22,.04-1.83,.08-.3,.08-.61,.09-.92,.03-.25,.06-.5,.1-.75,0-.15,.01-.31,0-.46-.04-.44-.25-.63-.79-.75,.06-.34,.05-.68,.05-1.02,.24,.04,.47,.07,.71,.11,.59,.09,1.16,.28,1.76,.31,0,.15,0,.29-.02,.44-.04,.4-.09,.79-.12,1.19-.03,.41-.08,.82-.12,1.24-.04,.51-.08,1.03-.18,1.53-.06,.36,.04,.74-.13,1.09-.47,0-.93-.12-1.4-.18"/>
            <path class="cls-20" d="M467.22,118.9c0,.34,.01,.68-.05,1.02-.45,.02-.86,.17-1.26,.37-.32,.16-.65,.28-1.02,.3-.26,.01-.51-.01-.71-.21,.03-.33,.06-.67,.09-1,.15-.38,.48-.5,.84-.58,.52-.12,1.03,0,1.55,0,.19,.03,.38,.06,.57,.1"/>
            <path class="cls-20" d="M465.49,123.32c.41-.21,.82-.42,1.21-.66,.21-.03,.1,.22,.23,.26-.42,.38-.91,.66-1.43,.87,0-.15,0-.31,0-.46"/>
            <path class="cls-21" d="M466.93,122.92c-.13-.04-.03-.29-.23-.26,.27-.23,.56-.44,.79-.71,.21-.25,.35-.52,.47-.82-.03,.25-.06,.5-.1,.75-.04,.06-.07,.12-.11,.18-.22,.35-.49,.64-.83,.86"/>
            <path class="cls-1" d="M464.9,123.56c.13-.07,.26-.13,.4-.15,0,.14,0,.29,0,.43-.1,.11-.24,.13-.37,.17,0-.15,0-.3-.04-.44"/>
            <path class="cls-27" d="M464.27,119.38c-.03,.33-.06,.67-.09,1-.1-.07-.2-.14-.22-.27,.12-.24,.11-.53,.31-.73"/>
            <path class="cls-27" d="M464.9,123.56c.05,.14,.05,.29,.04,.44-.07,.07-.17,.08-.27,.1-.05-.14,.08-.32-.1-.43,.1-.06,.21-.1,.33-.12"/>
            <path class="cls-27" d="M465.31,123.84c0-.14,0-.29,0-.43,.05-.05,.12-.07,.19-.09,0,.15,0,.31,0,.46-.05,.05-.12,.06-.19,.06"/>
            <path class="cls-20" d="M434.83,119.27c-.04,.61-.1,1.21-.17,1.81-.05,.4-.07,.81-.1,1.22-.06,.68-.13,1.36-.22,2.04-.02,.17,0,.34-.01,.51-.4,0-.8,0-1.2,0-.15-.03-.3-.07-.46-.07-.15,0-.18-.08-.17-.21,.05-.55,.1-1.09,.15-1.64,.06-.58,.12-1.15,.17-1.73,.05-.53,.1-1.06,.14-1.59,.01-.16,.13-.15,.23-.17,.5-.05,.99-.09,1.49-.14,.02,0,.03-.02,.05-.02,.03,0,.06,0,.1-.01"/>
            <path class="cls-18" d="M434.69,119.31c-.5,.05-.99,.09-1.49,.14-.04-.2,0-.4,.04-.6,.85-.07,1.68-.22,2.52-.35,.41-.06,.82-.14,1.23-.21,.5-.03,1-.14,1.51-.13,.12,0,.23,0,.35,0,.02,.2,.03,.41-.09,.59-.4,0-.81,.01-1.2,.09-.76,.07-1.51,.23-2.27,.35-.14,.02-.29,.05-.43,.08-.03,0-.06,0-.1,.01-.02,0-.03,.02-.05,.02"/>
            <path class="cls-18" d="M433.12,124.86c.4,0,.8,0,1.2,0,.68,0,1.34-.08,2.01-.2,.06-.01,.12-.02,.18-.03,.06,.21,.07,.42,0,.62-.73,.09-1.45,.21-2.18,.26-.4-.01-.81,.01-1.21-.05,0-.2,0-.4,0-.6"/>
            <path class="cls-12" d="M431.54,125.18c-.1-.02-.2-.05-.29-.1,0-.2,0-.4,0-.6,.1,.03,.19,.06,.29,.09,0,.2,0,.41,0,.61"/>
            <path class="cls-12" d="M431.43,118.85h.3c0,.2,0,.4,0,.6-.1,0-.2,.03-.29-.03,0-.19,0-.38,0-.57"/>
            <path class="cls-21" d="M469.13,124.81c.17-.35,.07-.73,.13-1.09,.09-.5,.14-1.02,.18-1.53,.03-.41,.08-.83,.12-1.24,.03-.4,.08-.79,.12-1.19,.01-.15,.01-.29,.02-.44l1.33,.13c.35,.06,.7,.04,1.05,.05-.06,.58-.13,1.16-.19,1.75-.08,.74-.18,1.48-.22,2.23-.02,.44-.11,.87-.11,1.31-.12,.04-.25,0-.36,.07-.69,0-1.38,.03-2.06-.05"/>
            <path class="cls-27" d="M472.06,119.5c-.35-.01-.7,.01-1.05-.05,0-.2,0-.4,0-.6,.5,0,1.01,0,1.51,0,0,.2,0,.4,0,.6-.15,.06-.31,.02-.46,.05"/>
            <path class="cls-27" d="M471.19,124.86c.11-.07,.24-.03,.36-.07,.34-.02,.67-.08,.99-.19,.06,0,.11-.02,.17-.03,0,.2,0,.41,0,.61-.25,.06-.49,.13-.74,.19-.25,.03-.51,.05-.76,.08,0-.2-.01-.4-.02-.6"/>
            <path class="cls-18" d="M473.32,118.77v.59c-.16,.09-.34,.04-.52,.07,0-.19,0-.38,0-.57l.52-.08Z"/>
            <path class="cls-12" d="M472.81,118.84c0,.19,0,.38,0,.57-.09,.07-.19,.03-.29,.03,0-.2,0-.4,0-.6l.2-.02s.06,0,.09,.01"/>
            <path class="cls-20" d="M441.82,130.83c-.97-.23-1.92-.52-2.81-.98,.1-.96,.2-1.91,.3-2.87,.1,.03,.24,0,.26,.15,.02,.13,.06,.28-.12,.37,.17,.05,.33,.09,.48,.13-.09-.58-.06-1.16-.12-1.77-.15,.2-.28,.37-.4,.54-.07-.06-.05-.14-.04-.21,.06-.48,.13-.95,.13-1.44,.4,.09,.77,.28,1.16,.38,.59,.15,1.19,.26,1.78,.38-.03,.23-.05,.45-.08,.68-.02,.13-.01,.24,.13,.3-.47-.01-.77,.26-.84,.77-.07,.52,.11,.82,.59,.94-.02,.03-.06,.06-.06,.09-.05,.68-.2,1.36-.19,2.04,0,.19-.03,.35-.14,.5m-.18-4.46q-.14,.03-.27-.06c-.22-.15-.5-.16-.69-.03-.27,.19-.41,.46-.43,.79-.05,.56,.33,.9,.88,.83,.12-.02,.18-.06,.2-.18,.03-.14,.03-.31,.23-.39-.2-.05-.35-.08-.54-.13,.12,.15,.07,.27,.03,.4-.02,.08,0,.2-.14,.21-.12,0-.21-.04-.29-.13-.06-.07-.08-.15-.08-.24,0-.34,.07-.67,.25-.95,.18-.27,.49-.24,.62,.06,.04,.09,.06,.19,.11,.33,.05-.2,.08-.35,.12-.5"/>
            <path class="cls-24" d="M441.82,130.83c.11-.15,.15-.32,.14-.5,0-.69,.14-1.36,.19-2.04,0-.03,.04-.06,.06-.09,.42-.08,.67-.37,.72-.83,.05-.44-.08-.69-.47-.87-.14-.06-.15-.17-.13-.3,.03-.23,.06-.45,.08-.68,.36,.03,.71,.14,1.07,.15,.05,.04,.12,.04,.18,.04,.21,.06,.43,.06,.65,.08,.05,0,.1,.01,.15,.02,.02,.12,.05,.25,.04,.37-.05,.67-.11,1.33-.19,2-.01,.13,.01,.31-.2,.34-.12-.08-.11-.22-.12-.33-.06-.44-.12-.89-.18-1.4-.12,.21-.21,.37-.29,.52-.26,.31-.36,.72-.68,1.01,.13,.06,.25,.08,.43,.06-.21-.08-.13-.18-.09-.3,.06-.18,.2-.09,.31-.11,.05,.01,.09,.02,.14,.03,.01,.01,.03,.03,.04,.04,0,.03,.01,.07,.02,.1-.02,.08-.01,.15,.01,.23-.02,.05-.07,.06-.14,.08,.16,.04,.27,.07,.39,.11,.01,.03,.02,.03,.05,0,.04,0,.09-.01,.13-.02,.08,.1,.12,.21,.11,.34-.04,.44-.04,.89-.11,1.33-.05,.37-.03,.75-.18,1.11-.06-.01-.12-.02-.19-.03-.07-.03-.14-.03-.21-.02-.55-.13-1.09-.25-1.64-.38-.04,0-.07-.03-.11-.04"/>
            <path class="cls-20" d="M438.15,129.39c-.48-.26-.91-.58-1.22-1.03,.03-.34,.07-.69,.1-1.03,.05-.57,.09-1.14,.15-1.7,.07-.65,.17-1.3,.19-1.95,.42,.28,.86,.52,1.31,.75-.05,.05-.04,.11-.05,.17-.03,.3-.07,.6-.1,.9-.15-.04-.3-.08-.46-.12,.13,.22-.25,1.44-.48,1.56,.27,.09,.53,.18,.8,.26-.02,.18-.03,.35-.05,.53-.06,.56-.12,1.12-.18,1.68"/>
            <path class="cls-1" d="M438.61,129.66s-.1-.04-.14-.06c0-.52,.09-1.04,.12-1.56,.01-.29,.13-.57,.03-.86,.02-.11,.11-.2,.08-.33,.09-.11-.01-.22,0-.33,.05-.37,.07-.74,.12-1.1,.04-.3-.03-.61,.11-.89,.1,.04,.19,.08,.29,.12-.07,.61-.13,1.23-.19,1.84-.01,.11-.07,.25,.07,.34-.02,.03-.03,.05-.05,.08-.04,0-.06,.03-.05,.08-.04,.09-.1,.18-.18,.22-.17,.09,0,.09,.03,.13,0,.05,0,.11,0,.16-.08,.72-.15,1.44-.23,2.16"/>
            <path class="cls-27" d="M438.61,129.66c.08-.72,.15-1.44,.23-2.16,0-.05,0-.11,0-.16,.06,0,.13,.02,.22,.03-.14-.15-.04-.25,.02-.36,.06-.1,.14-.06,.22-.03-.1,.96-.2,1.91-.3,2.87-.14-.04-.28-.09-.4-.19"/>
            <path class="cls-24" d="M437.36,123.67c-.02,.66-.12,1.3-.19,1.95-.06,.57-.1,1.14-.15,1.7-.03,.34-.07,.69-.1,1.03-.13-.14-.23-.29-.28-.47,.2-.12,.12-.34,.14-.49,.1-.89,.16-1.78,.25-2.67,.03-.31,.1-.61,.09-.92,0-.09,.02-.19,.14-.21,.03,.03,.06,.05,.1,.08"/>
            <path class="cls-27" d="M438.62,127.18c.1,.29-.02,.57-.03,.86-.03,.52-.12,1.03-.12,1.56-.11-.07-.22-.14-.32-.21,.06-.56,.12-1.12,.19-1.67,.02-.18,.03-.35,.05-.53,.08,0,.16,.07,.24,0"/>
            <path class="cls-27" d="M443.57,131.25c.07,0,.14-.01,.21,.02-.05,.19-.1,.39-.15,.58-.05-.01-.11-.03-.16-.04,.03-.19,.07-.37,.1-.56"/>
            <path class="cls-20" d="M465.14,129.9c-.67,.35-1.38,.57-2.1,.78-.35,.11-.71,.21-1.08,.26-.12-.25-.1-.51-.11-.77-.03-.61-.17-1.22-.13-1.83,.18,.08,.35,.08,.52-.02,.21-.1,.24-.29,.21-.49-.04-.27-.09-.54-.15-.82-.07-.33-.03-.37,.3-.3,0,.02,.01,.04,.02,.06-.02,.03,0,.06,.02,.08,.07,.34,.15,.68,.22,1.02,.02,.1,.05,.21-.06,.3,.18-.04,.35-.08,.54-.12-.19-.12-.48-1.28-.41-1.57-.1,0-.2,0-.29,.05-.24-.02-.45,.1-.71,.14,.33,.18,.26,.46,.3,.71,0,.02,.02,.04,.03,.07,.02,.13,.06,.26,.06,.39,.02,.28-.08,.37-.37,.36-.18-.19-.18-.43-.21-.67,0-.02-.02-.05-.02-.07-.04-.16-.09-.32-.07-.48,0-.06,0-.11,.01-.17,.02-.02,.05-.03,.07-.05,.01,0,.02-.01,.03-.02-.01,0-.02-.01-.04-.02-.05,0-.11,.01-.16,.02-.06-.39-.09-.78-.1-1.18,1.1-.2,2.17-.46,3.23-.8,.03,.41,.06,.82,.09,1.23h0s-.03,0-.05,.01c-.11,.07-.11,.08-.09,.09,.17,.07,.14,.23,.17,.37,.01,.03,.02,.07,.03,.1,0,.02,.01,.05,.02,.07,0,.09,0,.17,0,.26,.05,1,.15,2,.24,3m-2.4-3.98c-.06,.02-.11,.04-.17,.06-.1,.1-.08,.21-.02,.33,0,.01,0,.03,0,.04,.03,.07,.06,.06,.09,0,.06-.13,.12-.27,.18-.4,0-.08-.04-.07-.08-.03m1.44,1.23c-.09,.09-.32-.04-.37,.18-.01,.06,.01,.18,.13,.13,.13-.06,.34,.03,.4-.18,.02-.06,0-.17-.15-.13"/>
            <path class="cls-24" d="M461.73,128.33c-.04,.62,.1,1.22,.13,1.83,.01,.26-.01,.52,.11,.77-.23,.1-.47,.12-.71,.18-.08,.02-.16,.06-.24,.08-.11,0-.22-.03-.33,.04-.23,.04-.45,.07-.68,.11-.19,.03-.38,.06-.57,.08-.18-.79-.12-1.6-.23-2.39-.05-.37-.02-.76-.11-1.13,.02-.04,.04-.08,.05-.12,.08-.08,.07-.15,0-.23-.05-.09-.1-.18-.15-.27,.03-.46,0-.91-.09-1.37,.37-.05,.75-.09,1.12-.14,.22-.03,.45-.07,.67-.1,.11,.02,.21-.04,.32-.06,.15-.02,.3-.04,.45-.06,.01,.39,.04,.79,.1,1.18-.13,.03-.25,.06-.42,.11,.15,.06,.16,.17,.18,.28,.04,.23,.09,.45,.13,.68,.04,.19,.09,.38,.24,.52m-1.46-.31c-.05,.21-.06,.43-.19,.66,.16-.03,.28-.05,.4-.07-.19-.07-.16-.21-.15-.34,.01-.15,.14-.12,.22-.15,.07-.02,.15,0,.23,0,.04,.13,.21,.24,.05,.41,.18-.01,.35-.03,.49-.08-.33-.48-.53-1.02-.85-1.54-.02,.11-.04,.19-.05,.27-.05,.04-.05,.1-.03,.15,0,.03,0,.05-.01,.08-.07,.2-.09,.4-.11,.61m-.88-.42c.02,.05,.04,.1,.01,.16,0,.04,0,.09,.03,.12,.03,.21,.07,.43,.1,.64,.01,.09,.03,.2-.11,.21-.02,.01-.05,.02-.05,.04,0,.04,.04,.04,.06,.03,.04-.04,.09-.03,.15-.02,.04,.05,.07,.04,.09-.01,.02,0,.04,0,.06,0,.07,0,.15,.03,.21-.04-.03-.1-.12-.17-.13-.29-.04-.35-.09-.7-.14-1.05-.01-.11-.03-.21,.09-.29h-.34s-.05,.02-.07,.02c-.04,.01-.09,.02-.15,.04,.1,.05,.19,.1,.15,.22,0,.07-.03,.15,.04,.21"/>
            <path class="cls-20" d="M467.27,128.42c-.33,.49-.81,.79-1.31,1.06-.08-.99-.16-1.98-.25-2.97,.02-.13,0-.25-.04-.37,0-.11-.02-.21,.02-.32,.08-.02,.15,0,.17,.09,.12,.48,.33,.93,.34,1.43-.02,0-.03,0-.05,0,0,0,0,0,.01,0,.01,0,.03,0,.04,0,.15-.04,.3-.08,.46-.12-.13-.04-.16-.14-.18-.24-.09-.33-.18-.66-.28-.98-.04-.12-.05-.23-.01-.35,.01,0,.02,0,.04,0-.01,0-.02,0-.03,0-.17,.04-.33,.08-.5,.13-.02-.1-.05-.2-.06-.29-.02-.35-.04-.69-.1-1.03,.41-.2,.81-.42,1.21-.66,.13,0,.15,.07,.15,.18,0,.26,.03,.52,.05,.78,.06,.67,.12,1.33,.18,2,.05,.56,.06,1.12,.15,1.68"/>
            <path class="cls-27" d="M465.72,126.51c.08,.99,.16,1.98,.25,2.97-.09,.05-.19,.11-.28,.16,.02-.71-.12-1.41-.14-2.11-.19-.13-.19-.36-.25-.55-.04-.11-.02-.17,.1-.2,.15-.03,.26-.14,.32-.27"/>
            <path class="cls-27" d="M465.14,129.9c-.09-1-.19-2-.24-3,0-.08,0-.17,0-.26,.1,.32,.2,.65,.24,.98-.02-.04-.05-.03-.07-.02,0,0-.01,.02-.01,.03,.03,0,.06-.01,.09-.02,.04,0,.09,0,.13-.01,.03,.51,.05,1.03,.11,1.54,.02,.2-.02,.42,.08,.61-.09,.09-.2,.11-.31,.14"/>
            <path class="cls-24" d="M467.27,128.42c-.09-.56-.1-1.12-.15-1.68-.06-.67-.12-1.33-.18-2-.02-.26-.04-.52-.05-.78,0-.11-.03-.18-.15-.18,.05-.07,.12-.1,.19-.14,.17,.09,.13,.26,.14,.4,.06,.91,.13,1.81,.23,2.71,.05,.43,.05,.86,.1,1.29,0,.05,0,.09,.05,.12-.03,.11-.1,.18-.18,.25"/>
            <path class="cls-1" d="M465.45,129.75c-.1-.19-.05-.41-.08-.61-.06-.51-.08-1.02-.11-1.53,.09-.03,.18-.05,.27-.08,.02,.71,.16,1.4,.14,2.11-.08,.04-.15,.07-.23,.11"/>
            <path class="cls-27" d="M460.68,131.23c.1-.07,.22-.04,.33-.04,.04,.18,.08,.37,.12,.55-.11,.02-.23,.04-.34,.06-.04-.19-.07-.38-.11-.57"/>
            <path class="cls-25" d="M466.93,123.64c-.07,.03-.14,.07-.19,.14-.39,.24-.79,.46-1.21,.66-.08,.02-.17,.03-.23,.11-.09,.04-.19,.07-.28,.11-.11,0-.21,.06-.3,.11-1.06,.34-2.14,.61-3.23,.8-.15,.02-.3,.04-.45,.06-.01-.2-.06-.39-.11-.58,.34-.1,.71-.1,1.04-.22,.92-.15,1.83-.37,2.7-.71,.1-.02,.2-.03,.27-.1,.13-.04,.27-.05,.37-.17,.07,0,.13,0,.19-.06,.53-.21,1.01-.49,1.43-.87,.34-.22,.62-.51,.83-.86,.04-.06,.07-.12,.11-.18-.01,.31-.02,.62-.09,.92-.25,.31-.53,.59-.84,.85"/>
            <path class="cls-18" d="M471.19,124.86c0,.2,.01,.4,.02,.6-.62,.07-1.24,.08-1.86,0-.49-.06-.98-.14-1.47-.21-.12-.02-.17-.08-.16-.21,.01-.14,0-.28,0-.42,.46,.06,.92,.19,1.4,.18,.69,.08,1.38,.05,2.06,.05"/>
            <path class="cls-12" d="M459.44,131.43c.19-.03,.38-.06,.57-.08,0,.2,.05,.39,.09,.59-.64,.09-1.28,.17-1.93,.25-.88,.11-1.77,.16-2.65,.22l-1.26,.05c-1.4,.05-2.79,.06-4.19,0-.47-.02-.93-.03-1.4-.05-.86-.07-1.73-.11-2.59-.22-.5-.07-1.01-.11-1.51-.19-.22-.02-.44-.02-.65-.1,.21-.13,.16-.37,.23-.56,.1,.01,.2,.03,.3,.04,.66,.1,1.33,.18,1.99,.24,.84,.08,1.67,.17,2.51,.18,.42,.09,.84,.03,1.26,.05,1.34,.08,2.67,.06,4.01,0,.45,.01,.9,0,1.35-.05,.12,0,.23,0,.35,0,.69-.06,1.38-.11,2.07-.18,.48-.05,.96-.12,1.44-.19"/>
            <path class="cls-18" d="M460.1,131.93c-.04-.2-.1-.39-.09-.59,.23-.04,.45-.07,.68-.11,.04,.19,.07,.38,.11,.57l-.19,.05s-.07,0-.09,.03h0c-.14,.01-.27,.03-.41,.04"/>
            <path class="cls-18" d="M431.43,118.85c0,.19,0,.38,0,.57-.11,0-.21,0-.32-.01-.06-.02-.13-.04-.19-.06,.02-.19,.04-.38,.05-.57,.08,0,.15,0,.23,0,.08,.02,.15,.07,.23,.06"/>
            <path class="cls-21" d="M460.51,131.89s.05-.04,.09-.03c-.03,.01-.06,.02-.09,.03"/>
            <path class="cls-25" d="M437.36,123.67s-.06-.05-.1-.08c-.27-.23-.51-.48-.74-.75-.21-.3-.13-.64-.14-.97,.2,.33,.44,.63,.74,.89,.06,.05,.1,.12,.19,.13,.41,.38,.89,.65,1.4,.85,.25,.17,.54,.26,.83,.34,.84,.33,1.72,.54,2.61,.71,.17,.03,.35,.06,.52,.09,.31,.06,.62,.13,.94,.19-.03,.19-.07,.38-.1,.56-.36,0-.71-.12-1.07-.15-.59-.13-1.19-.24-1.78-.38-.39-.1-.76-.28-1.16-.38-.08-.04-.17-.09-.27-.1-.1-.04-.19-.08-.29-.12-.08-.07-.17-.09-.27-.12-.45-.22-.89-.47-1.31-.75"/>
            <path class="cls-12" d="M460.05,125.79c-.37,.05-.75,.09-1.12,.14-.34-.03-.68,.02-1.01,.06-.92,.1-1.84,.1-2.76,.18-.32,0-.63,0-.95,0-.15,0-.31-.05-.45,.04-1.06,0-2.11,0-3.17,0-.06-.06-.13-.04-.2-.04-.31,0-.62,0-.92,0-.19,0-.37,0-.56,0-.96-.06-1.91-.11-2.87-.19-.52-.04-1.04-.12-1.56-.18-.05,0-.1-.01-.15-.02-.02-.2,.08-.38,.09-.58,.38,.04,.75,.08,1.13,.12,1,.08,2.01,.18,3.02,.2,.21,0,.41,.04,.62,.03,.5,.01,.99,.03,1.49,.04,.96,0,1.92,0,2.89,0,.47-.01,.93-.03,1.4-.04,1.35-.05,2.71-.12,4.05-.28,.31-.03,.62-.06,.93-.09,.03,.2,.06,.4,.1,.6"/>
            <path class="cls-18" d="M471.01,118.85c0,.2,0,.4,0,.6l-1.33-.13c-.6-.03-1.17-.22-1.76-.31-.24-.03-.47-.07-.71-.11-.19-.03-.38-.06-.57-.1-.06-.2-.05-.39,.05-.57,.45,.06,.9,.11,1.35,.17,.43,.13,.88,.16,1.31,.23,.54,.09,1.09,.19,1.64,.21"/>
            <path class="cls-18" d="M444.15,131.34c-.07,.19-.02,.42-.23,.56-.1-.02-.19-.03-.29-.05,.05-.19,.1-.39,.15-.58,.06,.01,.12,.02,.19,.03,.05,.07,.12,.03,.19,.04"/>
            <path class="cls-18" d="M460.05,125.79c-.03-.2-.06-.4-.1-.6,.2-.08,.41-.02,.61-.07,.12,.17,.11,.38,.15,.57-.22,.03-.45,.07-.67,.1"/>
            <path class="cls-27" d="M460.72,125.69c-.04-.19-.03-.4-.15-.57,.11-.08,.24-.06,.37-.07,.05,.19,.1,.39,.11,.58-.11,.01-.21,.07-.32,.06"/>
            <path class="cls-18" d="M444.42,125.2c0,.2-.11,.38-.09,.58-.22-.02-.44-.02-.65-.08l.1-.57c.21,0,.43,.02,.64,.07"/>
            <path class="cls-27" d="M443.79,125.13l-.1,.57c-.06,0-.13,0-.18-.04,.03-.19,.07-.38,.1-.56,.07,0,.13-.03,.19,.04"/>
            <path class="cls-18" d="M431.25,124.49c0,.2,0,.4,0,.6-.18-.05-.36-.1-.51-.21l.05-.58c.16,.06,.31,.12,.47,.18"/>
            <path class="cls-18" d="M473.5,124.29c.04,.19-.05,.39,.06,.58-.17,.12-.37,.17-.56,.23,0-.2,0-.4,0-.6,.17-.07,.34-.13,.5-.2"/>
            <path class="cls-12" d="M473,124.49c0,.2,0,.4,0,.6-.1,.03-.19,.06-.29,.1,0-.2,0-.41,0-.61,.1-.03,.18-.11,.29-.09"/>
            <path class="cls-8" d="M457.22,112.75c-.18,.53-.03,1,.22,1.47,.09,.17,.16,.14,.23,0,.13-.27,.25-.55,.37-.83,.08-.19,.16-.37,.28-.54,.09-.12,.19-.24,.36-.19,.17,.05,.28,.16,.3,.34,.02,.16,.04,.32,.03,.49,0,.29-.02,.57-.04,.86-.05,.55-.36,.9-.84,1.14-.21,.1-.43,.16-.63,.28-.11,.07-.21,.15-.25,.28-.37-.06-.75-.06-1.11-.14-.04-.21-.19-.35-.37-.46-.17-.1-.34-.19-.51-.28-.27-.14-.39-.36-.39-.66,0-.29,0-.57,0-.86,.01-.32,.2-.57,.41-.57,.19,0,.44,.34,.45,.61,0,.24,.04,.47,.15,.69,.03,.06,.05,.15,.12,.15,.1,0,.09-.11,.11-.18,.09-.4,.08-.81,.12-1.22,0-.08,.01-.17,.02-.25,.32-.06,.64-.2,.98-.13"/>
            <path class="cls-9" d="M457.22,112.75c-.34-.07-.65,.08-.98,.13,0-.08,0-.16,0-.24,0-.02,.01-.05,.02-.07,0-.13,.02-.26,.02-.39,0-.03,.01-.05,.02-.08,0-.33,.05-.66,.1-.99,.04-.24,.19-.38,.43-.42,.24-.04,.35,.11,.45,.29,.15,.28,.23,.57,.16,.89-.06,.29-.12,.59-.23,.87"/>
            <path class="cls-9" d="M456.13,115.91c.37,.09,.75,.08,1.11,.14-.01,.41,.05,.82,.11,1.22,.02,.13,0,.17-.14,.16-.3-.02-.6-.03-.91-.04-.13,0-.2-.03-.18-.19,.04-.43,.02-.87,0-1.3"/>
            <path class="cls-8" d="M456.3,112.1s-.01,.05-.02,.08c0-.03,.01-.05,.02-.08"/>
            <path class="cls-8" d="M456.26,112.58s-.01,.05-.02,.07c0-.02,.01-.05,.02-.07"/>
            <path class="cls-8" d="M450.63,115.09c.12,1.97-1.73,4.08-4.2,3.96-1.91-.1-3.89-1.82-3.77-4.22,.09-1.89,1.8-3.93,4.22-3.82,1.9,.09,3.87,1.89,3.75,4.08"/>
            <path class="cls-8" d="M448.89,107.33c.29-.38,.58-.77,.86-1.15,.11-.15,.21-.31,.3-.47,.17-.28,.14-.5-.09-.73-.23-.23-.51-.37-.81-.49-.38-.14-.76-.26-1.14-.39,.24-.39,.63-.54,1.04-.63,1.3-.28,2.46,.83,2.36,2.08-.1,1.18-1.12,2-2.29,1.8-.08-.01-.15-.02-.23-.02"/>
            <path class="cls-8" d="M447.97,102.49c.37-.07,.75-.03,1.12-.02-.37,.06-.75,.01-1.12,.02"/>
            <path class="cls-8" d="M447.64,104.01l-.06-.02,.06,.02"/>
            <path class="cls-8" d="M447.78,104.04s-.02,0-.04-.01c.01,0,.03,0,.04,.01"/>
            <path class="cls-8" d="M447.93,104.08s-.03,0-.05-.01c.02-.02,.04-.01,.05,.01"/>
            <path class="cls-8" d="M444.07,101.42c-.07,0-.15,.01-.22-.03-.04-.42-.02-.84-.02-1.25,0-.37-.04-.73-.15-1.07-.02-.07-.02-.16-.11-.19-.14,.29,.03,.72-.4,.88,.15-.25,.1-.52,.08-.8-.3,.1-.23,.54-.58,.59,.09-.29,.26-.53,.27-.82h0s.05-.03,.07-.05c.02-.04,.04-.12-.02-.1-.13,.04-.29,.06-.37,.2-.03,.03-.07,.03-.1,0-.02-.06-.07-.05-.12-.04-.01,0-.02-.01-.03-.02,0-.02,0-.03,0-.05,.2-.03,.36-.12,.5-.26,.08-.08,.09-.11-.02-.15-.06-.02-.1-.06-.16-.09-.07-.03-.09-.09-.06-.15,.04-.09,.1-.02,.15,0,.19,.05,.39,.09,.58,.15,.11,.03,.12-.04,.14-.11,.03-.14,.06-.29,.09-.43,.01-.06,.02-.12,.12-.13,.04,.13-.03,.28,.06,.44,.08-.36,.3-.53,.69-.49-.18-.23-.4-.17-.59-.2,.13-.16,.19-.17,.5-.12,.05,0,.11,.06,.14-.01,.03-.05-.03-.08-.06-.12-.05-.07-.1-.13-.1-.25,.23,.11,.41,.26,.59,.46,.03-.15,.06-.28,.09-.4,.01-.04,.05-.12,.07-.1,.24,.26,.22-.12,.35-.14,.07-.01,.12-.09,.23-.09-.04,.15-.17,.24-.23,.36-.03,.07-.08,.15-.02,.21,.05,.05,.11-.02,.16-.05,.24-.13,.49-.09,.64,.09,.1,.11,.21,.23,.32,.37-.34-.12-.65-.06-.94,.18,.31,.14,.71,.07,.94,.45-.17-.06-.31-.09-.43-.14-.07-.02-.13-.02-.17,.02-.06,.06,0,.11,.04,.16,.12,.19,.18,.39,.24,.63-.15-.06-.2-.19-.26-.29-.03-.06-.04-.13-.13-.14-.02,0-.04-.03-.05-.02-.03,.02-.01,.05,0,.07,.02,.12,.04,.24,.07,.44-.26-.22-.25-.6-.63-.64,.12,.9-.27,1.73-.38,2.6-.03,.26-.02,.53-.02,.79-.1-.02-.2-.04-.29-.06,.06-.63,.19-1.24,.39-1.84,.14-.43,.22-.87,.2-1.33,0-.1,0-.21-.06-.3-.17,.07-.16,.24-.22,.36-.13,.09-.15,.22-.16,.36-.06,.3-.15,.34-.41,.19-.12-.08-.26-.13-.39-.18-.05-.02-.1-.07-.15-.03-.06,.05,0,.11,.01,.17,.13,.38,.19,.76,.22,1.16,.03,.46,0,.91,.09,1.37m-.01-3.26c.23,.08,.29-.09,.37-.25,.04-.08,.12-.16,.01-.24-.08-.06-.17-.03-.26,0-.21,.07-.23,.3-.38,.41-.04,.03,.02,.08,.07,.08,.06,0,.12,0,.19,0m.54,.16c-.14,.05-.28,.08-.36,.23-.07,.13,.02,.19,.1,.24,.06,.04,.15,.07,.19-.04,.04-.13,.11-.27,.07-.42m1.06-1.05c.19-.03,.37-.05,.59-.08-.36-.15-.52-.13-.59,.08m-1.08,.92c.06,0,.08-.03,.08-.09,0-.04,0-.08-.06-.07-.04,.01-.09,.04-.09,.09,0,.04,.04,.06,.08,.06m1.18,.05s.01-.01,.01-.02,0-.01-.01-.02v.02s0,0,0,0"/>
            <path class="cls-18" d="M452.14,98.26c.05,.28,.02,.57,.02,.86,0,.55,0,1.1,0,1.65,0,.45,0,.9,0,1.35,0,.08,.02,.16-.02,.23,0-.38-.02-.76-.01-1.14,0-.98,0-1.97,.01-2.95"/>
            <path class="cls-18" d="M452.14,96.4c.04,.51,.04,1.02,0,1.52-.03-.51-.03-1.02,0-1.52"/>
            <path class="cls-15" d="M442.62,98.77c.09-.14,.24-.15,.37-.2,.05-.02,.03,.06,.02,.1-.04,0-.06,.01-.07,.05h0c-.12-.06-.21,.1-.33,.04"/>
            <path class="cls-15" d="M442.4,98.73s.1-.02,.12,.04c-.06,.03-.1,.04-.12-.04"/>
            <path class="cls-15" d="M442.38,98.66s0,.03,0,.05c-.04,0-.06-.01-.04-.05,0-.02,.04-.02,.05,0"/>
            <path class="cls-17" d="M444.07,101.42c-.08-.45-.06-.91-.09-1.37-.02-.4-.09-.78-.22-1.16-.02-.06-.07-.12-.01-.17,.05-.04,.1,.01,.15,.03,.13,.06,.27,.11,.39,.18,.25,.16,.35,.12,.41-.19,.08-.11,.18-.21,.16-.36,.06-.12,.04-.28,.22-.36,.06,.09,.05,.2,.06,.3,.03,.46-.06,.9-.2,1.33-.2,.6-.32,1.21-.39,1.84-.02,0-.04,0-.05,0l-.06-.02-.37-.07Z"/>
            <path class="cls-8" d="M444.44,101.49l.06,.02-.06-.02Z"/>
            <path class="cls-24" d="M434.69,119.31s.03-.02,.05-.02c-.02,0-.03,.02-.05,.02"/>
            <path class="cls-10" d="M442.48,126.49c.39,.18,.52,.43,.47,.87-.06,.46-.3,.75-.72,.83-.48-.12-.66-.41-.59-.94,.07-.51,.37-.78,.84-.77m-.56,1.16c.01,.16-.01,.37,.22,.42,.23,.05,.3-.15,.37-.31,.1-.23,.15-.47,.16-.72,0-.18,.02-.39-.2-.44-.24-.06-.32,.15-.39,.32-.1,.23-.15,.47-.16,.73"/>
            <path class="cls-10" d="M441.64,126.36c-.04,.16-.07,.3-.12,.5-.04-.14-.07-.24-.11-.33-.14-.29-.45-.33-.62-.06-.19,.29-.26,.61-.25,.95,0,.08,.03,.17,.08,.24,.07,.09,.17,.13,.29,.13,.13,0,.11-.13,.14-.21,.03-.12,.09-.25-.03-.4,.19,.04,.34,.08,.54,.13-.2,.09-.2,.25-.23,.39-.02,.12-.08,.17-.2,.18-.55,.07-.92-.27-.88-.83,.03-.32,.16-.59,.43-.79,.19-.13,.47-.13,.69,.03q.13,.09,.27,.06"/>
            <path class="cls-10" d="M439.31,126.98c-.08-.04-.16-.07-.22,.03-.07,.11-.17,.21-.02,.36-.09-.01-.16-.02-.22-.03-.03-.04-.2-.03-.03-.13,.08-.05,.14-.13,.18-.22,.02-.03,.04-.05,.05-.08,.02-.03,.03-.05,.05-.08,.12-.13,.21-.27,.29-.43,.13-.17,.25-.34,.4-.54,.06,.61,.03,1.18,.12,1.77-.15-.04-.31-.09-.48-.13,.19-.08,.14-.24,.12-.37-.02-.15-.16-.12-.26-.15m.22-.62c-.11,.16-.18,.27-.25,.37-.07,.09-.04,.12,.06,.16,.17,.06,.25,.03,.22-.16-.02-.1-.01-.19-.02-.36"/>
            <path class="cls-27" d="M439.4,126.4c-.08,.16-.18,.3-.29,.43-.15-.08-.08-.23-.07-.34,.06-.61,.13-1.23,.19-1.84,.1,0,.18,.05,.27,.1,0,.48-.07,.96-.13,1.44,0,.07-.04,.15,.04,.21"/>
            <path class="cls-21" d="M444.15,131.34c-.06-.01-.13,.03-.19-.04,.15-.35,.12-.74,.18-1.11,.06-.44,.07-.89,.11-1.33,.01-.13-.02-.24-.11-.34,0,0-.01-.01,0-.02,.21-.03,.19-.22,.2-.34,.07-.66,.13-1.33,.19-2,0-.12-.03-.24-.04-.37,.52,.06,1.04,.14,1.56,.18,.95,.07,1.91,.13,2.87,.19,.19,.01,.37,0,.56,0-.02,.14-.03,.27-.05,.41-.04,.4-.11,.81-.12,1.21,0,.26-.15,.51,0,.77,0,.03,0,.05,.01,.08-.16,.12-.09,.39-.29,.48,.05,.08,.12,.05,.18,.07-.05,.29-.1,.59-.09,.89-.11,.01-.17,.09-.21,.19-.17,.35-.18,.69,.08,1.01-.01,.18-.04,.35,0,.53-.84-.01-1.68-.1-2.51-.18-.67-.07-1.33-.14-1.99-.24-.1-.01-.2-.03-.3-.04m3.81-3.93c.17,.22,.06,1.46-.13,1.63,.23,.04,.46,.06,.7,.06,.19,0,.33-.09,.39-.27,.06-.18,.06-.36-.1-.49-.09-.07-.11-.11,0-.18,.15-.1,.17-.25,.13-.41-.04-.18-.16-.26-.33-.28-.21-.03-.42-.04-.67-.07m-3.13-.41c.14,.22-.06,1.47-.24,1.6,.88,.2,1.22,.04,1.29-.65,.09-.78-.28-.9-1.05-.95m2.5,1c0-.13-.03-.28-.1-.42-.2-.37-.67-.44-.96-.14-.28,.29-.35,.84-.16,1.2,.2,.37,.67,.43,.96,.12,.19-.2,.25-.46,.26-.75"/>
            <path class="cls-10" d="M444.13,128.5s0,.02,0,.02c-.04,0-.09,.01-.13,.02-.01,0-.03,0-.05,0-.12-.03-.24-.06-.39-.11,.07-.02,.12-.04,.14-.08,.04-.08,.04-.15-.01-.23,0-.03-.01-.07-.02-.1,0-.03,0-.07-.04-.04-.05-.01-.09-.02-.14-.03-.06-.07,.01-.06,.04-.07,.03,0,.07,0,.1,0,.04,0,.05,0,.03-.04,0-.05-.01-.1-.02-.14,.04-.05,.04-.09-.01-.13-.01-.06-.02-.12-.03-.18,.02-.07-.06-.06-.07-.11,.09-.15,.17-.3,.29-.52,.07,.52,.12,.96,.18,1.4,.02,.12,0,.25,.12,.34"/>
            <path class="cls-25" d="M443.54,127.28s.09,.04,.07,.11c-.1,.04-.1,.15-.16,.21-.13,.15-.08,.23,.1,.27-.03,.02-.1,0-.04,.07-.11,.02-.25-.07-.31,.11-.04,.11-.12,.22,.09,.3-.17,.02-.29,0-.43-.06,.32-.29,.42-.7,.68-1.01"/>
            <path class="cls-25" d="M443.7,128.12c.05,.07,.05,.15,.01,.23-.02-.07-.03-.15-.01-.23"/>
            <path class="cls-25" d="M443.64,127.98c.05-.03,.04,0,.04,.04-.01-.01-.03-.03-.04-.04"/>
            <path class="cls-21" d="M443.97,128.53s.03,0,.05,0c-.02,.03-.03,.02-.05,0"/>
            <path class="cls-27" d="M438.67,124.42c.09,.03,.19,.05,.27,.12-.14,.28-.07,.59-.11,.89-.05,.37-.07,.73-.12,1.1-.01,.11,.09,.22,0,.33-.12,.04-.16,.21-.32,.19,0-.08,.02-.17,.03-.25,.02-.41,.11-.81,.1-1.22,.06-.02,.05-.05,0-.08,.03-.3,.07-.6,.1-.9,0-.06,0-.12,.05-.17"/>
            <path class="cls-10" d="M438.38,127.05c.16,.02,.2-.15,.32-.19,.03,.12-.07,.21-.08,.33-.08,.08-.16,0-.24,0-.26-.09-.53-.17-.8-.26,.23-.12,.61-1.34,.48-1.56,.16,.04,.31,.08,.46,.12,.05,.03,.05,.06,0,.08-.1,.03-.11,.12-.13,.2-.1,.3-.19,.6-.28,.91-.09,.3-.06,.35,.28,.36"/>
            <path class="cls-27" d="M439.05,126.91s-.04,.05-.05,.08c0-.04,0-.07,.05-.08"/>
            <path class="cls-10" d="M465.54,127.53c-.09,.03-.18,.05-.27,.08-.04,0-.09,0-.13,.01h0c-.04-.33-.13-.66-.24-.98,0-.02-.01-.05-.02-.07,0-.03-.02-.07-.03-.1-.03-.13,0-.29-.17-.37-.03-.01-.02-.02,.09-.09,.02,0,.03-.01,.05-.02h0c.11,0,.21-.02,.31-.07,.09,0,.19,0,.28,0,.12,.04,.2,.13,.27,.22,.03,.12,.05,.24,.04,.37-.07,.14-.17,.24-.32,.27-.12,.03-.14,.09-.1,.2,.06,.19,.06,.41,.25,.55m-.1-1.08c-.04-.12-.03-.29-.18-.39-.05-.03-.1-.05-.15-.02-.06,.03-.04,.09-.02,.14,.03,.11,.05,.23,.09,.34,.03,.07-.01,.22,.13,.19,.12-.02,.14-.13,.14-.26"/>
            <path class="cls-10" d="M461.73,128.33c-.15-.14-.2-.32-.24-.52-.04-.23-.09-.45-.13-.68-.02-.11-.03-.22-.19-.28,.17-.04,.29-.07,.42-.11,.05,0,.11-.01,.16-.02,0,.01,0,.02,0,.04-.03,.02-.05,.03-.07,.05-.08,.05-.07,.11-.01,.17-.02,.17,.04,.32,.07,.48,0,.02,.02,.05,.02,.07,.03,.23,.03,.48,.21,.67,.06,.12,.21-.01,.28,.1-.17,.1-.34,.1-.52,.02"/>
            <path class="cls-10" d="M462.65,126.54c.09-.05,.19-.05,.29-.05-.07,.29,.22,1.45,.41,1.57-.19,.04-.37,.08-.54,.12,.11-.09,.08-.2,.06-.3-.07-.34-.15-.68-.22-1.02,.01-.03,0-.06-.02-.08,0-.02-.01-.04-.02-.06,0-.06-.06-.13,.04-.17"/>
            <path class="cls-27" d="M465.13,125.92c-.1,.05-.2,.07-.31,.08-.03-.41-.06-.82-.09-1.23,.1-.05,.19-.1,.3-.11,.03,.42,.07,.84,.1,1.26"/>
            <path class="cls-25" d="M462.65,126.54c-.1,.03-.05,.11-.04,.17-.33-.07-.37-.03-.3,.3,.05,.27,.11,.54,.15,.82,.03,.2,0,.39-.21,.49-.06-.11-.22,.02-.28-.1,.29,.01,.38-.07,.37-.36,0-.13-.04-.26-.06-.39,0-.02-.02-.04-.03-.07-.04-.25,.03-.53-.3-.71,.26-.05,.47-.17,.71-.14"/>
            <path class="cls-10" d="M464.18,127.14c.15-.04,.17,.07,.15,.13-.05,.21-.26,.12-.4,.18-.11,.05-.14-.07-.13-.13,.05-.22,.28-.09,.37-.18"/>
            <path class="cls-10" d="M462.83,125.95c-.06,.13-.12,.27-.18,.4-.03,0-.06,0-.09,0,0-.01,0-.03,0-.04l.02-.33c.06-.02,.11-.04,.17-.06,.03,.01,.06,.02,.08,.03"/>
            <path class="cls-12" d="M462.57,125.98l-.02,.33c-.06-.11-.08-.22,.02-.33"/>
            <path class="cls-24" d="M461.66,126.99c-.05-.06-.06-.12,.01-.17,0,.06,0,.11-.01,.17"/>
            <path class="cls-12" d="M462.56,126.34s.06,0,.09,0c-.03,.05-.06,.07-.09,0"/>
            <path class="cls-12" d="M462.83,125.95s-.06-.02-.08-.03c.05-.04,.08-.04,.08,.03"/>
            <path class="cls-27" d="M464.85,126.47s.02,.07,.03,.1c0-.03-.02-.07-.03-.1"/>
            <path class="cls-25" d="M462.63,126.77s.03,.05,.02,.09c-.03-.02-.04-.05-.02-.09"/>
            <path class="cls-27" d="M464.81,125.99s-.03,.01-.05,.02c.02,0,.03-.01,.05-.02"/>
            <path class="cls-24" d="M462.24,127.4s.02,.04,.03,.07c0-.02-.02-.04-.03-.07"/>
            <path class="cls-24" d="M461.75,126.77s0-.02,0-.04c.01,0,.02,.01,.04,.02-.01,0-.02,.01-.03,.02"/>
            <path class="cls-24" d="M461.76,127.54s-.02-.05-.02-.07c0,.02,.02,.05,.02,.07"/>
            <path class="cls-21" d="M455.15,126.16c.92-.07,1.84-.08,2.76-.18,.33-.04,.67-.09,1.01-.06,.08,.45,.12,.91,.09,1.37-.29-.17-.59-.03-.9-.02,.2,.17,.34,1.42,.2,1.63,.17-.02,.34-.04,.55-.07-.26-.12-.17-.35-.22-.52-.04-.14,0-.22,.16-.23,.13,0,.21-.09,.29-.18,.09,.37,.05,.75,.11,1.13,.11,.79,.05,1.6,.23,2.39-.48,.06-.96,.14-1.44,.19-.69,.07-1.38,.12-2.07,.18-.12,0-.23,0-.35,0,0-.29,.04-.59-.11-.86,0-.03,0-.06,0-.09,.02-.47-.06-.93-.04-1.4,0-.12,.04-.2,.14-.25,.2-.05,.38-.11,.5-.3,.36-.62,0-1.32-.7-1.36-.09-.02-.11-.08-.12-.16-.08-.4-.02-.81-.09-1.21m2.47,2.12c0-.2-.04-.39-.14-.56-.13-.22-.32-.36-.59-.34-.27,.02-.44,.18-.53,.42-.12,.35-.08,.69,.12,1,.17,.25,.42,.33,.69,.25,.27-.09,.44-.39,.44-.77"/>
            <path class="cls-10" d="M459.1,127.91c-.08,.08-.17,.17-.29,.18-.15,.01-.2,.09-.16,.23,.05,.17-.04,.4,.22,.52-.21,.03-.38,.05-.55,.07,.14-.21,0-1.46-.2-1.63,.32-.01,.61-.15,.9,.02,.05,.09,.1,.18,.15,.27,0,.08,0,.16,0,.23-.02,.04-.04,.08-.05,.12m-.24-.17c-.01-.11-.02-.23-.08-.33-.04-.06-.1-.1-.18-.08-.09,.02-.05,.1-.05,.15,.01,.14,.03,.27,.05,.41,0,.05,0,.12,.07,.12,.06,0,.1-.03,.13-.08,.04-.06,.05-.13,.05-.2"/>
            <path class="cls-10" d="M459.4,127.76c.03-.06,0-.11-.01-.16,0-.07,.01-.15-.04-.21,.04-.13-.05-.17-.15-.22,.06-.02,.1-.03,.15-.04,.02,0,.05-.02,.07-.02h.34c-.12,.07-.1,.18-.09,.29,.05,.35,.11,.7,.14,1.05,.01,.12,.11,.18,.13,.29-.07,0-.15-.01-.21,.04-.02,0-.04,0-.06,0-.03,0-.06,0-.09,.01-.05-.01-.1-.02-.15,.02,0-.02-.01-.04-.02-.07,.15,0,.12-.12,.11-.21-.03-.21-.06-.43-.1-.64,0-.04,0-.09-.03-.12"/>
            <path class="cls-10" d="M460.42,127.18c.02-.08,.03-.16,.05-.27,.31,.52,.52,1.06,.85,1.54-.15,.05-.31,.07-.49,.08,.16-.17-.01-.28-.05-.41-.03-.09-.15-.02-.19-.1,.09,0,.12-.05,.07-.13-.06-.1-.11-.21-.17-.32,0-.08-.08-.1-.12-.16,0-.03,0-.05,.01-.08,.04-.05,.04-.1,.03-.15"/>
            <path class="cls-25" d="M460.59,128.02c.04,.08,.16,0,.19,.1-.08,0-.16,0-.23,.01-.09,.02-.21,0-.22,.14,0,.13-.04,.27,.15,.34-.12,.02-.24,.04-.4,.07,.13-.23,.14-.45,.19-.66,.04,0,.08,0,.11,0,.07,0,.14,0,.21,0"/>
            <path class="cls-18" d="M460.38,128.02s-.08,0-.11,0c.01-.21,.04-.41,.11-.61,.04,.06,.11,.08,.12,.16-.12,.13-.09,.3-.11,.45"/>
            <path class="cls-21" d="M459.15,127.79c0-.08,0-.16,0-.23,.07,.08,.07,.16,0,.23"/>
            <path class="cls-21" d="M459.35,127.39c.05,.06,.04,.14,.04,.21-.07-.06-.04-.14-.04-.21"/>
            <path class="cls-21" d="M459.73,128.76c.06-.05,.14-.04,.21-.04-.06,.07-.14,.04-.21,.04"/>
            <path class="cls-18" d="M460.42,127.18c.01,.05,.01,.11-.03,.15-.02-.06-.02-.11,.03-.15"/>
            <path class="cls-21" d="M459.4,127.76s.04,.08,.03,.12c-.04-.03-.04-.08-.03-.12"/>
            <path class="cls-21" d="M459.42,128.73s.01,.05,.02,.07c-.03,0-.06,.01-.06-.03,0-.01,.03-.02,.05-.04"/>
            <path class="cls-21" d="M459.58,128.78s.06,0,.09-.01c-.02,.05-.05,.06-.09,.01"/>
            <path class="cls-21" d="M459.42,127.1s-.05,.02-.07,.02c.02,0,.05-.02,.07-.02"/>
            <path class="cls-10" d="M465.69,125.77c.17-.04,.33-.08,.5-.13h0c-.03,.12-.02,.23,.01,.35,.1,.33,.19,.65,.28,.98,.03,.1,.05,.2,.18,.24-.15,.04-.3,.08-.46,.12h0c-.01-.5-.23-.95-.34-1.43-.02-.08-.09-.1-.17-.08,0,0,0-.01,0-.02,0-.01,0-.02,0-.03"/>
            <path class="cls-27" d="M465.69,125.77s0,.02,0,.03c0,0,0,.01,0,.02-.04,.1,0,.21-.02,.32-.07-.1-.16-.18-.27-.22,0-.46-.05-.91-.1-1.37,.06-.07,.15-.08,.23-.11,.05,.34,.08,.69,.1,1.03,0,.1,.04,.2,.06,.29"/>
            <path class="cls-10" d="M466.2,127.33s-.03,0-.04,0c0,0,0,0-.01,0,.02,0,.03,0,.05,0,0,0,0,0,0,0"/>
            <path class="cls-10" d="M466.19,125.64s.02,0,.03,0c-.01,0-.02,0-.04,0h0Z"/>
            <path class="cls-10" d="M465.13,127.62s-.06,.01-.09,.02c0,0,0-.03,.01-.03,.03-.01,.06-.02,.07,.02,0,0,0,0,0,0"/>
            <path class="cls-1" d="M465.31,124.55c.05,.45,.1,.91,.1,1.37-.09,0-.19,0-.28,0-.03-.42-.07-.84-.1-1.26,.09-.04,.19-.07,.28-.11"/>
            <path class="cls-20" d="M450.58,126.21c1.06,0,2.11,0,3.17,0,.01,.06,.04,.12,.04,.18,.01,.35,.04,.69,.09,1.03,0,.06,0,.12-.06,.16-.31,0-.53,.14-.65,.43-.09,.22-.1,.44-.05,.66,.1,.5,.4,.69,.9,.58,0,.28,.08,.55,.06,.82-.24,.07-.35,.23-.32,.48,.02,.18,.1,.3,.29,.33,.06,0,.14-.05,.17,.02,.03,.08-.03,.14-.08,.2-.04,.05-.07,.09-.11,.14-.04,.03-.04,.07,.01,.08,.06,.02,.08-.03,.09-.08,.02,0,.03,0,.05,0,0,.2,.08,.4,.05,.6-1.34,.06-2.67,.08-4.01,0-.17-.14-.09-.33-.09-.51,.06-.03,.14,.03,.18-.05,0-.25,0-.51,0-.76,0-.15,.05-.31-.04-.45h0c0-.23,.08-.46,.05-.69,0-.08,.04-.13,.1-.17h0c.17,.1,.33,.08,.51,.02-.08-.25-.06-.49-.01-.74,.16,.18,.24,.39,.35,.59,.04,.07,.07,.16,.18,.15,.29-.02,.58,.06,.89,.02-.2-.18-.09-.41-.11-.61,0-.04,0-.08,.04-.1,.06-.02,.08,.04,.1,.07,.07,.13,.15,.26,.2,.39,.09,.24,.24,.32,.5,.23-.16-.17-.23-.39-.35-.57-.07-.11-.08-.18,.04-.27,.16-.12,.16-.31,.12-.49-.05-.18-.17-.28-.36-.28-.23,0-.46,0-.71,0,.08,.06,.12,.12,.12,.22,0,.4,0,.79,0,1.19,0,.07,0,.14-.09,.17-.09,.03-.15-.01-.2-.08-.09-.15-.16-.32-.25-.47-.07-.11-.08-.19,.05-.28,.17-.12,.17-.32,.11-.51-.06-.19-.2-.25-.4-.26-.21,0-.42-.03-.62-.04,.07-.45,.11-.9,.09-1.35m2.18,5.03s-.01-.03-.01-.05c0-.25,0-.51,0-.76q0-.38-.35-.21s-.02,.02-.03,.03c.04,.04,.08,.08,.12,.11-.03,.26-.04,.52,0,.79,0,.03-.01,.06-.02,.09-.05,.03-.11,.06-.19,.1h.62s0-.02,0-.03l-.13-.05v-.02Zm-.98,.06c.27-.1,.26-.34,.27-.56,0-.23,0-.47-.24-.61-.14-.08-.28-.08-.39,.05-.2,.23-.21,.82-.01,1.05,.04,.05,.08,.07,.14,.06,.07,.15,.15,.14,.23,0m1.57-.3c.05,0,.11,0,.16,0,.07,0,.12-.01,.12-.1s-.06-.09-.12-.09c-.11,0-.21,0-.32,0-.05,0-.08,.03-.09,.08,0,.06,.02,.1,.09,.11,.05,0,.11,0,.16,0m-2.48,0h0s.08,0,.11,0c.07,0,.16,.02,.16-.11,0-.11-.09-.08-.15-.09-.1,0-.2,0-.3,0-.06,0-.08,.04-.08,.09,0,.05,.01,.09,.07,.1,.06,0,.12,0,.18,0m2.84,.35c.13,.04,.19,.05,.21-.07-.06,.02-.11,.04-.21,.07"/>
            <path class="cls-24" d="M454.08,130.07c.03-.28-.05-.55-.06-.82,.05-.04,.1-.08,.14-.12,.47-.46,.28-1.36-.33-1.55,.06-.04,.07-.1,.06-.16-.05-.34-.08-.68-.09-1.03,0-.06-.03-.12-.04-.18,.14-.09,.3-.04,.45-.04,.32,0,.63,0,.95,0,.07,.4,.01,.81,.09,1.21,.02,.08,.03,.15,.12,.16-.13,.01-.27,.03-.41,.05,.17,.18,.24,1.42,.1,1.62h.51c-.11,.05-.14,.13-.14,.25-.02,.47,.06,.94,.04,1.4,0-.13-.21-.2-.14-.34,.08-.16,.1-.3-.06-.39-.18-.1-.34-.07-.46,.12-.02,.02-.04,.04-.02,.07h-.03s0,.01,.01,.01c0,0,.01,0,.01-.02,.02-.01,.03-.03,.05-.04,.12-.01,.24-.04,.3,.11,.07,.18-.08,.24-.2,.32,.05,.03,.09,.05,.13,.08,.15,.1,.25,.24,.15,.41-.11,.18-.24,.05-.35-.02-.06-.04-.13-.08-.18,0-.05,.09,.02,.14,.1,.17,.28,.11,.55-.05,.68-.4,.15,.27,.1,.57,.11,.86-.45,.04-.9,.06-1.35,.05,.03-.2-.05-.4-.05-.6,.14-.09,.25-.2,.32-.36,.18-.42,0-.77-.41-.82"/>
            <path class="cls-24" d="M450.58,126.21c.01,.45-.02,.91-.09,1.35,0,0-.01,0-.02,.01s-.01,0-.02,.01c.15,.07,.13,.21,.13,.34,0,.32-.03,.65-.02,.97,0,.14-.04,.25-.15,.33-.06,.04-.11,.09-.1,.17,.03,.23-.06,.45-.05,.68-.15,.04-.28,.1-.43,.2,.11,.01,.17,.03,.17,.12,0,.26,.05,.54-.02,.78-.06,.22,.06,.14,.14,.17,0,.17-.08,.36,.09,.51-.42-.01-.84,.04-1.26-.05-.04-.18,0-.35,0-.53,.31,.14,.51,.05,.59-.27,.04-.18,.05-.35,.01-.53-.07-.31-.15-.38-.47-.39,0-.3,.04-.6,.09-.89,.07-.02,.15,.03,.22-.04-.17-.16-.15-.31,.02-.45,.06,0,.13,0,.19,.01,.06,.01,.13,.03,.19,.04,0,.02,.02,.04,.03,.06,0,0-.01,.01,0,.01,0,0,.01,.02,.02,.03,.01,.11,.1,.22-.07,.33,.2,.02,.35,.03,.51,.04-.24-.55-.29-1.15-.52-1.74-.14,.35-.27,.66-.39,.96-.03,0-.04,.02-.03,.05-.02,.02-.03,.04-.05,.06-.14-.26,0-.51,.01-.77,.01-.4,.08-.81,.12-1.21,.01-.14,.03-.27,.05-.41,.31,0,.61,0,.92,0,.07,0,.14-.02,.2,.04"/>
            <path class="cls-17" d="M444.06,98.16c-.07,0-.13,0-.19,0-.05,0-.11-.05-.07-.08,.15-.12,.17-.34,.38-.41,.09-.03,.18-.06,.26,0,.11,.08,.03,.16-.01,.24-.07,.15-.14,.33-.37,.25"/>
            <path class="cls-17" d="M444.6,98.32c.04,.16-.03,.29-.07,.42-.03,.11-.12,.08-.19,.04-.08-.05-.17-.11-.1-.24,.08-.15,.22-.18,.36-.23"/>
            <path class="cls-17" d="M445.66,97.27c.07-.21,.23-.23,.59-.08-.22,.03-.4,.06-.59,.08"/>
            <path class="cls-15" d="M444.86,98.4c.02,.15-.08,.25-.16,.36,0-.14,.03-.27,.16-.36"/>
            <path class="cls-15" d="M444.59,98.2s-.08-.02-.08-.06c0-.05,.05-.08,.09-.09,.05-.01,.06,.03,.06,.07,0,.05-.02,.09-.08,.09"/>
            <path class="cls-17" d="M442.94,98.72s.03-.05,.07-.05c-.02,.02-.02,.06-.07,.05"/>
            <path class="cls-17" d="M445.77,98.25s0,0-.02,0v-.02s.03,.01,.03,.02,0,.01-.01,.02"/>
            <path class="cls-17" d="M445.81,98.37s-.03-.05,0-.07c0,0,.03,.01,.05,.02-.02,.02-.03,.04-.05,.05"/>
            <path class="cls-24" d="M441.91,127.65c0-.26,.06-.51,.16-.73,.07-.17,.15-.38,.39-.32,.22,.05,.21,.27,.2,.44-.01,.25-.06,.49-.16,.72-.07,.16-.14,.36-.37,.31-.23-.05-.21-.26-.22-.42"/>
            <path class="cls-24" d="M439.53,126.36c0,.17,0,.27,.02,.36,.03,.2-.05,.22-.22,.16-.1-.03-.12-.07-.06-.16,.08-.1,.14-.21,.25-.37"/>
            <path class="cls-10" d="M447.96,127.41c.25,.02,.46,.04,.67,.07,.17,.02,.29,.11,.33,.28,.04,.16,.02,.32-.13,.41-.11,.07-.09,.11,0,.18,.17,.13,.17,.31,.1,.49-.06,.18-.2,.27-.39,.27-.23,0-.46-.02-.7-.06,.19-.17,.3-1.41,.13-1.63m.67,1.19s0-.06-.01-.1c-.03-.12-.11-.2-.23-.19-.13,0-.08,.13-.09,.2-.02,.09-.03,.18-.03,.28,0,.08-.04,.18,.08,.22,.1,.03,.18-.04,.23-.12,.05-.07,.06-.16,.06-.28m-.29-.64c.03,.07-.08,.19,.07,.22,.12,.02,.2-.06,.24-.18,.04-.11,.04-.23-.02-.33-.04-.07-.11-.11-.19-.1-.08,.02-.06,.1-.07,.15-.01,.08-.01,.15-.02,.24"/>
            <path class="cls-10" d="M444.84,127c.77,.05,1.14,.16,1.05,.95-.07,.69-.42,.85-1.29,.65,.18-.13,.38-1.37,.24-1.6m.76,.65c-.02-.18,0-.37-.21-.48-.07-.03-.15-.07-.17,.06-.06,.4-.12,.79-.18,1.19-.03,.19,.09,.19,.22,.15,.11-.04,.16-.14,.2-.24,.09-.22,.12-.45,.14-.69"/>
            <path class="cls-10" d="M447.34,128c0,.3-.08,.55-.26,.75-.29,.31-.75,.26-.96-.12-.19-.35-.12-.91,.16-1.2,.29-.3,.76-.23,.96,.14,.07,.14,.1,.29,.1,.42m-.31-.05c0-.09,0-.19-.02-.28-.02-.15-.06-.31-.24-.33-.18-.02-.26,.12-.31,.26-.12,.32-.16,.65-.11,.98,.02,.13,.07,.24,.22,.27,.15,.02,.23-.07,.29-.19,.12-.23,.14-.47,.17-.72"/>
            <path class="cls-10" d="M449.82,128.82s-.02-.04-.03-.06c-.04-.1-.11-.08-.19-.04-.06,0-.13,0-.19-.01-.04-.02-.08-.04-.12-.06,0-.03,0-.05-.01-.08,.02-.02,.03-.04,.05-.06,0-.02,.02-.03,.03-.05,.12-.31,.25-.61,.39-.96,.23,.6,.28,1.19,.52,1.74-.16-.01-.31-.03-.51-.04,.16-.1,.08-.22,.07-.33,0,0,0-.01,0-.01,0,0-.01-.02-.02-.03m-.08-.32c-.03-.12-.07-.25-.12-.44-.08,.18-.13,.31-.18,.43,0,.01-.02,.03-.02,.04,.06,.18,.21,.07,.32,.09,.07-.04,.04-.08,0-.13"/>
            <path class="cls-10" d="M449.09,130.07c.32,.02,.4,.09,.47,.39,.04,.18,.03,.36-.01,.53-.08,.32-.28,.42-.59,.27-.26-.32-.25-.66-.08-1.01,.04-.09,.1-.17,.21-.19m.23,.64c0-.15-.02-.31-.03-.47,0-.06-.04-.12-.12-.11-.06,0-.09,.06-.09,.12-.04,.31-.04,.62,0,.92,0,.06,.03,.11,.1,.11,.08,0,.11-.05,.12-.12,.02-.15,.02-.29,.03-.45"/>
            <path class="cls-25" d="M449.3,128.63s.08,.04,.12,.06c-.17,.14-.19,.29-.02,.45-.07,.07-.15,.02-.22,.04-.05-.02-.13,0-.18-.07,.2-.09,.13-.36,.29-.48"/>
            <path class="cls-21" d="M443.54,127.87c-.17-.04-.22-.13-.09-.27,.06-.07,.06-.18,.16-.21,.01,.06,.02,.12,.03,.18,0,.04,0,.08,.01,.13,0,.05,.01,.1,.02,.14,0,.01-.02,.03-.03,.04-.03,0-.06,0-.1,0"/>
            <path class="cls-25" d="M443.65,127.7s0-.08-.01-.13c.05,.04,.05,.08,.01,.13"/>
            <path class="cls-25" d="M443.64,127.88s.02-.03,.03-.04c.02,.03,0,.04-.03,.04"/>
            <path class="cls-20" d="M438.38,127.05c-.34-.02-.37-.06-.28-.36,.09-.3,.18-.61,.28-.91,.02-.08,.03-.17,.13-.2,0,.41-.08,.81-.1,1.22,0,.08-.02,.17-.03,.25"/>
            <path class="cls-27" d="M465.44,126.45c0,.13-.02,.24-.14,.26-.15,.03-.1-.12-.13-.19-.04-.11-.06-.22-.09-.34-.01-.05-.04-.11,.02-.14,.05-.03,.11,0,.15,.02,.15,.1,.14,.26,.18,.39"/>
            <path class="cls-10" d="M455.57,129.19h-.51c.14-.2,.06-1.44-.1-1.62,.14-.02,.27-.03,.41-.05,.7,.04,1.06,.74,.7,1.36-.11,.19-.3,.25-.5,.3m-.19-1.18h0c.02,.27,.03,.54,.05,.81,0,.1-.04,.25,.12,.26,.14,.01,.22-.1,.26-.23,.08-.32,.07-.64-.04-.96-.02-.07-.08-.13-.13-.19-.05-.06-.14-.08-.21-.06-.09,.03-.04,.12-.05,.18,0,.06,0,.12,0,.19"/>
            <path class="cls-10" d="M457.62,128.28c0,.38-.17,.69-.44,.77-.27,.09-.52,0-.69-.25-.21-.31-.25-.65-.12-1,.09-.25,.25-.4,.53-.42,.27-.02,.46,.12,.59,.34,.1,.17,.14,.36,.14,.56m-.32,.1c-.02-.25-.03-.51-.15-.74-.05-.1-.13-.18-.25-.17-.12,0-.19,.08-.22,.18-.11,.42-.09,.83,.13,1.21,.11,.2,.34,.16,.43-.04,.06-.14,.06-.29,.06-.43"/>
            <path class="cls-10" d="M454.8,130.24c.11-.19,.28-.22,.46-.12,.16,.09,.15,.23,.06,.39-.07,.14,.13,.21,.14,.34,0,.03,0,.06,0,.09-.13,.34-.4,.5-.68,.4-.08-.03-.15-.07-.1-.17,.05-.08,.12-.05,.18,0,.11,.08,.24,.21,.35,.02,.1-.17,0-.31-.15-.41-.04-.02-.08-.05-.13-.07,.12-.09,.27-.15,.2-.32-.06-.14-.18-.12-.3-.11,0,0-.02-.02-.03-.03"/>
            <path class="cls-21" d="M458.86,127.74c0,.07-.01,.14-.05,.2-.03,.05-.07,.08-.13,.08-.08,0-.06-.07-.07-.12-.02-.14-.04-.27-.05-.41,0-.05-.04-.13,.05-.15,.07-.02,.14,.02,.18,.08,.06,.1,.07,.22,.08,.33"/>
            <path class="cls-21" d="M460.38,128.02c.03-.15,0-.32,.11-.45,.06,.11,.11,.21,.17,.32,.05,.09,.02,.12-.07,.13-.07,0-.14,0-.21,0"/>
            <path class="cls-10" d="M450.41,129.22c.11-.09,.15-.19,.15-.33,0-.32,.02-.65,.02-.97,0-.13,.02-.26-.13-.34,0,0,0,0,.02-.01,0,0,.01,0,.02-.01,.21,.02,.42,.04,.62,.04,.19,0,.33,.07,.4,.26,.06,.19,.06,.39-.11,.51-.13,.1-.11,.17-.05,.28,.09,.15,.16,.32,.25,.47,.04,.07,.1,.12,.2,.08,.08-.03,.09-.1,.09-.17,0-.4,0-.79,0-1.19,0-.1-.04-.16-.12-.22,.25,0,.48,0,.71,0,.18,0,.31,.11,.36,.28,.05,.18,.05,.37-.12,.49-.12,.09-.11,.16-.04,.27,.12,.19,.18,.41,.35,.57-.26,.08-.41,0-.5-.23-.05-.14-.13-.26-.2-.39-.02-.04-.04-.1-.1-.07-.04,.02-.04,.06-.04,.1,.03,.2-.09,.44,.11,.61-.3,.04-.59-.04-.89-.02-.11,0-.14-.08-.18-.15-.11-.2-.19-.42-.35-.59-.04,.25-.07,.5,.01,.74-.17,0-.34-.01-.51-.02h0Zm1.78-1.15h0c0,.06,0,.12,0,.18,0,.06-.02,.13,.05,.16,.08,.03,.15,0,.22-.04,.16-.11,.16-.51,0-.62-.06-.05-.14-.07-.22-.04-.07,.03-.04,.11-.05,.17,0,.06,0,.12,0,.19m-1.32-.04h0c0,.06,0,.12,0,.19,0,.17,.1,.23,.25,.14,.18-.1,.19-.53,.02-.64-.06-.04-.13-.05-.2-.03-.08,.03-.05,.1-.06,.16,0,.06,0,.12,0,.19"/>
            <path class="cls-10" d="M453.83,127.58c.61,.19,.8,1.09,.33,1.55-.04,.04-.09,.08-.14,.12-.49,.11-.79-.08-.9-.58-.05-.22-.04-.45,.05-.66,.12-.29,.34-.43,.65-.43m.26,.89c0-.2,0-.4-.08-.59-.05-.11-.12-.21-.26-.2-.13,0-.2,.09-.24,.2-.13,.39-.12,.78,.02,1.16,.04,.1,.11,.17,.23,.17,.13,0,.2-.07,.25-.18,.08-.17,.08-.36,.08-.55"/>
            <path class="cls-10" d="M451.56,131.29c-.06,0-.1-.02-.14-.06-.2-.23-.19-.82,.01-1.05,.12-.13,.26-.13,.39-.05,.24,.14,.25,.38,.24,.61,0,.22,0,.46-.27,.56-.02-.02-.05-.04-.04-.05,.08-.28,.03-.57,.04-.85,0-.1,.02-.26-.12-.26-.13,0-.11,.15-.11,.24,0,.3,0,.6,0,.9"/>
            <path class="cls-10" d="M454.08,130.07c.42,.04,.59,.39,.41,.82-.07,.16-.18,.27-.32,.36-.02,0-.03,0-.05,0h-.1c.04-.05,.08-.1,.11-.15,.04-.06,.11-.13,.08-.2-.03-.07-.11-.02-.17-.02-.2-.02-.28-.15-.29-.33-.03-.25,.08-.4,.32-.48m-.06,.34c.01,.1,0,.2,.05,.29,.03,.05,.07,.08,.13,.07,.05,0,.07-.03,.07-.08,.01-.16,.02-.32-.05-.48-.02-.04-.05-.08-.1-.08-.07,0-.09,.05-.1,.11,0,.05,0,.11-.01,.16"/>
            <path class="cls-10" d="M450.12,131.34c-.08-.02-.2,.05-.14-.17,.07-.24,.02-.52,.02-.78,0-.09-.07-.11-.17-.12,.15-.1,.29-.16,.43-.2,0,0,0,0,0,0,0,.16,0,.32,0,.49,.02,.24-.05,.49,.04,.72-.04,.08-.13,.02-.18,.05"/>
            <path class="cls-10" d="M452.47,131.23s.01-.06,.02-.09c.03-.26,.03-.53,0-.79-.04-.04-.07-.07-.12-.11,.01-.01,.02-.02,.03-.03q.35-.17,.35,.21c0,.25,0,.51,0,.76,0,0-.01,.01,0,.02,0,.01,.02,.02,.03,.03v.02s-.02,.05-.04,.08h-.23s-.02-.07-.03-.1"/>
            <path class="cls-24" d="M451.56,131.29c0-.3,0-.6,0-.9,0-.09-.02-.24,.11-.24,.15,0,.13,.15,.12,.26,0,.28,.04,.57-.04,.85,0,.01,.03,.03,.04,.05-.08,.13-.16,.14-.23,0"/>
            <path class="cls-10" d="M453.37,131c-.05,0-.11,0-.16,0-.07,0-.09-.04-.09-.11,0-.06,.03-.08,.09-.08,.11,0,.21,0,.32,0,.06,0,.12,0,.12,.09,0,.09-.05,.1-.12,.1-.05,0-.11,0-.16,0"/>
            <path class="cls-10" d="M450.89,130.99c-.06,0-.12,0-.18,0-.06,0-.07-.05-.07-.1,0-.05,.02-.09,.08-.09,.1,0,.2,0,.3,0,.06,0,.15-.02,.15,.09,0,.12-.08,.1-.16,.1-.04,0-.08,0-.11,0h0Z"/>
            <path class="cls-24" d="M450.3,131.29c-.09-.24-.02-.48-.04-.72-.01-.16,0-.32,0-.49,.09,.14,.04,.3,.04,.45,0,.25,0,.51,0,.76"/>
            <path class="cls-25" d="M452.48,130.36c.04,.26,.03,.52,0,.79-.05-.26-.04-.52,0-.79"/>
            <path class="cls-24" d="M450.4,129.23c.17,0,.34,.01,.51,.02-.17,.06-.34,.09-.51-.02"/>
            <path class="cls-24" d="M453.73,131.35c.1-.03,.15-.05,.21-.07-.02,.11-.08,.1-.21,.07"/>
            <path class="cls-25" d="M452.47,131.23s.02,.07,.03,.1h-.21c.08-.04,.13-.07,.19-.1"/>
            <path class="cls-24" d="M454.03,131.24h.1c0,.06-.03,.1-.09,.08-.05-.01-.05-.05-.01-.08"/>
            <path class="cls-25" d="M452.73,131.33s.03-.05,.05-.08l.13,.05s0,.02,0,.03h-.18Z"/>
            <path class="cls-25" d="M452.77,131.23s-.02-.02-.03-.03c0,0,0-.01,0-.02,0,.02,.01,.03,.02,.05"/>
            <path class="cls-10" d="M454.78,130.31s0,.01-.02,.02c0,0,0,0-.01,0,.01,0,.02,0,.03,0h0Z"/>
            <path class="cls-10" d="M454.83,130.27s-.03,.03-.05,.04c0,0,0,0,0,0-.02-.03,0-.05,.02-.07,0,0,.02,.02,.03,.03"/>
            <path class="cls-25" d="M449.61,128.71c.07-.04,.15-.06,.19,.04-.06-.01-.13-.03-.19-.04"/>
            <path class="cls-25" d="M449.82,128.82s.01,.02,.02,.03c0,0,0,0,0,.01,0,0-.02-.02-.02-.03,0,0,0,0,0-.01"/>
            <path class="cls-25" d="M449.37,128.45s-.02,.03-.03,.05c-.01-.03,0-.04,.03-.05"/>
            <path class="cls-21" d="M448.63,128.59c0,.12,0,.21-.06,.28-.05,.08-.13,.15-.23,.12-.11-.03-.08-.13-.08-.22,0-.09,.01-.19,.03-.28,.01-.07-.04-.19,.09-.2,.12,0,.2,.07,.23,.19,.01,.04,.01,.09,.01,.1"/>
            <path class="cls-21" d="M448.34,127.96c0-.09,0-.17,.02-.24,0-.06,0-.14,.07-.15,.08-.02,.15,.03,.19,.1,.07,.11,.06,.22,.02,.33-.04,.11-.12,.2-.24,.18-.15-.02-.04-.15-.07-.22"/>
            <path class="cls-21" d="M445.6,127.65c-.02,.24-.05,.47-.14,.69-.04,.1-.1,.2-.2,.24-.13,.04-.24,.04-.22-.15,.06-.4,.12-.79,.18-1.19,.02-.13,.1-.1,.17-.06,.2,.1,.19,.3,.21,.48"/>
            <path class="cls-21" d="M447.03,127.95c-.03,.25-.05,.5-.17,.72-.06,.12-.14,.21-.29,.19-.15-.02-.2-.14-.22-.27-.05-.34-.01-.67,.11-.98,.05-.14,.14-.28,.31-.26,.18,.02,.22,.17,.24,.33,.01,.09,.01,.18,.02,.28"/>
            <path class="cls-12" d="M449.45,128.49c.05-.12,.11-.25,.18-.43,.05,.19,.08,.31,.12,.44,0,.04,0,.08,0,.13-.11-.02-.26,.09-.32-.09,0-.01,.01-.03,.02-.04"/>
            <path class="cls-25" d="M449.75,128.62s0-.08,0-.13c.04,.04,.07,.08,0,.13"/>
            <path class="cls-25" d="M449.45,128.49s-.02,.03-.02,.04c0-.01,.01-.03,.02-.04"/>
            <path class="cls-12" d="M449.33,130.72c0,.16-.01,.31-.03,.45,0,.06-.04,.12-.12,.12-.07,0-.09-.06-.1-.11-.04-.31-.04-.62,0-.92,0-.06,.03-.11,.09-.12,.08,0,.11,.05,.12,.11,.02,.16,.02,.32,.03,.47"/>
            <path class="cls-21" d="M455.38,128.01c0-.06,0-.12,0-.19,0-.06-.05-.15,.05-.18,.08-.02,.16,0,.21,.06,.05,.06,.1,.12,.13,.19,.11,.31,.12,.64,.04,.96-.03,.13-.11,.24-.26,.23-.16-.01-.11-.16-.12-.26-.02-.27-.03-.54-.05-.81h0Z"/>
            <path class="cls-21" d="M457.3,128.38c0,.15,0,.3-.06,.43-.09,.21-.32,.24-.43,.04-.21-.38-.24-.79-.13-1.21,.03-.1,.1-.17,.22-.18,.13,0,.2,.07,.25,.17,.12,.23,.13,.49,.15,.74"/>
            <path class="cls-24" d="M452.19,128.07c0-.06,0-.12,0-.18,0-.06-.02-.13,.05-.17,.08-.03,.15,0,.22,.04,.16,.11,.16,.51,0,.62-.07,.04-.14,.07-.22,.04-.07-.03-.04-.11-.05-.16,0-.06,0-.12,0-.18h0Z"/>
            <path class="cls-24" d="M450.87,128.03c0-.06,0-.12,0-.19,0-.06-.02-.13,.06-.16,.07-.02,.14,0,.2,.03,.17,.11,.16,.54-.02,.64-.15,.09-.24,.03-.25-.14,0-.06,0-.12,0-.19h0Z"/>
            <path class="cls-24" d="M454.08,128.47c0,.19,0,.37-.08,.55-.05,.11-.12,.18-.25,.18-.12,0-.19-.07-.23-.17-.14-.38-.15-.77-.02-1.16,.04-.11,.11-.19,.24-.2,.13,0,.21,.09,.26,.2,.08,.19,.08,.39,.08,.59"/>
            <path class="cls-24" d="M454.02,130.41c0-.05,0-.11,.01-.16,0-.06,.03-.11,.1-.11,.05,0,.08,.04,.1,.08,.06,.15,.06,.32,.05,.48,0,.04-.03,.07-.07,.08-.06,0-.1-.02-.13-.07-.05-.09-.04-.19-.05-.29"/>
          </g>
          <path d="M493.07,100.48h1.19c.94,0,1.57,.29,1.57,1.11s-.63,1.17-1.54,1.17h-.69v1.5h-.53v-3.79Zm2.23,1.11c0-.55-.37-.72-1.1-.72h-.59v1.5h.62c.73,0,1.08-.24,1.08-.78Zm1.9,1.07v1.6h-.53v-3.79h1.31c.85,0,1.46,.28,1.46,1.07,0,.59-.37,.94-.94,1.07l1.06,1.65h-.6l-1.01-1.6h-.76Zm1.71-1.12c0-.5-.36-.67-1.01-.67h-.7v1.4h.7c.65,0,1.01-.24,1.01-.73Zm1.38-1.07h2.41v.41h-1.88v1.19h1.58v.41h-1.58v1.38h1.94v.41h-2.47v-3.79Zm3.36,0h2.41v.41h-1.88v1.28h1.59v.41h-1.59v1.69h-.53v-3.79Zm3.15,0h2.41v.41h-1.88v1.19h1.58v.41h-1.58v1.38h1.94v.41h-2.47v-3.79Zm3.36,0h.53v3.79h-.53v-3.79Zm2.54,.41h-1.26v-.41h3.06v.41h-1.26v3.38h-.53v-3.38Zm2.52,1.81v-2.22h.53v2.24c0,.91,.42,1.2,.97,1.2s.99-.29,.99-1.2v-2.24h.51v2.22c0,1.21-.65,1.63-1.5,1.63s-1.5-.42-1.5-1.63Zm4.66-.04v1.6h-.53v-3.79h1.31c.85,0,1.46,.28,1.46,1.07,0,.59-.37,.94-.94,1.07l1.06,1.65h-.6l-1.01-1.6h-.76Zm1.71-1.12c0-.5-.36-.67-1.01-.67h-.7v1.4h.7c.65,0,1.01-.24,1.01-.73Zm2.22-1.07h.6l1.41,3.79h-.56l-.4-1.15h-1.52l-.4,1.15h-.54l1.41-3.79Zm.92,2.25l-.2-.58c-.15-.42-.28-.84-.42-1.28h-.03c-.13,.44-.26,.85-.41,1.28l-.2,.58h1.26Z"/>
          <path d="M493.34,105.5h.79v5.01h2.71v.61h-3.5v-5.62Zm5.9,0h.89l2.1,5.62h-.84l-.59-1.71h-2.26l-.6,1.71h-.8l2.1-5.62Zm1.37,3.34l-.3-.86c-.22-.63-.42-1.24-.62-1.89h-.04c-.19,.65-.39,1.27-.61,1.89l-.3,.86h1.87Zm2.04-.52c0-1.81,1.2-2.92,2.85-2.92,.86,0,1.43,.35,1.79,.69l-.43,.47c-.31-.29-.71-.53-1.34-.53-1.25,0-2.05,.87-2.05,2.27s.74,2.3,2.06,2.3c.44,0,.87-.12,1.12-.33v-1.46h-1.31v-.59h2.03v2.36c-.4,.38-1.08,.65-1.91,.65-1.64,0-2.8-1.08-2.8-2.91Zm5.83-.03c0-1.8,1.09-2.89,2.65-2.89s2.65,1.1,2.65,2.89-1.09,2.93-2.65,2.93-2.65-1.13-2.65-2.93Zm4.49,0c0-1.4-.73-2.26-1.84-2.26s-1.84,.86-1.84,2.26,.73,2.3,1.84,2.3,1.84-.9,1.84-2.3Zm3.33-2.79h.89l2.1,5.62h-.84l-.59-1.71h-2.26l-.6,1.71h-.8l2.1-5.62Zm1.37,3.34l-.3-.86c-.22-.63-.42-1.24-.62-1.89h-.04c-.19,.65-.39,1.27-.61,1.89l-.3,.86h1.87Zm5.9-3.34c1.91,0,2.93,1,2.93,2.79s-1.02,2.83-2.89,2.83h-1.59v-5.62h1.55Zm-.06,5.03c1.45,0,2.17-.82,2.17-2.24s-.72-2.2-2.17-2.2h-.7v4.45h.7Zm3.96-2.24c0-1.8,1.09-2.89,2.65-2.89s2.65,1.1,2.65,2.89-1.09,2.93-2.65,2.93-2.65-1.13-2.65-2.93Zm4.49,0c0-1.4-.73-2.26-1.84-2.26s-1.84,.86-1.84,2.26,.73,2.3,1.84,2.3,1.84-.9,1.84-2.3Z"/>
          <g class="cls-11">
            <path d="M496.75,112.7c2.35,0,3.98,.72,3.98,2.57,0,1.04-.61,1.96-1.69,2.28v.06c1.38,.25,2.35,1.07,2.35,2.51,0,2.06-1.8,3.07-4.38,3.07h-3.7v-10.49h3.44Zm2.54,2.74c0-1.22-.93-1.68-2.72-1.68h-1.78v3.4h1.71c1.97,0,2.78-.66,2.78-1.72Zm-2.48,6.69c1.98,0,3.15-.65,3.15-2.06,0-1.29-1.12-1.88-3.15-1.88h-2.01v3.94h2.01Zm9.26-9.43h1.66l3.92,10.49h-1.56l-1.1-3.19h-4.22l-1.11,3.19h-1.5l3.92-10.49Zm2.55,6.23l-.55-1.6c-.42-1.17-.79-2.32-1.16-3.53h-.07c-.36,1.22-.73,2.36-1.15,3.53l-.56,1.6h3.48Zm6.07-.17v4.43h-1.47v-10.49h3.63c2.36,0,4.05,.77,4.05,2.95,0,1.63-1.03,2.61-2.6,2.96l2.95,4.58h-1.67l-2.79-4.43h-2.09Zm4.73-3.1c0-1.38-.99-1.87-2.79-1.87h-1.94v3.89h1.94c1.8,0,2.79-.66,2.79-2.02Zm5.3,3.1v4.43h-1.47v-10.49h3.63c2.36,0,4.05,.77,4.05,2.95,0,1.63-1.03,2.61-2.6,2.96l2.95,4.58h-1.67l-2.79-4.43h-2.09Zm4.73-3.1c0-1.38-.99-1.87-2.79-1.87h-1.94v3.89h1.94c1.8,0,2.79-.66,2.79-2.02Zm3.16,2.25c0-3.36,2.04-5.4,4.95-5.4s4.95,2.04,4.95,5.4-2.04,5.47-4.95,5.47-4.95-2.11-4.95-5.47Zm8.37,0c0-2.61-1.36-4.22-3.43-4.22s-3.43,1.61-3.43,4.22,1.36,4.3,3.43,4.3,3.43-1.69,3.43-4.3Z"/>
          </g>
        </g>
      </g>
    </g>
  </g>
</svg>