<?xml version="1.0" encoding="UTF-8"?>
<svg id="Camada_2" data-name="Camada 2" xmlns="http://www.w3.org/2000/svg" xmlns:xlink="http://www.w3.org/1999/xlink" viewBox="0 0 554.09 141.77">
  <defs>
    <style>
      .cls-1 {
        clip-path: url(#clippath-2);
      }

      .cls-2 {
        opacity: .8;
      }

      .cls-2, .cls-3, .cls-4, .cls-5, .cls-6 {
        fill: #2b9a3f;
      }

      .cls-7 {
        fill: #fff;
        stroke-width: .25px;
      }

      .cls-7, .cls-8 {
        stroke: #1d1d1b;
        stroke-miterlimit: 10;
      }

      .cls-9 {
        clip-path: url(#clippath-1);
      }

      .cls-10 {
        fill: #164194;
      }

      .cls-3 {
        opacity: .7;
      }

      .cls-11 {
        font-family: Montserrat-Regular, Montserrat;
      }

      .cls-11, .cls-12 {
        font-size: 4.09px;
      }

      .cls-11, .cls-12, .cls-13 {
        fill: #1d1d1b;
      }

      .cls-14 {
        fill: #107527;
      }

      .cls-15 {
        fill: #006b2d;
      }

      .cls-16 {
        fill: #f6b600;
      }

      .cls-17 {
        clip-path: url(#clippath);
      }

      .cls-18, .cls-8 {
        fill: none;
      }

      .cls-12 {
        font-family: Montserrat-ExtraBold, Montserrat;
      }

      .cls-4 {
        opacity: .9;
      }

      .cls-19 {
        fill: #e63312;
      }

      .cls-8 {
        stroke-width: .39px;
      }

      .cls-5 {
        opacity: .2;
      }

      .cls-6 {
        opacity: .5;
      }
    </style>
    <clipPath id="clippath">
      <rect class="cls-18" x="429.41" y="99.37" width="111.5" height="32.29"/>
    </clipPath>
    <clipPath id="clippath-1">
      <rect class="cls-18" x="429.41" y="99.37" width="111.5" height="32.29"/>
    </clipPath>
    <clipPath id="clippath-2">
      <rect class="cls-18" x="429.41" y="99.37" width="111.5" height="32.29"/>
    </clipPath>
  </defs>
  <g id="base">
    <g>
      <rect class="cls-7" x=".12" y=".12" width="553.84" height="141.52"/>
      <g>
        <polygon class="cls-4" points="553.7 66.87 492.01 .12 553.96 .12 553.7 66.87"/>
        <polygon class="cls-5" points="553.7 71.92 503.44 17.41 482.17 27.51 553.7 110.48 553.7 71.92"/>
        <path class="cls-6" d="M553.7,66.87l-44.41-47.86h0c7.33-1,14.68,1.65,19.69,7.1l24.98,27.2-.27,13.56Z"/>
        <path class="cls-2" d="M509.29,19L491.97,.12h-22.56l11.32,12.37c3.8,4.15,9.16,6.51,14.79,6.51h13.77Z"/>
      </g>
      <g>
        <polygon class="cls-5" points="62.67 105.7 44.7 114.33 .12 60.05 .12 32.01 62.67 105.7"/>
        <polygon class="cls-4" points=".12 73.71 .12 141.64 57.28 141.64 .12 73.71"/>
        <path class="cls-3" d="M99.69,141.64l-9.4-9.92c-2.26-2.39-5.41-3.74-8.69-3.74h-20.64c-5.29,0-10.31-2.36-13.69-6.43L.12,64.72v8.99l57.15,67.93h42.41Z"/>
        <path class="cls-6" d="M51.16,111.45l-6.47,2.88L12.71,73.71h0c5.75-.88,11.52,1.48,14.98,6.15l23.47,31.59Z"/>
      </g>
      <rect class="cls-8" x="227.63" y="84.18" width="36.8" height="10.37" rx="5.19" ry="5.19"/>
      <rect class="cls-8" x="285.67" y="84.18" width="36.8" height="10.37" rx="5.19" ry="5.19"/>
      <g id="Arte_164" data-name="Arte 164">
        <g class="cls-17">
          <text class="cls-11" transform="translate(454.45 115.66)"><tspan x="0" y="0">S</tspan></text>
          <text class="cls-11" transform="translate(456.97 115.66)"><tspan x="0" y="0">E</tspan></text>
          <text class="cls-11" transform="translate(459.69 115.66)"><tspan x="0" y="0">CRE</tspan></text>
          <text class="cls-11" transform="translate(468.34 115.66)"><tspan x="0" y="0">T</tspan></text>
          <text class="cls-11" transform="translate(470.54 115.66)"><tspan x="0" y="0">ARIA</tspan></text>
          <g class="cls-9">
            <text class="cls-11" transform="translate(429.41 119.98)"><tspan x="0" y="0">D</tspan></text>
          </g>
          <text class="cls-11" transform="translate(432.75 119.98)"><tspan x="0" y="0">A </tspan></text>
          <text class="cls-12" transform="translate(436.76 119.98)"><tspan x="0" y="0">EDU</tspan></text>
          <text class="cls-12" transform="translate(446.11 119.98)"><tspan x="0" y="0">C</tspan></text>
          <text class="cls-12" transform="translate(449.08 119.98)"><tspan x="0" y="0">A</tspan></text>
          <text class="cls-12" transform="translate(452.26 119.98)"><tspan x="0" y="0">Ç</tspan></text>
          <text class="cls-12" transform="translate(455.24 119.98)"><tspan x="0" y="0">Ã</tspan></text>
          <text class="cls-12" transform="translate(458.42 119.98)"><tspan x="0" y="0">O </tspan></text>
          <text class="cls-11" transform="translate(463.06 119.98)"><tspan x="0" y="0">- SEDUC</tspan></text>
          <g class="cls-1">
            <path class="cls-10" d="M498.76,107.1c2.51-1.23,5-2.17,7.47-2.36,.02-.43,.04-.86,.06-1.28-2.47,.26-4.96,1.09-7.46,2.25-.02,.46-.04,.93-.06,1.39"/>
            <path class="cls-16" d="M506.26,105.71c-2.3,.13-4.64,.97-6.98,2.12-.02,.46-.04,.92-.06,1.39,2.35-1.2,4.69-2.11,6.99-2.19,.02-.44,.04-.88,.06-1.31"/>
            <path class="cls-16" d="M498.05,112.19c2.92-1.62,5.83-3.02,8.67-2.83,.02-.46,.04-.91,.06-1.36-2.84-.13-5.75,1.18-8.66,2.77-.02,.47-.04,.95-.06,1.42"/>
            <path class="cls-19" d="M506.98,112.79c-.02,.47-.04,.94-.06,1.41-6.2-.91-12.81,7.16-19.01,6.26l.27-1.36c6.14,.71,12.68-7.26,18.81-6.3"/>
            <path class="cls-19" d="M508.15,115.52c-.02,.47-.04,.95-.06,1.42-3.5-1.35-7.17,.88-10.82,2.84-3.63,2-7.25,3.73-10.76,2.85l.26-1.36c6.95,2.08,14.44-8.2,21.37-5.76"/>
            <path class="cls-19" d="M507.48,117.84c-.02,.48-.04,.96-.06,1.44-3.36-.85-6.86,1.29-10.34,3.03-3.47,1.81-6.92,3.23-10.29,2.84l.27-1.36c3.3,.5,6.69-1.05,10.09-2.9,3.48-1.83,6.98-3.96,10.34-3.04"/>
            <path class="cls-14" d="M495.01,128.89c-.02,.44-.04,.89-.06,1.33-2,.62-3.98,1.02-5.97,1.44l.24-1.24c1.92-.36,3.85-.84,5.78-1.54"/>
            <path class="cls-14" d="M506.58,121.59c-3.22-.29-6.54,1.72-9.83,3.21-3.37,1.63-6.72,2.71-10.02,2.69l.27-1.37c3.22,.2,6.51-1.05,9.81-2.74,3.3-1.6,6.62-3.65,9.83-3.26l-.07,1.47Z"/>
            <path class="cls-14" d="M502.1,124.97c-2.07,.73-4.15,1.78-6.23,2.58-2.63,1.07-5.23,1.75-7.83,2.12l.25-1.3c2.52-.27,5.07-1.06,7.64-2.21,2.08-.89,4.17-2.02,6.24-2.77l-.07,1.56Z"/>
            <path class="cls-10" d="M505.38,101.4c-.02,.4-.04,.81-.05,1.22-1.88,.31-3.77,.91-5.67,1.7l.06-1.35c1.9-.7,3.78-1.23,5.66-1.57"/>
            <path class="cls-10" d="M502.24,100.03c.9-.23,1.8-.44,2.69-.66,0,.39,0,.79-.01,1.19-.91,.2-1.82,.42-2.74,.68l.05-1.22Z"/>
            <path class="cls-16" d="M506.3,111.68c-3.64-.18-7.4,2.5-11.14,4.45l.06-1.43c3.73-1.96,7.49-4.55,11.13-4.4-.02,.46-.04,.91-.06,1.38"/>
            <path class="cls-13" d="M512.18,122.14h-.97l-.2,.46h-.27l.83-1.83h.26l.83,1.83h-.27l-.2-.46Zm-.09-.21l-.4-.9-.4,.9h.79Z"/>
            <path class="cls-13" d="M514.73,122.76c-.06,.07-.13,.12-.21,.16-.08,.04-.16,.06-.25,.06-.11,0-.22-.03-.32-.08-.1-.06-.21-.15-.34-.28-.17,0-.33-.06-.47-.14-.14-.08-.25-.2-.32-.33-.08-.14-.12-.29-.12-.46s.04-.34,.13-.48c.08-.14,.2-.26,.35-.34,.15-.08,.31-.12,.5-.12s.35,.04,.5,.12c.15,.08,.26,.19,.35,.33,.08,.14,.13,.3,.13,.48,0,.15-.03,.29-.09,.41-.06,.13-.14,.23-.25,.32-.11,.09-.23,.14-.38,.18,.06,.06,.12,.11,.18,.14,.06,.03,.11,.04,.17,.04,.13,0,.24-.05,.33-.16l.12,.15Zm-1.68-.72c.06,.11,.15,.19,.26,.25,.11,.06,.23,.09,.37,.09s.25-.03,.36-.09c.11-.06,.19-.15,.26-.25,.06-.11,.09-.23,.09-.36s-.03-.25-.09-.36-.15-.19-.26-.25c-.11-.06-.23-.09-.36-.09s-.26,.03-.37,.09c-.11,.06-.2,.15-.26,.25-.06,.11-.09,.23-.09,.36s.03,.25,.09,.36"/>
            <path class="cls-13" d="M515.18,122.4c-.14-.14-.2-.34-.2-.6v-1.04h.26v1.03c0,.39,.17,.59,.52,.59,.17,0,.3-.05,.38-.15,.09-.1,.13-.24,.13-.44v-1.03h.25v1.04c0,.26-.07,.46-.2,.6-.14,.14-.33,.21-.57,.21s-.43-.07-.57-.21"/>
            <rect class="cls-13" x="517.02" y="120.76" width=".26" height="1.83"/>
            <polygon class="cls-13" points="518.9 120.99 518.27 120.99 518.27 120.76 519.79 120.76 519.79 120.99 519.16 120.99 519.16 122.59 518.9 122.59 518.9 120.99"/>
            <polygon class="cls-13" points="521.38 122.37 521.38 122.59 520.05 122.59 520.05 120.76 521.34 120.76 521.34 120.99 520.31 120.99 520.31 121.55 521.23 121.55 521.23 121.77 520.31 121.77 520.31 122.37 521.38 122.37"/>
            <polygon class="cls-13" points="523.43 122.59 523.43 121.26 522.77 122.37 522.65 122.37 521.98 121.27 521.98 122.59 521.73 122.59 521.73 120.76 521.95 120.76 522.71 122.05 523.47 120.76 523.68 120.76 523.68 122.59 523.43 122.59"/>
            <polygon class="cls-13" points="525.26 121.11 524.67 121.11 524.67 120.76 526.27 120.76 526.27 121.11 525.68 121.11 525.68 122.59 525.26 122.59 525.26 121.11"/>
            <path class="cls-13" d="M527.65,122.59l-.35-.51h-.39v.51h-.42v-1.83h.79c.16,0,.3,.03,.42,.08,.12,.05,.21,.13,.28,.23,.06,.1,.1,.22,.1,.35s-.03,.25-.1,.35c-.07,.1-.16,.17-.28,.23l.41,.59h-.46Zm-.11-1.4c-.07-.06-.16-.08-.29-.08h-.34v.64h.34c.13,0,.22-.03,.29-.08,.07-.06,.1-.13,.1-.24s-.03-.18-.1-.24"/>
            <path class="cls-13" d="M529.68,122.2h-.85l-.16,.39h-.43l.82-1.83h.42l.82,1.83h-.45l-.16-.39Zm-.13-.32l-.29-.7-.29,.7h.58Z"/>
            <path class="cls-13" d="M532.07,121.81c.06,.08,.09,.17,.09,.29,0,.16-.06,.28-.19,.37-.12,.09-.31,.13-.55,.13h-.95v-1.83h.9c.22,0,.39,.04,.51,.13,.12,.09,.18,.2,.18,.35,0,.09-.02,.17-.06,.24-.04,.07-.1,.12-.18,.16,.1,.03,.19,.09,.25,.17m-1.17-.73v.43h.42c.1,0,.18-.02,.24-.06,.05-.04,.08-.09,.08-.16s-.03-.12-.08-.16c-.05-.04-.13-.05-.24-.05h-.42Zm.75,1.14c.06-.04,.09-.09,.09-.17,0-.15-.11-.23-.34-.23h-.49v.45h.49c.11,0,.2-.02,.25-.06"/>
            <path class="cls-13" d="M533.66,122.2h-.85l-.16,.39h-.43l.82-1.83h.42l.82,1.83h-.45l-.16-.39Zm-.13-.32l-.29-.7-.29,.7h.58Z"/>
            <polygon class="cls-13" points="534.46 120.76 534.89 120.76 534.89 122.25 535.81 122.25 535.81 122.59 534.46 122.59 534.46 120.76"/>
            <polygon class="cls-13" points="537.7 120.76 537.7 122.59 537.28 122.59 537.28 121.84 536.45 121.84 536.45 122.59 536.02 122.59 536.02 120.76 536.45 120.76 536.45 121.48 537.28 121.48 537.28 120.76 537.7 120.76"/>
            <path class="cls-13" d="M538.51,122.5c-.15-.08-.27-.19-.36-.34-.09-.14-.13-.31-.13-.49s.04-.34,.13-.49c.09-.14,.21-.26,.36-.34,.15-.08,.32-.12,.51-.12s.36,.04,.51,.12c.15,.08,.27,.2,.36,.34,.09,.14,.13,.31,.13,.49s-.04,.34-.13,.49c-.09,.14-.21,.26-.36,.34-.15,.08-.32,.12-.51,.12s-.36-.04-.51-.12m.81-.31c.09-.05,.16-.12,.21-.21,.05-.09,.07-.19,.07-.3s-.02-.21-.07-.3c-.05-.09-.12-.16-.21-.21-.09-.05-.18-.07-.29-.07s-.21,.02-.29,.07c-.09,.05-.16,.12-.21,.21-.05,.09-.07,.19-.07,.3s.02,.21,.07,.3c.05,.09,.12,.16,.21,.21,.09,.05,.18,.07,.29,.07s.21-.02,.29-.07"/>
            <path class="cls-13" d="M540.22,122.56s-.05-.08-.05-.13,.02-.09,.05-.13c.04-.03,.08-.05,.13-.05s.09,.02,.12,.05c.03,.03,.05,.08,.05,.13s-.02,.1-.05,.13c-.03,.03-.07,.05-.12,.05s-.09-.02-.13-.05"/>
            <path class="cls-13" d="M512.18,125.16h-.97l-.2,.46h-.27l.83-1.83h.26l.83,1.83h-.27l-.2-.46Zm-.09-.21l-.4-.9-.4,.9h.79Z"/>
            <path class="cls-13" d="M514.73,125.79c-.06,.07-.13,.12-.21,.16-.08,.04-.16,.06-.25,.06-.11,0-.22-.03-.32-.08-.1-.06-.21-.15-.34-.28-.17,0-.33-.06-.47-.14-.14-.08-.25-.19-.32-.33-.08-.14-.12-.29-.12-.46s.04-.34,.13-.48c.08-.14,.2-.26,.35-.34,.15-.08,.31-.12,.5-.12s.35,.04,.5,.12c.15,.08,.26,.19,.35,.33,.08,.14,.13,.3,.13,.48,0,.15-.03,.29-.09,.41-.06,.13-.14,.23-.25,.32s-.23,.14-.38,.18c.06,.06,.12,.11,.18,.14,.06,.03,.11,.04,.17,.04,.13,0,.24-.05,.33-.16l.12,.15Zm-1.68-.72c.06,.11,.15,.19,.26,.25,.11,.06,.23,.09,.37,.09s.25-.03,.36-.09c.11-.06,.19-.15,.26-.25,.06-.11,.09-.23,.09-.36s-.03-.25-.09-.36c-.06-.11-.15-.19-.26-.25-.11-.06-.23-.09-.36-.09s-.26,.03-.37,.09c-.11,.06-.2,.15-.26,.25-.06,.11-.09,.23-.09,.36s.03,.25,.09,.36"/>
            <path class="cls-13" d="M515.18,125.43c-.14-.14-.2-.34-.2-.6v-1.04h.26v1.03c0,.39,.17,.59,.52,.59,.17,0,.3-.05,.38-.15,.09-.1,.13-.24,.13-.44v-1.03h.25v1.04c0,.26-.07,.46-.2,.6-.14,.14-.33,.21-.57,.21s-.43-.07-.57-.21"/>
            <rect class="cls-13" x="517.02" y="123.79" width=".26" height="1.83"/>
            <polygon class="cls-13" points="518.9 124.02 518.27 124.02 518.27 123.79 519.79 123.79 519.79 124.02 519.16 124.02 519.16 125.62 518.9 125.62 518.9 124.02"/>
            <polygon class="cls-13" points="521.38 125.39 521.38 125.62 520.05 125.62 520.05 123.79 521.34 123.79 521.34 124.02 520.31 124.02 520.31 124.58 521.23 124.58 521.23 124.8 520.31 124.8 520.31 125.39 521.38 125.39"/>
            <polygon class="cls-13" points="523.43 125.62 523.43 124.29 522.77 125.4 522.65 125.4 521.98 124.3 521.98 125.62 521.73 125.62 521.73 123.79 521.95 123.79 522.71 125.08 523.47 123.79 523.68 123.79 523.68 125.62 523.43 125.62"/>
            <polygon class="cls-13" points="525.3 124.13 525.3 124.61 526.15 124.61 526.15 124.96 525.3 124.96 525.3 125.62 524.88 125.62 524.88 123.79 526.26 123.79 526.26 124.13 525.3 124.13"/>
            <path class="cls-13" d="M526.74,125.44c-.15-.14-.22-.35-.22-.62v-1.03h.42v1.01c0,.33,.14,.49,.41,.49,.13,0,.23-.04,.3-.12,.07-.08,.11-.2,.11-.37v-1.01h.42v1.03c0,.27-.07,.48-.22,.62-.15,.15-.35,.22-.61,.22s-.46-.07-.61-.22"/>
            <polygon class="cls-13" points="528.98 124.14 528.39 124.14 528.39 123.79 529.98 123.79 529.98 124.14 529.4 124.14 529.4 125.62 528.98 125.62 528.98 124.14"/>
            <path class="cls-13" d="M530.41,125.44c-.15-.14-.22-.35-.22-.62v-1.03h.42v1.01c0,.33,.14,.49,.41,.49,.13,0,.23-.04,.3-.12,.07-.08,.1-.2,.1-.37v-1.01h.42v1.03c0,.27-.07,.48-.22,.62-.15,.15-.35,.22-.61,.22s-.47-.07-.61-.22"/>
            <path class="cls-13" d="M533.43,125.62l-.35-.51h-.39v.51h-.42v-1.83h.79c.16,0,.3,.03,.42,.08,.12,.05,.21,.13,.28,.23,.06,.1,.1,.22,.1,.35s-.03,.25-.1,.35c-.07,.1-.16,.17-.28,.23l.41,.59h-.46Zm-.11-1.4c-.07-.06-.16-.08-.29-.08h-.34v.64h.34c.13,0,.22-.03,.29-.08,.07-.06,.1-.13,.1-.24s-.03-.18-.1-.24"/>
            <path class="cls-13" d="M534.55,125.53c-.15-.08-.27-.19-.36-.34-.09-.14-.13-.31-.13-.49s.04-.34,.13-.49c.09-.14,.21-.26,.36-.34,.15-.08,.32-.12,.51-.12s.36,.04,.51,.12c.15,.08,.27,.2,.36,.34,.09,.14,.13,.31,.13,.49s-.04,.34-.13,.49c-.09,.14-.21,.26-.36,.34-.15,.08-.32,.12-.51,.12s-.36-.04-.51-.12m.81-.31c.09-.05,.16-.12,.21-.21,.05-.09,.07-.19,.07-.3s-.02-.21-.07-.3c-.05-.09-.12-.16-.21-.21-.09-.05-.18-.07-.29-.07s-.21,.02-.29,.07c-.09,.05-.16,.12-.21,.21-.05,.09-.07,.19-.07,.3s.02,.21,.07,.3c.05,.09,.12,.16,.21,.21,.09,.05,.18,.07,.29,.07s.21-.02,.29-.07"/>
            <path class="cls-13" d="M536.26,125.59s-.05-.08-.05-.13,.02-.09,.05-.13c.04-.03,.08-.05,.13-.05s.09,.02,.12,.05c.03,.03,.05,.08,.05,.13s-.02,.1-.05,.13c-.03,.03-.07,.05-.12,.05s-.09-.02-.13-.05"/>
            <path class="cls-13" d="M511.75,107.83c.15-.08,.33-.12,.52-.12,.3,0,.56,.11,.77,.32l.33-.32c-.13-.15-.29-.26-.48-.34-.19-.08-.4-.12-.64-.12-.29,0-.55,.06-.77,.19-.23,.12-.41,.29-.54,.51s-.2,.46-.2,.74,.07,.52,.2,.74c.13,.22,.31,.39,.54,.51,.23,.12,.48,.19,.77,.19,.2,0,.4-.03,.59-.09,.19-.06,.36-.15,.5-.26v-1.11h-.49v.87c-.16,.1-.36,.14-.57,.14-.19,0-.37-.04-.52-.13-.15-.09-.27-.2-.36-.35-.09-.15-.13-.32-.13-.5s.04-.36,.13-.51c.09-.15,.21-.26,.36-.35"/>
            <path class="cls-13" d="M516.24,107.44c-.23-.12-.49-.18-.77-.18s-.54,.06-.77,.18c-.23,.12-.41,.29-.54,.51-.13,.22-.19,.46-.19,.74s.07,.52,.19,.73c.13,.22,.31,.39,.54,.51,.23,.12,.48,.18,.77,.18s.54-.06,.77-.18c.23-.12,.41-.29,.54-.51,.13-.22,.2-.46,.2-.74s-.07-.52-.2-.74c-.13-.22-.31-.39-.54-.51m.08,1.75c-.09,.15-.2,.27-.35,.35-.15,.08-.32,.13-.5,.13s-.35-.04-.5-.13c-.15-.08-.27-.2-.35-.35-.08-.15-.13-.32-.13-.5s.04-.35,.13-.5c.09-.15,.2-.27,.35-.35,.15-.08,.32-.13,.5-.13s.35,.04,.5,.13c.15,.08,.27,.2,.35,.35,.08,.15,.13,.32,.13,.5s-.04,.35-.13,.5"/>
            <polygon class="cls-13" points="518.69 109.44 517.76 107.29 517.2 107.29 518.42 110.08 518.93 110.08 520.15 107.29 519.63 107.29 518.69 109.44"/>
            <polygon class="cls-13" points="521.12 108.88 522.46 108.88 522.46 108.45 521.12 108.45 521.12 107.73 522.64 107.73 522.64 107.29 520.6 107.29 520.6 110.08 522.69 110.08 522.69 109.65 521.12 109.65 521.12 108.88"/>
            <path class="cls-13" d="M525.61,108.83c.1-.15,.15-.33,.15-.54s-.05-.38-.14-.53c-.1-.15-.23-.26-.41-.34-.18-.08-.39-.12-.63-.12h-1.15v2.79h.52v-.81h.63s.08,0,.11,0l.57,.82h.56l-.64-.92c.19-.07,.34-.19,.44-.34m-1.06,.02h-.6v-1.11h.6c.23,0,.4,.05,.51,.14,.12,.1,.18,.23,.18,.41s-.06,.32-.18,.41c-.12,.1-.29,.15-.51,.15"/>
            <polygon class="cls-13" points="528.46 109.18 526.92 107.29 526.5 107.29 526.5 110.08 527.01 110.08 527.01 108.19 528.55 110.08 528.98 110.08 528.98 107.29 528.46 107.29 528.46 109.18"/>
            <path class="cls-13" d="M531.95,107.44c-.23-.12-.49-.18-.77-.18s-.54,.06-.77,.18c-.23,.12-.41,.29-.54,.51-.13,.22-.2,.46-.2,.74s.07,.52,.2,.73c.13,.22,.31,.39,.54,.51,.23,.12,.48,.18,.77,.18s.54-.06,.77-.18c.23-.12,.41-.29,.54-.51,.13-.22,.2-.46,.2-.74s-.07-.52-.2-.74c-.13-.22-.31-.39-.54-.51m.08,1.75c-.09,.15-.2,.27-.35,.35-.15,.08-.32,.13-.5,.13s-.35-.04-.5-.13c-.15-.08-.27-.2-.35-.35-.08-.15-.13-.32-.13-.5s.04-.35,.13-.5c.09-.15,.2-.27,.35-.35,.15-.08,.32-.13,.5-.13s.35,.04,.5,.13c.15,.08,.27,.2,.35,.35,.08,.15,.13,.32,.13,.5s-.04,.35-.13,.5"/>
            <path class="cls-13" d="M536.67,107.47c-.23-.12-.5-.17-.79-.17h-1.22v2.79h1.22c.3,0,.56-.06,.79-.17,.23-.12,.41-.28,.54-.49,.13-.21,.19-.45,.19-.73s-.06-.52-.19-.73c-.13-.21-.31-.37-.54-.49m.08,1.72c-.08,.14-.2,.26-.36,.33-.16,.08-.34,.12-.54,.12h-.68v-1.91h.68c.2,0,.38,.04,.54,.12s.28,.19,.36,.33c.08,.14,.13,.31,.13,.5s-.04,.36-.13,.5"/>
            <path class="cls-13" d="M540.71,107.95c-.13-.22-.31-.39-.54-.51-.23-.12-.49-.18-.77-.18s-.54,.06-.77,.18c-.23,.12-.41,.29-.54,.51-.13,.22-.19,.46-.19,.74s.06,.52,.19,.73c.13,.22,.31,.39,.54,.51,.23,.12,.48,.18,.77,.18s.54-.06,.77-.18c.23-.12,.41-.29,.54-.51,.13-.22,.2-.46,.2-.74s-.07-.52-.2-.74m-.45,1.24c-.09,.15-.2,.27-.35,.35-.15,.08-.32,.13-.5,.13s-.35-.04-.5-.13c-.15-.08-.26-.2-.35-.35-.08-.15-.13-.32-.13-.5s.04-.35,.13-.5c.09-.15,.2-.27,.35-.35,.15-.08,.32-.13,.5-.13s.35,.04,.5,.13c.15,.08,.27,.2,.35,.35,.09,.15,.13,.32,.13,.5s-.04,.35-.13,.5"/>
            <path class="cls-15" d="M516.34,111.55c.54,.24,.95,.59,1.25,1.04,.29,.45,.44,.98,.44,1.59s-.15,1.14-.44,1.58c-.29,.45-.71,.79-1.25,1.03-.54,.24-1.17,.36-1.91,.36h-1.41v2.11h-2.29v-8.09h3.7c.73,0,1.37,.12,1.91,.36m-.98,3.5c.24-.2,.36-.49,.36-.87s-.12-.67-.36-.88c-.24-.21-.59-.31-1.06-.31h-1.27v2.37h1.27c.47,0,.82-.1,1.06-.31"/>
            <rect class="cls-15" x="518.45" y="111.19" width="2.29" height="8.09"/>
            <path class="cls-15" d="M527.55,117.71h-3.42l-.64,1.57h-2.33l3.57-8.09h2.25l3.58,8.09h-2.38l-.64-1.57Zm-.67-1.69l-1.04-2.59-1.04,2.59h2.08Z"/>
            <path class="cls-15" d="M531.05,118.46c-.67-.65-1-1.58-1-2.78v-4.48h2.29v4.41c0,1.29,.51,1.94,1.54,1.94s1.53-.65,1.53-1.94v-4.41h2.25v4.48c0,1.2-.33,2.13-1,2.78-.67,.66-1.6,.98-2.8,.98s-2.14-.33-2.8-.98"/>
            <polygon class="cls-15" points="540.56 111.19 540.56 111.19 538.27 111.19 538.27 112.66 540.56 111.19"/>
            <polygon class="cls-15" points="538.27 113.32 538.27 119.28 540.56 119.28 540.56 111.85 538.27 113.32"/>
            <rect class="cls-13" x="512.41" y="108.66" width=".92" height=".41"/>
          </g>
        </g>
      </g>
    </g>
  </g>
</svg>